<?xml version="1.0" encoding="utf-8" standalone="no"?>
<!DOCTYPE svg PUBLIC "-//W3C//DTD SVG 1.1//EN"
  "http://www.w3.org/Graphics/SVG/1.1/DTD/svg11.dtd">
<svg xmlns:xlink="http://www.w3.org/1999/xlink" width="518.4pt" height="352.8pt" viewBox="0 0 518.4 352.8" xmlns="http://www.w3.org/2000/svg" version="1.1">
 <metadata>
  <rdf:RDF xmlns:dc="http://purl.org/dc/elements/1.1/" xmlns:cc="http://creativecommons.org/ns#" xmlns:rdf="http://www.w3.org/1999/02/22-rdf-syntax-ns#">
   <cc:Work>
    <dc:type rdf:resource="http://purl.org/dc/dcmitype/StillImage"/>
    <dc:date>2026-06-18T16:50:14.756085</dc:date>
    <dc:format>image/svg+xml</dc:format>
    <dc:creator>
     <cc:Agent>
      <dc:title>Matplotlib v3.10.8, https://matplotlib.org/</dc:title>
     </cc:Agent>
    </dc:creator>
   </cc:Work>
  </rdf:RDF>
 </metadata>
 <defs>
  <style type="text/css">*{stroke-linejoin: round; stroke-linecap: butt}</style>
 </defs>
 <g id="figure_1">
  <g id="patch_1">
   <path d="M 0 352.8 
L 518.4 352.8 
L 518.4 0 
L 0 0 
z
" style="fill: #ffffff"/>
  </g>
  <g id="axes_1">
   <g id="patch_2">
    <path d="M 40.74 193.914 
L 170.28 193.914 
L 170.28 101.04 
L 40.74 101.04 
z
" style="fill: #ffffff"/>
   </g>
   <g id="matplotlib.axis_1">
    <g id="xtick_1">
     <g id="line2d_1">
      <defs>
       <path id="maaf1cb30ca" d="M 0 0 
L 0 4.8 
" style="stroke: #555555"/>
      </defs>
      <g>
       <use xlink:href="#maaf1cb30ca" x="46.628182" y="193.914" style="fill: #555555; stroke: #555555"/>
      </g>
     </g>
    </g>
    <g id="xtick_2">
     <g id="line2d_2">
      <g>
       <use xlink:href="#maaf1cb30ca" x="75.35102" y="193.914" style="fill: #555555; stroke: #555555"/>
      </g>
     </g>
    </g>
    <g id="xtick_3">
     <g id="line2d_3">
      <g>
       <use xlink:href="#maaf1cb30ca" x="104.073858" y="193.914" style="fill: #555555; stroke: #555555"/>
      </g>
     </g>
    </g>
    <g id="xtick_4">
     <g id="line2d_4">
      <g>
       <use xlink:href="#maaf1cb30ca" x="132.796696" y="193.914" style="fill: #555555; stroke: #555555"/>
      </g>
     </g>
    </g>
    <g id="xtick_5">
     <g id="line2d_5">
      <g>
       <use xlink:href="#maaf1cb30ca" x="161.519534" y="193.914" style="fill: #555555; stroke: #555555"/>
      </g>
     </g>
    </g>
   </g>
   <g id="matplotlib.axis_2">
    <g id="ytick_1">
     <g id="line2d_6">
      <path d="M 40.74 191.255971 
L 170.28 191.255971 
" clip-path="url(#pc16cccde22)" style="fill: none; stroke: #e8e8e8; stroke-opacity: 0.55; stroke-width: 0.35; stroke-linecap: round"/>
     </g>
     <g id="line2d_7">
      <defs>
       <path id="md0b054beae" d="M 0 0 
L -4.8 0 
" style="stroke: #555555"/>
      </defs>
      <g>
       <use xlink:href="#md0b054beae" x="40.74" y="191.255971" style="fill: #555555; stroke: #555555"/>
      </g>
     </g>
     <g id="text_1">
      <text style="font-size: 6.5px; font-family: 'DejaVu Sans', 'Arial', 'Liberation Sans', 'Bitstream Vera Sans', sans-serif; text-anchor: end; fill: #555555" x="32.44" y="193.725463" transform="rotate(-0 32.44 193.725463)">−30</text>
     </g>
    </g>
    <g id="ytick_2">
     <g id="line2d_8">
      <path d="M 40.74 177.46608 
L 170.28 177.46608 
" clip-path="url(#pc16cccde22)" style="fill: none; stroke: #e8e8e8; stroke-opacity: 0.55; stroke-width: 0.35; stroke-linecap: round"/>
     </g>
     <g id="line2d_9">
      <g>
       <use xlink:href="#md0b054beae" x="40.74" y="177.46608" style="fill: #555555; stroke: #555555"/>
      </g>
     </g>
     <g id="text_2">
      <text style="font-size: 6.5px; font-family: 'DejaVu Sans', 'Arial', 'Liberation Sans', 'Bitstream Vera Sans', sans-serif; text-anchor: end; fill: #555555" x="32.44" y="179.935573" transform="rotate(-0 32.44 179.935573)">−20</text>
     </g>
    </g>
    <g id="ytick_3">
     <g id="line2d_10">
      <path d="M 40.74 163.67619 
L 170.28 163.67619 
" clip-path="url(#pc16cccde22)" style="fill: none; stroke: #e8e8e8; stroke-opacity: 0.55; stroke-width: 0.35; stroke-linecap: round"/>
     </g>
     <g id="line2d_11">
      <g>
       <use xlink:href="#md0b054beae" x="40.74" y="163.67619" style="fill: #555555; stroke: #555555"/>
      </g>
     </g>
     <g id="text_3">
      <text style="font-size: 6.5px; font-family: 'DejaVu Sans', 'Arial', 'Liberation Sans', 'Bitstream Vera Sans', sans-serif; text-anchor: end; fill: #555555" x="32.44" y="166.145682" transform="rotate(-0 32.44 166.145682)">−10</text>
     </g>
    </g>
    <g id="ytick_4">
     <g id="line2d_12">
      <path d="M 40.74 149.886299 
L 170.28 149.886299 
" clip-path="url(#pc16cccde22)" style="fill: none; stroke: #e8e8e8; stroke-opacity: 0.55; stroke-width: 0.35; stroke-linecap: round"/>
     </g>
     <g id="line2d_13">
      <g>
       <use xlink:href="#md0b054beae" x="40.74" y="149.886299" style="fill: #555555; stroke: #555555"/>
      </g>
     </g>
     <g id="text_4">
      <text style="font-size: 6.5px; font-family: 'DejaVu Sans', 'Arial', 'Liberation Sans', 'Bitstream Vera Sans', sans-serif; text-anchor: end; fill: #555555" x="32.44" y="152.355791" transform="rotate(-0 32.44 152.355791)">0</text>
     </g>
    </g>
    <g id="ytick_5">
     <g id="line2d_14">
      <path d="M 40.74 136.096408 
L 170.28 136.096408 
" clip-path="url(#pc16cccde22)" style="fill: none; stroke: #e8e8e8; stroke-opacity: 0.55; stroke-width: 0.35; stroke-linecap: round"/>
     </g>
     <g id="line2d_15">
      <g>
       <use xlink:href="#md0b054beae" x="40.74" y="136.096408" style="fill: #555555; stroke: #555555"/>
      </g>
     </g>
     <g id="text_5">
      <text style="font-size: 6.5px; font-family: 'DejaVu Sans', 'Arial', 'Liberation Sans', 'Bitstream Vera Sans', sans-serif; text-anchor: end; fill: #555555" x="32.44" y="138.5659" transform="rotate(-0 32.44 138.5659)">10</text>
     </g>
    </g>
    <g id="ytick_6">
     <g id="line2d_16">
      <path d="M 40.74 122.306517 
L 170.28 122.306517 
" clip-path="url(#pc16cccde22)" style="fill: none; stroke: #e8e8e8; stroke-opacity: 0.55; stroke-width: 0.35; stroke-linecap: round"/>
     </g>
     <g id="line2d_17">
      <g>
       <use xlink:href="#md0b054beae" x="40.74" y="122.306517" style="fill: #555555; stroke: #555555"/>
      </g>
     </g>
     <g id="text_6">
      <text style="font-size: 6.5px; font-family: 'DejaVu Sans', 'Arial', 'Liberation Sans', 'Bitstream Vera Sans', sans-serif; text-anchor: end; fill: #555555" x="32.44" y="124.776009" transform="rotate(-0 32.44 124.776009)">20</text>
     </g>
    </g>
    <g id="ytick_7">
     <g id="line2d_18">
      <path d="M 40.74 108.516626 
L 170.28 108.516626 
" clip-path="url(#pc16cccde22)" style="fill: none; stroke: #e8e8e8; stroke-opacity: 0.55; stroke-width: 0.35; stroke-linecap: round"/>
     </g>
     <g id="line2d_19">
      <g>
       <use xlink:href="#md0b054beae" x="40.74" y="108.516626" style="fill: #555555; stroke: #555555"/>
      </g>
     </g>
     <g id="text_7">
      <text style="font-size: 6.5px; font-family: 'DejaVu Sans', 'Arial', 'Liberation Sans', 'Bitstream Vera Sans', sans-serif; text-anchor: end; fill: #555555" x="32.44" y="110.986118" transform="rotate(-0 32.44 110.986118)">30</text>
     </g>
    </g>
    <g id="text_8">
     <text style="font-size: 7px; font-family: 'DejaVu Sans', 'Arial', 'Liberation Sans', 'Bitstream Vera Sans', sans-serif; text-anchor: middle; fill: #111111" x="13.266172" y="147.477" transform="rotate(-90 13.266172 147.477)">deg</text>
    </g>
   </g>
   <g id="line2d_20">
    <path d="M 46.628182 132.348663 
L 47.777095 135.78778 
L 50.649379 145.569504 
L 51.223836 146.931423 
L 54.09612 156.930034 
L 55.81949 161.581669 
L 56.393947 162.537757 
L 57.54286 164.793617 
L 59.840687 168.901738 
L 60.989601 170.396851 
L 61.564058 172.090722 
L 62.138514 172.903183 
L 62.712971 174.501042 
L 63.287428 175.099516 
L 63.861885 176.686679 
L 64.436341 177.083331 
L 65.010798 178.286862 
L 66.159712 179.104752 
L 66.734169 180.818633 
L 67.308625 181.140305 
L 67.883082 183.06894 
L 68.457539 183.234408 
L 69.031996 184.908115 
L 70.180909 186.638193 
L 71.329823 187.501743 
L 71.904279 188.164577 
L 72.478736 188.649068 
L 73.053193 188.834565 
L 73.62765 189.374216 
L 74.202106 189.586323 
L 75.925477 189.692455 
L 76.499933 189.237832 
L 77.07439 189.577159 
L 77.648847 189.205154 
L 78.223304 188.638465 
L 78.797761 187.578957 
L 79.372217 185.937614 
L 79.946674 184.829661 
L 80.521131 183.055633 
L 81.095588 178.033773 
L 81.670044 176.057688 
L 82.244501 172.49128 
L 89.137982 145.398278 
L 89.712439 143.353181 
L 90.286896 141.937928 
L 90.861353 139.967077 
L 92.584723 135.457028 
L 93.15918 133.856089 
L 93.733636 133.146031 
L 94.308093 131.75804 
L 94.88255 131.177611 
L 95.457007 129.889539 
L 96.031463 129.631963 
L 96.60592 129.507211 
L 97.180377 128.445377 
L 97.754834 127.705588 
L 98.32929 128.489856 
L 98.903747 128.836621 
L 99.478204 128.284691 
L 100.052661 129.491101 
L 100.627118 129.589648 
L 101.201574 130.721893 
L 101.776031 130.716471 
L 102.350488 131.338963 
L 102.924945 131.291126 
L 103.499401 131.070056 
L 104.073858 130.664751 
L 105.222772 129.362148 
L 105.797228 128.981853 
L 106.371685 128.931286 
L 107.520599 130.33054 
L 110.392882 139.747149 
L 111.541796 142.88685 
L 112.116253 143.957628 
L 113.265166 147.614322 
L 116.13745 157.407834 
L 117.86082 162.024418 
L 121.307561 168.122151 
L 122.456475 169.724865 
L 123.030931 171.146931 
L 124.179845 172.624108 
L 125.328758 175.662964 
L 125.903215 176.480995 
L 126.477672 177.821029 
L 127.052129 178.189791 
L 128.201042 180.827725 
L 129.349956 182.783608 
L 129.924412 182.999013 
L 130.498869 184.763778 
L 131.073326 185.321093 
L 131.647783 186.788545 
L 132.796696 187.644693 
L 133.371153 188.407369 
L 133.94561 188.835234 
L 135.66898 189.534148 
L 137.39235 189.493602 
L 137.966807 189.225639 
L 138.541264 188.7834 
L 140.264634 186.119291 
L 141.413548 179.993106 
L 142.562461 174.858233 
L 143.136918 172.823507 
L 143.711375 170.15254 
L 145.434745 163.865873 
L 146.583659 159.358171 
L 147.732572 154.929948 
L 148.881486 150.281803 
L 151.179313 141.985913 
L 151.753769 140.779539 
L 152.328226 138.930493 
L 153.47714 135.872675 
L 154.051596 135.256798 
L 155.20051 132.300095 
L 155.774967 132.200464 
L 156.349424 130.880065 
L 156.92388 130.748517 
L 157.498337 129.58551 
L 158.072794 129.399589 
L 158.647251 128.626022 
L 159.221707 129.067228 
L 159.796164 128.990099 
L 160.370621 129.028097 
L 160.945078 129.346668 
L 162.093991 130.479939 
L 162.668448 130.729999 
L 163.242905 131.137492 
L 163.817361 131.184514 
L 164.391818 131.440446 
L 164.391818 131.440446 
" clip-path="url(#pc16cccde22)" style="fill: none; stroke: #111111; stroke-width: 0.9; stroke-linecap: round"/>
   </g>
   <g id="line2d_21">
    <path d="M 46.628182 130.208089 
L 48.351552 132.628926 
L 48.926009 133.4432 
L 50.074922 135.931503 
L 52.372749 141.745431 
L 53.521663 144.839492 
L 55.81949 151.708987 
L 57.54286 157.267839 
L 59.840687 163.013536 
L 60.415144 163.870248 
L 61.564058 166.319694 
L 62.712971 167.592664 
L 63.287428 167.814809 
L 65.010798 168.078462 
L 65.585255 168.359707 
L 66.159712 168.852113 
L 66.734169 170.077558 
L 67.308625 171.675054 
L 68.457539 175.902126 
L 69.031996 178.284127 
L 69.606452 179.006587 
L 71.904279 178.51429 
L 73.053193 178.557369 
L 75.35102 179.186917 
L 76.499933 179.112727 
L 77.07439 178.882932 
L 77.648847 178.345604 
L 78.223304 177.284255 
L 78.797761 175.956943 
L 79.372217 173.371601 
L 79.946674 170.268869 
L 82.818958 149.589121 
L 83.967871 143.592836 
L 84.542328 140.969733 
L 85.691242 137.010673 
L 87.414612 132.769603 
L 88.563525 130.612424 
L 90.286896 125.824372 
L 91.435809 123.391852 
L 92.010266 121.960279 
L 94.308093 117.602277 
L 97.754834 110.650184 
L 98.903747 109.667481 
L 99.478204 109.673354 
L 100.052661 109.816464 
L 100.627118 110.235362 
L 101.776031 111.422931 
L 102.924945 112.96174 
L 103.499401 113.548323 
L 104.073858 114.61846 
L 104.648315 115.934022 
L 105.797228 117.597618 
L 106.946142 119.772488 
L 109.243969 123.576272 
L 110.392882 125.505821 
L 112.116253 130.075893 
L 114.41408 137.734371 
L 118.435277 153.001169 
L 119.584191 156.118965 
L 121.307561 159.945475 
L 124.754302 167.088345 
L 125.903215 168.077007 
L 127.052129 168.580361 
L 128.775499 169.618885 
L 129.349956 170.209613 
L 129.924412 171.308198 
L 130.498869 172.664543 
L 132.222239 175.429296 
L 132.796696 175.971127 
L 133.371153 176.294276 
L 135.094523 176.743818 
L 136.243437 177.275927 
L 137.39235 178.44558 
L 139.115721 179.509963 
L 139.690177 179.039369 
L 140.264634 178.30219 
L 140.839091 177.029593 
L 141.988004 172.868769 
L 143.136918 167.37421 
L 146.009202 149.367021 
L 147.158115 143.838594 
L 147.732572 141.636793 
L 149.455942 137.352422 
L 150.604856 134.69974 
L 151.179313 134.128837 
L 151.753769 133.260238 
L 152.328226 131.782138 
L 154.626053 127.507625 
L 155.774967 125.788989 
L 157.498337 123.596636 
L 158.072794 123.13829 
L 159.221707 121.537668 
L 160.370621 119.949956 
L 160.945078 119.375598 
L 161.519534 119.078879 
L 162.093991 118.923074 
L 163.242905 119.268529 
L 163.817361 119.55174 
L 164.391818 119.694977 
L 164.391818 119.694977 
" clip-path="url(#pc16cccde22)" style="fill: none; stroke: #d55e00; stroke-width: 0.9; stroke-linecap: round"/>
   </g>
   <g id="line2d_22">
    <path d="M 46.628182 109.408951 
L 47.777095 112.011905 
L 48.926009 115.745088 
L 49.500466 116.818591 
L 50.074922 118.665389 
L 50.649379 121.436577 
L 51.798293 124.930045 
L 52.372749 125.487739 
L 52.947206 126.822287 
L 53.521663 129.162162 
L 54.670576 131.789691 
L 55.81949 135.712777 
L 56.393947 137.347542 
L 58.117317 145.373518 
L 60.415144 154.001903 
L 61.564058 157.176994 
L 62.712971 160.01231 
L 63.861885 162.950709 
L 66.734169 169.550515 
L 69.031996 173.929627 
L 70.180909 175.754486 
L 71.904279 179.587855 
L 73.053193 181.244969 
L 73.62765 181.918497 
L 74.202106 182.272648 
L 74.776563 182.435909 
L 75.925477 181.709232 
L 76.499933 181.086273 
L 77.648847 179.356548 
L 78.797761 176.49747 
L 79.946674 172.552665 
L 80.521131 170.180028 
L 82.244501 160.626432 
L 83.393415 156.091576 
L 84.542328 146.985544 
L 85.116785 144.407141 
L 85.691242 140.679291 
L 86.265698 136.002209 
L 89.712439 116.804371 
L 90.286896 114.336354 
L 91.435809 111.716786 
L 92.010266 110.185536 
L 93.15918 106.737216 
L 93.733636 107.171916 
L 94.308093 107.270976 
L 94.88255 107.019296 
L 96.031463 105.261545 
L 96.60592 106.204214 
L 97.180377 106.722823 
L 98.32929 106.87194 
L 98.903747 107.016466 
L 99.478204 107.279309 
L 100.052661 107.325761 
L 100.627118 107.107629 
L 102.350488 107.926794 
L 102.924945 107.906959 
L 103.499401 107.705282 
L 104.073858 108.149621 
L 104.648315 108.762059 
L 105.797228 109.053753 
L 106.371685 109.041836 
L 107.520599 109.381064 
L 108.095055 109.27458 
L 108.669512 109.392482 
L 109.243969 109.859581 
L 110.392882 112.898072 
L 110.967339 112.744162 
L 111.541796 113.0409 
L 112.116253 114.09939 
L 113.265166 118.408445 
L 113.839623 118.9218 
L 114.41408 119.805085 
L 114.988537 121.369079 
L 116.13745 125.606561 
L 117.286364 128.375028 
L 118.435277 132.039634 
L 119.584191 136.027079 
L 120.733104 139.809507 
L 121.307561 142.874109 
L 121.882018 146.592853 
L 122.456475 147.918301 
L 123.030931 149.886817 
L 123.605388 153.602367 
L 124.179845 155.630798 
L 124.754302 156.626502 
L 125.903215 161.78107 
L 126.477672 163.058111 
L 127.626585 166.58147 
L 128.775499 168.506199 
L 129.349956 169.204209 
L 129.924412 170.518227 
L 130.498869 172.276127 
L 132.222239 175.491988 
L 134.520067 179.331093 
L 136.243437 181.627845 
L 136.817894 181.788871 
L 137.39235 181.806139 
L 137.966807 181.603453 
L 138.541264 181.533485 
L 139.115721 181.584807 
L 141.413548 175.333654 
L 141.988004 173.336085 
L 143.136918 168.181484 
L 145.434745 155.749661 
L 149.455942 131.971332 
L 150.604856 126.40318 
L 151.753769 119.306683 
L 152.902683 114.346078 
L 154.051596 110.414244 
L 154.626053 108.652381 
L 155.20051 107.794177 
L 155.774967 107.391375 
L 156.349424 107.657065 
L 156.92388 107.183854 
L 157.498337 106.482089 
L 158.072794 106.452147 
L 158.647251 106.60143 
L 159.796164 107.340319 
L 160.945078 107.7378 
L 163.242905 108.337831 
L 163.817361 107.962285 
L 164.391818 107.742232 
L 164.391818 107.742232 
" clip-path="url(#pc16cccde22)" style="fill: none; stroke: #0072b2; stroke-width: 0.9; stroke-linecap: round"/>
   </g>
   <g id="patch_3">
    <path d="M 40.74 193.914 
L 40.74 101.04 
" style="fill: none; stroke: #111111; stroke-width: 0.75; stroke-linejoin: miter; stroke-linecap: square"/>
   </g>
   <g id="patch_4">
    <path d="M 40.74 193.914 
L 170.28 193.914 
" style="fill: none; stroke: #111111; stroke-width: 0.75; stroke-linejoin: miter; stroke-linecap: square"/>
   </g>
   <g id="text_9">
    <text style="font-size: 7.5px; font-family: 'DejaVu Sans', 'Arial', 'Liberation Sans', 'Bitstream Vera Sans', sans-serif; fill: #262626" transform="translate(81.742031 86.641641)">Hip flexion R</text>
    <text style="font-size: 7.5px; font-family: 'DejaVu Sans', 'Arial', 'Liberation Sans', 'Bitstream Vera Sans', sans-serif; fill: #262626" transform="translate(45.832266 95.04)">FM 14.4°/r 0.98 · OC 8.7°/r 0.98</text>
   </g>
  </g>
  <g id="axes_2">
   <g id="patch_5">
    <path d="M 211.02 193.914 
L 340.56 193.914 
L 340.56 101.04 
L 211.02 101.04 
z
" style="fill: #ffffff"/>
   </g>
   <g id="matplotlib.axis_3">
    <g id="xtick_6">
     <g id="line2d_23">
      <g>
       <use xlink:href="#maaf1cb30ca" x="216.908182" y="193.914" style="fill: #555555; stroke: #555555"/>
      </g>
     </g>
    </g>
    <g id="xtick_7">
     <g id="line2d_24">
      <g>
       <use xlink:href="#maaf1cb30ca" x="245.63102" y="193.914" style="fill: #555555; stroke: #555555"/>
      </g>
     </g>
    </g>
    <g id="xtick_8">
     <g id="line2d_25">
      <g>
       <use xlink:href="#maaf1cb30ca" x="274.353858" y="193.914" style="fill: #555555; stroke: #555555"/>
      </g>
     </g>
    </g>
    <g id="xtick_9">
     <g id="line2d_26">
      <g>
       <use xlink:href="#maaf1cb30ca" x="303.076696" y="193.914" style="fill: #555555; stroke: #555555"/>
      </g>
     </g>
    </g>
    <g id="xtick_10">
     <g id="line2d_27">
      <g>
       <use xlink:href="#maaf1cb30ca" x="331.799534" y="193.914" style="fill: #555555; stroke: #555555"/>
      </g>
     </g>
    </g>
   </g>
   <g id="matplotlib.axis_4">
    <g id="ytick_8">
     <g id="line2d_28">
      <path d="M 211.02 189.692455 
L 340.56 189.692455 
" clip-path="url(#p332171c3ff)" style="fill: none; stroke: #e8e8e8; stroke-opacity: 0.55; stroke-width: 0.35; stroke-linecap: round"/>
     </g>
     <g id="line2d_29">
      <g>
       <use xlink:href="#md0b054beae" x="211.02" y="189.692455" style="fill: #555555; stroke: #555555"/>
      </g>
     </g>
     <g id="text_10">
      <text style="font-size: 6.5px; font-family: 'DejaVu Sans', 'Arial', 'Liberation Sans', 'Bitstream Vera Sans', sans-serif; text-anchor: end; fill: #555555" x="202.72" y="192.161947" transform="rotate(-0 202.72 192.161947)">0</text>
     </g>
    </g>
    <g id="ytick_9">
     <g id="line2d_30">
      <path d="M 211.02 165.983937 
L 340.56 165.983937 
" clip-path="url(#p332171c3ff)" style="fill: none; stroke: #e8e8e8; stroke-opacity: 0.55; stroke-width: 0.35; stroke-linecap: round"/>
     </g>
     <g id="line2d_31">
      <g>
       <use xlink:href="#md0b054beae" x="211.02" y="165.983937" style="fill: #555555; stroke: #555555"/>
      </g>
     </g>
     <g id="text_11">
      <text style="font-size: 6.5px; font-family: 'DejaVu Sans', 'Arial', 'Liberation Sans', 'Bitstream Vera Sans', sans-serif; text-anchor: end; fill: #555555" x="202.72" y="168.453429" transform="rotate(-0 202.72 168.453429)">20</text>
     </g>
    </g>
    <g id="ytick_10">
     <g id="line2d_32">
      <path d="M 211.02 142.275419 
L 340.56 142.275419 
" clip-path="url(#p332171c3ff)" style="fill: none; stroke: #e8e8e8; stroke-opacity: 0.55; stroke-width: 0.35; stroke-linecap: round"/>
     </g>
     <g id="line2d_33">
      <g>
       <use xlink:href="#md0b054beae" x="211.02" y="142.275419" style="fill: #555555; stroke: #555555"/>
      </g>
     </g>
     <g id="text_12">
      <text style="font-size: 6.5px; font-family: 'DejaVu Sans', 'Arial', 'Liberation Sans', 'Bitstream Vera Sans', sans-serif; text-anchor: end; fill: #555555" x="202.72" y="144.744911" transform="rotate(-0 202.72 144.744911)">40</text>
     </g>
    </g>
    <g id="ytick_11">
     <g id="line2d_34">
      <path d="M 211.02 118.566901 
L 340.56 118.566901 
" clip-path="url(#p332171c3ff)" style="fill: none; stroke: #e8e8e8; stroke-opacity: 0.55; stroke-width: 0.35; stroke-linecap: round"/>
     </g>
     <g id="line2d_35">
      <g>
       <use xlink:href="#md0b054beae" x="211.02" y="118.566901" style="fill: #555555; stroke: #555555"/>
      </g>
     </g>
     <g id="text_13">
      <text style="font-size: 6.5px; font-family: 'DejaVu Sans', 'Arial', 'Liberation Sans', 'Bitstream Vera Sans', sans-serif; text-anchor: end; fill: #555555" x="202.72" y="121.036393" transform="rotate(-0 202.72 121.036393)">60</text>
     </g>
    </g>
    <g id="text_14">
     <text style="font-size: 7px; font-family: 'DejaVu Sans', 'Arial', 'Liberation Sans', 'Bitstream Vera Sans', sans-serif; text-anchor: middle; fill: #111111" x="188.992969" y="147.477" transform="rotate(-90 188.992969 147.477)">deg</text>
    </g>
   </g>
   <g id="line2d_36">
    <path d="M 216.908182 174.742495 
L 218.057095 172.316407 
L 220.354922 168.602187 
L 220.929379 168.087055 
L 221.503836 167.776087 
L 222.078293 167.990812 
L 223.801663 169.451279 
L 224.37612 170.411483 
L 224.950576 170.876515 
L 226.09949 172.061035 
L 226.673947 172.502371 
L 230.120687 176.51657 
L 232.992971 178.642317 
L 233.567428 178.858954 
L 234.141885 179.255493 
L 234.716341 179.439635 
L 235.290798 179.74426 
L 238.163082 180.496608 
L 238.737539 180.210223 
L 239.311996 180.10029 
L 239.886452 179.745987 
L 241.035366 178.553578 
L 241.609823 177.82474 
L 242.758736 176.017248 
L 245.056563 170.683291 
L 246.205477 166.953713 
L 247.35439 161.942801 
L 248.503304 155.130757 
L 250.226674 142.337655 
L 250.801131 137.762872 
L 251.375588 132.195701 
L 253.098958 120.147407 
L 254.247871 113.886509 
L 255.396785 109.253631 
L 255.971242 107.522919 
L 256.545698 106.307047 
L 257.120155 105.588846 
L 257.694612 105.270279 
L 258.269069 105.261545 
L 258.843525 105.765031 
L 259.417982 106.646922 
L 259.992439 107.799118 
L 261.141353 111.178874 
L 262.290266 115.529676 
L 263.43918 120.748078 
L 265.737007 133.49373 
L 269.183747 156.68779 
L 269.758204 160.544747 
L 271.481574 173.973258 
L 272.630488 180.777102 
L 273.204945 182.714087 
L 273.779401 183.575242 
L 274.353858 183.310177 
L 274.928315 182.052872 
L 277.226142 175.231278 
L 277.800599 173.937967 
L 278.375055 173.581313 
L 279.523969 172.36645 
L 281.247339 169.779975 
L 282.396253 168.367194 
L 282.97071 168.247212 
L 283.545166 168.468773 
L 284.69408 169.470511 
L 286.991907 172.508064 
L 288.14082 173.662847 
L 288.715277 174.26716 
L 291.013104 175.818873 
L 293.885388 177.139134 
L 294.459845 177.298601 
L 296.183215 178.574044 
L 296.757672 178.994414 
L 299.055499 179.936895 
L 299.629956 179.911714 
L 300.778869 179.496208 
L 302.502239 177.759184 
L 303.651153 175.799575 
L 304.22561 174.718325 
L 305.94898 170.036775 
L 307.097894 165.95853 
L 308.246807 159.994569 
L 309.395721 152.523428 
L 310.544634 144.090792 
L 311.693548 133.958581 
L 312.842461 125.431673 
L 313.991375 118.553296 
L 315.140288 113.530209 
L 316.289202 109.86794 
L 316.863659 108.826476 
L 317.438115 108.065172 
L 318.012572 107.886059 
L 318.587029 107.89783 
L 319.161486 108.367785 
L 320.310399 110.282498 
L 320.884856 111.696534 
L 321.459313 113.447665 
L 323.182683 120.300172 
L 324.331596 125.896088 
L 325.48051 131.634791 
L 330.076164 159.906416 
L 332.373991 175.091203 
L 332.948448 178.138851 
L 333.522905 180.566348 
L 334.097361 181.883759 
L 334.671818 182.543257 
L 334.671818 182.543257 
" clip-path="url(#p332171c3ff)" style="fill: none; stroke: #111111; stroke-width: 0.9; stroke-linecap: round"/>
   </g>
   <g id="line2d_37">
    <path d="M 216.908182 173.846725 
L 217.482639 173.460849 
L 218.631552 173.326351 
L 219.206009 173.482558 
L 220.354922 174.444702 
L 222.652749 177.718522 
L 224.950576 180.585084 
L 228.397317 184.510536 
L 230.695144 186.540191 
L 231.844058 187.914411 
L 232.418514 188.914409 
L 232.992971 189.606299 
L 234.716341 189.692455 
L 239.311996 189.692455 
L 239.886452 188.000638 
L 241.609823 180.850514 
L 242.758736 177.308713 
L 243.90765 174.412587 
L 245.056563 172.171607 
L 246.205477 170.170536 
L 246.779933 168.85571 
L 247.35439 167.176786 
L 247.928847 164.760789 
L 249.077761 157.512378 
L 250.226674 146.656364 
L 251.950044 127.30029 
L 253.098958 117.411018 
L 253.673415 113.700935 
L 254.822328 108.523056 
L 255.396785 107.752152 
L 255.971242 107.441569 
L 256.545698 108.054784 
L 257.694612 110.443661 
L 259.992439 117.630157 
L 261.141353 121.959747 
L 262.864723 129.646462 
L 268.60929 157.485707 
L 270.907118 170.114019 
L 272.056031 175.443421 
L 273.204945 178.786971 
L 273.779401 179.561255 
L 274.353858 179.848735 
L 274.928315 179.88914 
L 279.523969 174.594584 
L 280.672882 172.920432 
L 281.821796 172.117492 
L 282.396253 171.840933 
L 282.97071 171.843024 
L 283.545166 171.986542 
L 284.119623 172.392033 
L 284.69408 172.970002 
L 285.268537 173.896376 
L 286.41745 176.419104 
L 288.14082 180.656812 
L 289.289734 182.603946 
L 290.438647 183.894864 
L 291.013104 184.314947 
L 292.736475 186.315029 
L 295.034302 189.357926 
L 296.183215 189.692455 
L 300.778869 189.692455 
L 301.353326 189.367182 
L 301.927783 188.662899 
L 303.076696 185.575036 
L 305.94898 177.297888 
L 308.246807 171.70597 
L 309.395721 167.578901 
L 310.544634 160.930596 
L 311.693548 151.757709 
L 313.416918 135.544684 
L 314.565831 125.009179 
L 315.714745 116.25997 
L 316.289202 112.83985 
L 316.863659 110.469675 
L 317.438115 109.208392 
L 318.012572 108.50992 
L 318.587029 109.211335 
L 319.161486 110.162588 
L 320.310399 113.262498 
L 321.459313 117.110563 
L 323.182683 123.694613 
L 324.331596 128.932333 
L 326.054967 137.951767 
L 328.352794 151.276037 
L 331.225078 168.719893 
L 332.948448 179.05973 
L 333.522905 181.813265 
L 334.097361 183.873451 
L 334.671818 185.156824 
L 334.671818 185.156824 
" clip-path="url(#p332171c3ff)" style="fill: none; stroke: #d55e00; stroke-width: 0.9; stroke-linecap: round"/>
   </g>
   <g id="line2d_38">
    <path d="M 216.908182 168.229357 
L 218.057095 168.734375 
L 219.206009 169.964158 
L 219.780466 170.134402 
L 220.354922 170.714851 
L 221.503836 172.73227 
L 222.078293 173.594245 
L 222.652749 174.047279 
L 223.227206 174.676749 
L 224.950576 177.378738 
L 227.248404 181.659402 
L 228.397317 184.223632 
L 229.546231 186.199564 
L 230.695144 188.007492 
L 231.844058 188.647463 
L 233.567428 189.044918 
L 235.290798 189.137597 
L 238.737539 189.111812 
L 240.460909 188.906823 
L 242.184279 188.227368 
L 243.333193 186.609384 
L 243.90765 185.479524 
L 245.056563 182.458319 
L 246.205477 177.352503 
L 247.35439 170.991163 
L 247.928847 167.377917 
L 250.801131 144.469172 
L 251.950044 134.991875 
L 253.098958 128.113418 
L 253.673415 125.519288 
L 254.822328 119.195194 
L 256.545698 112.881403 
L 257.694612 110.877729 
L 258.269069 110.128106 
L 258.843525 110.086399 
L 259.417982 110.677272 
L 259.992439 111.930202 
L 260.566896 113.464576 
L 261.715809 118.369076 
L 263.43918 127.39424 
L 266.311463 147.310115 
L 267.460377 156.224338 
L 270.332661 175.341296 
L 271.481574 180.756058 
L 272.056031 183.094432 
L 272.630488 184.296615 
L 273.204945 185.104222 
L 274.353858 185.600141 
L 274.928315 185.675196 
L 276.077228 183.207017 
L 279.523969 174.01769 
L 281.821796 169.275781 
L 282.396253 168.466436 
L 282.97071 168.327024 
L 283.545166 168.471781 
L 284.119623 168.423896 
L 284.69408 168.604922 
L 285.268537 169.207166 
L 286.991907 171.610785 
L 287.566364 172.368687 
L 288.715277 174.359439 
L 289.864191 176.167823 
L 291.013104 178.302118 
L 292.162018 181.596981 
L 292.736475 182.255666 
L 293.310931 183.21643 
L 293.885388 184.996472 
L 294.459845 185.869785 
L 295.034302 186.188068 
L 296.183215 187.721769 
L 297.332129 187.980948 
L 297.906585 188.18683 
L 299.629956 188.346102 
L 300.778869 188.572596 
L 301.927783 188.495588 
L 303.651153 187.852386 
L 304.800067 186.737027 
L 306.523437 183.78842 
L 307.67235 180.47791 
L 308.821264 175.991211 
L 309.395721 173.50847 
L 311.119091 161.337312 
L 315.140288 130.373137 
L 316.863659 119.904522 
L 317.438115 117.255548 
L 319.161486 111.29672 
L 319.735942 110.132342 
L 320.310399 109.264508 
L 320.884856 108.767572 
L 321.459313 108.707352 
L 322.033769 108.853795 
L 322.608226 109.709977 
L 323.182683 111.067681 
L 323.75714 113.10475 
L 324.906053 118.32231 
L 326.054967 125.775526 
L 329.501707 151.719316 
L 331.799534 170.348119 
L 332.948448 177.92537 
L 333.522905 181.2388 
L 334.671818 185.136181 
L 334.671818 185.136181 
" clip-path="url(#p332171c3ff)" style="fill: none; stroke: #0072b2; stroke-width: 0.9; stroke-linecap: round"/>
   </g>
   <g id="patch_6">
    <path d="M 211.02 193.914 
L 211.02 101.04 
" style="fill: none; stroke: #111111; stroke-width: 0.75; stroke-linejoin: miter; stroke-linecap: square"/>
   </g>
   <g id="patch_7">
    <path d="M 211.02 193.914 
L 340.56 193.914 
" style="fill: none; stroke: #111111; stroke-width: 0.75; stroke-linejoin: miter; stroke-linecap: square"/>
   </g>
   <g id="text_15">
    <text style="font-size: 7.5px; font-family: 'DejaVu Sans', 'Arial', 'Liberation Sans', 'Bitstream Vera Sans', sans-serif; fill: #262626" transform="translate(248.814023 86.641641)">Knee flexion R</text>
    <text style="font-size: 7.5px; font-family: 'DejaVu Sans', 'Arial', 'Liberation Sans', 'Bitstream Vera Sans', sans-serif; fill: #262626" transform="translate(218.498203 95.04)">FM 7.8°/r 0.97 · OC 6.4°/r 0.98</text>
   </g>
  </g>
  <g id="axes_3">
   <g id="patch_8">
    <path d="M 381.3 193.914 
L 510.84 193.914 
L 510.84 101.04 
L 381.3 101.04 
z
" style="fill: #ffffff"/>
   </g>
   <g id="matplotlib.axis_5">
    <g id="xtick_11">
     <g id="line2d_39">
      <g>
       <use xlink:href="#maaf1cb30ca" x="387.188182" y="193.914" style="fill: #555555; stroke: #555555"/>
      </g>
     </g>
    </g>
    <g id="xtick_12">
     <g id="line2d_40">
      <g>
       <use xlink:href="#maaf1cb30ca" x="415.91102" y="193.914" style="fill: #555555; stroke: #555555"/>
      </g>
     </g>
    </g>
    <g id="xtick_13">
     <g id="line2d_41">
      <g>
       <use xlink:href="#maaf1cb30ca" x="444.633858" y="193.914" style="fill: #555555; stroke: #555555"/>
      </g>
     </g>
    </g>
    <g id="xtick_14">
     <g id="line2d_42">
      <g>
       <use xlink:href="#maaf1cb30ca" x="473.356696" y="193.914" style="fill: #555555; stroke: #555555"/>
      </g>
     </g>
    </g>
    <g id="xtick_15">
     <g id="line2d_43">
      <g>
       <use xlink:href="#maaf1cb30ca" x="502.079534" y="193.914" style="fill: #555555; stroke: #555555"/>
      </g>
     </g>
    </g>
   </g>
   <g id="matplotlib.axis_6">
    <g id="ytick_12">
     <g id="line2d_44">
      <path d="M 381.3 184.744349 
L 510.84 184.744349 
" clip-path="url(#p6d6f19c014)" style="fill: none; stroke: #e8e8e8; stroke-opacity: 0.55; stroke-width: 0.35; stroke-linecap: round"/>
     </g>
     <g id="line2d_45">
      <g>
       <use xlink:href="#md0b054beae" x="381.3" y="184.744349" style="fill: #555555; stroke: #555555"/>
      </g>
     </g>
     <g id="text_16">
      <text style="font-size: 6.5px; font-family: 'DejaVu Sans', 'Arial', 'Liberation Sans', 'Bitstream Vera Sans', sans-serif; text-anchor: end; fill: #555555" x="373" y="187.213842" transform="rotate(-0 373 187.213842)">−20</text>
     </g>
    </g>
    <g id="ytick_13">
     <g id="line2d_46">
      <path d="M 381.3 165.420298 
L 510.84 165.420298 
" clip-path="url(#p6d6f19c014)" style="fill: none; stroke: #e8e8e8; stroke-opacity: 0.55; stroke-width: 0.35; stroke-linecap: round"/>
     </g>
     <g id="line2d_47">
      <g>
       <use xlink:href="#md0b054beae" x="381.3" y="165.420298" style="fill: #555555; stroke: #555555"/>
      </g>
     </g>
     <g id="text_17">
      <text style="font-size: 6.5px; font-family: 'DejaVu Sans', 'Arial', 'Liberation Sans', 'Bitstream Vera Sans', sans-serif; text-anchor: end; fill: #555555" x="373" y="167.88979" transform="rotate(-0 373 167.88979)">−10</text>
     </g>
    </g>
    <g id="ytick_14">
     <g id="line2d_48">
      <path d="M 381.3 146.096246 
L 510.84 146.096246 
" clip-path="url(#p6d6f19c014)" style="fill: none; stroke: #e8e8e8; stroke-opacity: 0.55; stroke-width: 0.35; stroke-linecap: round"/>
     </g>
     <g id="line2d_49">
      <g>
       <use xlink:href="#md0b054beae" x="381.3" y="146.096246" style="fill: #555555; stroke: #555555"/>
      </g>
     </g>
     <g id="text_18">
      <text style="font-size: 6.5px; font-family: 'DejaVu Sans', 'Arial', 'Liberation Sans', 'Bitstream Vera Sans', sans-serif; text-anchor: end; fill: #555555" x="373" y="148.565738" transform="rotate(-0 373 148.565738)">0</text>
     </g>
    </g>
    <g id="ytick_15">
     <g id="line2d_50">
      <path d="M 381.3 126.772194 
L 510.84 126.772194 
" clip-path="url(#p6d6f19c014)" style="fill: none; stroke: #e8e8e8; stroke-opacity: 0.55; stroke-width: 0.35; stroke-linecap: round"/>
     </g>
     <g id="line2d_51">
      <g>
       <use xlink:href="#md0b054beae" x="381.3" y="126.772194" style="fill: #555555; stroke: #555555"/>
      </g>
     </g>
     <g id="text_19">
      <text style="font-size: 6.5px; font-family: 'DejaVu Sans', 'Arial', 'Liberation Sans', 'Bitstream Vera Sans', sans-serif; text-anchor: end; fill: #555555" x="373" y="129.241686" transform="rotate(-0 373 129.241686)">10</text>
     </g>
    </g>
    <g id="ytick_16">
     <g id="line2d_52">
      <path d="M 381.3 107.448142 
L 510.84 107.448142 
" clip-path="url(#p6d6f19c014)" style="fill: none; stroke: #e8e8e8; stroke-opacity: 0.55; stroke-width: 0.35; stroke-linecap: round"/>
     </g>
     <g id="line2d_53">
      <g>
       <use xlink:href="#md0b054beae" x="381.3" y="107.448142" style="fill: #555555; stroke: #555555"/>
      </g>
     </g>
     <g id="text_20">
      <text style="font-size: 6.5px; font-family: 'DejaVu Sans', 'Arial', 'Liberation Sans', 'Bitstream Vera Sans', sans-serif; text-anchor: end; fill: #555555" x="373" y="109.917634" transform="rotate(-0 373 109.917634)">20</text>
     </g>
    </g>
    <g id="text_21">
     <text style="font-size: 7px; font-family: 'DejaVu Sans', 'Arial', 'Liberation Sans', 'Bitstream Vera Sans', sans-serif; text-anchor: middle; fill: #111111" x="353.826172" y="147.477" transform="rotate(-90 353.826172 147.477)">deg</text>
    </g>
   </g>
   <g id="line2d_54">
    <path d="M 387.188182 139.864175 
L 387.762639 140.589565 
L 388.337095 141.655968 
L 388.911552 142.096587 
L 389.486009 141.646293 
L 390.060466 140.814527 
L 390.634922 139.480356 
L 391.209379 137.825175 
L 391.783836 135.781828 
L 393.507206 131.89078 
L 394.081663 130.796038 
L 394.65612 130.519321 
L 395.230576 129.676147 
L 398.10286 127.128123 
L 399.826231 125.833504 
L 401.549601 124.128726 
L 402.124058 123.17927 
L 404.421885 120.391352 
L 407.868625 115.460043 
L 409.017539 114.308924 
L 411.315366 112.2169 
L 411.889823 111.888741 
L 412.464279 110.988984 
L 413.038736 111.167343 
L 413.613193 110.373039 
L 414.18765 111.263536 
L 414.762106 111.756202 
L 415.336563 111.745623 
L 415.91102 111.911379 
L 416.485477 113.50225 
L 417.059933 114.151744 
L 417.63439 116.155616 
L 418.783304 121.458882 
L 419.357761 125.341531 
L 419.932217 130.156597 
L 422.230044 155.467489 
L 423.378958 165.794593 
L 423.953415 169.099707 
L 424.527871 170.711826 
L 425.102328 170.812019 
L 425.676785 169.471803 
L 426.251242 167.784287 
L 427.974612 160.357928 
L 429.697982 155.037392 
L 430.846896 151.939909 
L 432.570266 145.784816 
L 433.71918 142.659049 
L 434.868093 140.348995 
L 436.017007 139.536173 
L 436.591463 138.791618 
L 437.740377 138.143982 
L 438.314834 137.51011 
L 439.463747 136.706865 
L 440.038204 135.567922 
L 440.612661 135.497725 
L 441.187118 134.547834 
L 441.761574 134.105332 
L 442.336031 132.57999 
L 442.910488 132.091476 
L 444.633858 128.266421 
L 445.208315 127.968539 
L 445.782772 128.08606 
L 446.357228 129.413831 
L 446.931685 131.251666 
L 447.506142 133.963602 
L 448.080599 136.048188 
L 448.655055 139.553018 
L 449.229512 141.705385 
L 449.803969 143.03233 
L 450.378426 143.266621 
L 450.952882 142.949966 
L 451.527339 141.972348 
L 452.101796 140.634716 
L 453.25071 137.31124 
L 454.399623 134.881023 
L 454.97408 133.684681 
L 455.548537 132.927389 
L 459.569734 128.944293 
L 460.144191 128.026293 
L 461.293104 126.539532 
L 461.867561 125.443488 
L 463.016475 123.833267 
L 464.165388 122.10927 
L 464.739845 121.48656 
L 465.314302 120.551778 
L 465.888758 119.954959 
L 466.463215 119.152595 
L 467.037672 118.571442 
L 468.186585 117.169003 
L 469.335499 116.065449 
L 471.058869 114.292884 
L 471.633326 113.850713 
L 472.207783 113.068456 
L 473.356696 112.411548 
L 473.931153 111.621148 
L 474.50561 111.920709 
L 475.080067 111.738334 
L 475.654523 112.487667 
L 476.22898 112.612176 
L 476.803437 112.962709 
L 477.377894 115.206937 
L 477.95235 114.978557 
L 478.526807 116.96167 
L 479.101264 119.643221 
L 479.675721 123.118158 
L 482.548004 152.771992 
L 483.696918 164.592487 
L 484.271375 168.109088 
L 484.845831 170.195905 
L 485.420288 170.063156 
L 485.994745 169.031076 
L 486.569202 166.829136 
L 488.292572 158.313916 
L 488.867029 156.651172 
L 489.441486 154.380882 
L 490.015942 153.009747 
L 491.739313 147.601538 
L 492.313769 146.314539 
L 492.888226 144.517413 
L 494.03714 141.955008 
L 495.186053 140.250305 
L 495.76051 140.077163 
L 496.334967 139.253073 
L 496.909424 138.894423 
L 497.48388 138.10948 
L 498.058337 137.737727 
L 498.632794 136.89059 
L 500.930621 134.500373 
L 501.505078 133.738149 
L 503.802905 129.772114 
L 504.377361 128.246318 
L 504.951818 127.47348 
L 504.951818 127.47348 
" clip-path="url(#p6d6f19c014)" style="fill: none; stroke: #111111; stroke-width: 0.9; stroke-linecap: round"/>
   </g>
   <g id="line2d_55">
    <path d="M 387.188182 175.613966 
L 388.337095 172.887898 
L 391.783836 163.751955 
L 394.081663 156.799046 
L 394.65612 155.168802 
L 395.230576 152.517031 
L 395.805033 150.80942 
L 396.37949 149.581013 
L 397.528404 147.769702 
L 398.10286 147.10289 
L 398.677317 146.761621 
L 399.251774 146.58558 
L 399.826231 146.069987 
L 400.400687 145.875888 
L 400.975144 146.336819 
L 402.124058 146.767378 
L 402.698514 147.840424 
L 403.272971 148.334419 
L 403.847428 147.64661 
L 404.996341 145.362065 
L 406.145255 142.750264 
L 406.719712 141.934041 
L 407.294169 141.839563 
L 407.868625 142.111403 
L 408.443082 144.048983 
L 409.017539 146.463641 
L 409.591996 149.835611 
L 410.166452 151.779673 
L 410.740909 152.999007 
L 411.889823 154.051042 
L 412.464279 154.259665 
L 413.038736 153.499854 
L 413.613193 152.24852 
L 414.18765 152.012666 
L 414.762106 151.992867 
L 415.336563 152.404836 
L 416.485477 153.791877 
L 417.63439 158.171026 
L 418.208847 161.177592 
L 418.783304 163.327302 
L 419.357761 165.042119 
L 419.932217 164.804285 
L 420.506674 164.419192 
L 421.081131 163.748367 
L 421.655588 163.76718 
L 422.230044 164.136015 
L 422.804501 166.750923 
L 423.378958 169.982216 
L 425.102328 183.896432 
L 426.251242 188.45074 
L 426.825698 189.692455 
L 427.400155 189.108018 
L 427.974612 187.596728 
L 428.549069 186.571707 
L 429.123525 185.075344 
L 430.272439 179.897845 
L 431.421353 174.676087 
L 432.570266 170.790358 
L 433.71918 167.514461 
L 434.293636 166.999614 
L 434.868093 166.142215 
L 436.017007 163.164614 
L 436.591463 161.82004 
L 437.16592 161.801743 
L 437.740377 161.470332 
L 438.314834 160.494208 
L 438.88929 160.555017 
L 440.038204 161.621033 
L 440.612661 161.957321 
L 441.187118 162.004764 
L 442.336031 161.656657 
L 442.910488 161.381309 
L 443.484945 161.236793 
L 444.059401 161.358289 
L 444.633858 161.222134 
L 445.208315 160.955212 
L 445.782772 160.946776 
L 446.357228 161.340648 
L 447.506142 163.573638 
L 448.080599 164.503887 
L 449.229512 169.191323 
L 449.803969 170.447716 
L 450.378426 171.068707 
L 450.952882 171.367202 
L 451.527339 170.302106 
L 452.101796 168.992196 
L 453.825166 163.413493 
L 454.97408 158.825921 
L 456.122993 155.195466 
L 456.69745 153.598743 
L 457.846364 151.739627 
L 458.42082 150.639734 
L 458.995277 149.897942 
L 459.569734 149.337903 
L 460.144191 149.210327 
L 460.718647 148.851654 
L 461.293104 148.020851 
L 461.867561 147.53689 
L 462.442018 147.228965 
L 463.016475 146.521136 
L 463.590931 146.087633 
L 464.165388 146.213809 
L 464.739845 146.059813 
L 465.888758 145.434014 
L 466.463215 144.822194 
L 467.037672 143.637619 
L 468.186585 140.581028 
L 469.909956 134.485991 
L 471.058869 131.569631 
L 471.633326 130.880803 
L 472.207783 129.990729 
L 472.782239 128.687514 
L 473.356696 127.796226 
L 473.931153 127.114011 
L 474.50561 127.540747 
L 475.080067 128.28665 
L 475.654523 129.673037 
L 476.803437 134.093648 
L 477.95235 140.39646 
L 481.973548 166.28276 
L 482.548004 169.130007 
L 483.696918 171.003216 
L 484.271375 172.158989 
L 484.845831 172.506773 
L 485.994745 172.442441 
L 486.569202 172.661588 
L 487.143659 173.329367 
L 489.441486 177.22951 
L 490.015942 177.249499 
L 490.590399 176.89463 
L 491.164856 176.349504 
L 491.739313 176.442991 
L 492.313769 176.296704 
L 492.888226 175.659274 
L 493.462683 174.362704 
L 494.611596 170.775053 
L 496.909424 163.58748 
L 497.48388 163.202571 
L 498.058337 162.491852 
L 498.632794 161.109959 
L 499.207251 160.226814 
L 499.781707 159.596806 
L 500.930621 157.518565 
L 503.802905 150.998579 
L 504.377361 150.214849 
L 504.951818 149.850925 
L 504.951818 149.850925 
" clip-path="url(#p6d6f19c014)" style="fill: none; stroke: #d55e00; stroke-width: 0.9; stroke-linecap: round"/>
   </g>
   <g id="line2d_56">
    <path d="M 387.188182 152.139104 
L 389.486009 144.185674 
L 390.634922 140.254829 
L 391.209379 137.820648 
L 392.358293 135.061817 
L 393.507206 132.310889 
L 394.081663 130.771098 
L 395.805033 127.382014 
L 396.37949 126.281628 
L 396.953947 125.559727 
L 397.528404 125.351407 
L 398.10286 125.294094 
L 399.251774 124.404398 
L 400.400687 123.345411 
L 400.975144 122.904855 
L 407.294169 114.034315 
L 408.443082 111.808407 
L 410.740909 106.992862 
L 411.889823 105.74847 
L 412.464279 105.261545 
L 413.038736 105.461834 
L 413.613193 105.930281 
L 414.762106 107.899887 
L 415.336563 108.739823 
L 415.91102 110.179277 
L 416.485477 112.021512 
L 417.63439 117.918716 
L 418.208847 121.200167 
L 419.932217 133.91061 
L 422.230044 150.564742 
L 422.804501 152.386536 
L 423.378958 152.842575 
L 423.953415 152.256479 
L 425.676785 148.848424 
L 426.825698 146.591633 
L 430.272439 138.186923 
L 430.846896 136.855601 
L 431.421353 136.093046 
L 431.995809 135.602298 
L 432.570266 135.374269 
L 433.144723 135.664903 
L 433.71918 136.213185 
L 434.868093 139.095578 
L 436.591463 144.554544 
L 437.740377 149.5226 
L 440.612661 160.149798 
L 442.336031 164.246295 
L 442.910488 164.767351 
L 443.484945 165.104537 
L 444.059401 165.198286 
L 445.208315 166.490452 
L 445.782772 166.631949 
L 446.357228 166.937035 
L 446.931685 167.476753 
L 447.506142 167.822569 
L 448.080599 168.033249 
L 448.655055 167.282817 
L 449.229512 166.071668 
L 450.952882 160.50721 
L 453.25071 148.24862 
L 453.825166 145.414155 
L 454.97408 141.592036 
L 456.69745 134.918012 
L 457.846364 132.485746 
L 460.144191 126.917376 
L 460.718647 125.958005 
L 461.293104 125.329021 
L 461.867561 125.311325 
L 462.442018 125.637777 
L 463.016475 124.897284 
L 463.590931 124.368154 
L 464.165388 124.436553 
L 464.739845 123.903036 
L 465.314302 123.001072 
L 467.037672 121.037373 
L 468.761042 118.281374 
L 469.335499 117.286472 
L 472.207783 110.696758 
L 473.356696 109.077007 
L 473.931153 108.367683 
L 474.50561 108.382719 
L 475.080067 108.676145 
L 475.654523 109.652573 
L 476.22898 111.010012 
L 476.803437 112.689281 
L 477.377894 113.368774 
L 477.95235 114.228745 
L 478.526807 116.450414 
L 479.101264 119.594995 
L 479.675721 123.583001 
L 481.399091 132.137085 
L 483.122461 140.660031 
L 484.271375 145.642208 
L 485.994745 151.813566 
L 486.569202 153.648641 
L 487.143659 154.90091 
L 487.718115 155.712805 
L 488.292572 156.015787 
L 488.867029 155.366437 
L 489.441486 154.521632 
L 490.015942 154.102151 
L 490.590399 153.39336 
L 491.164856 152.322719 
L 492.888226 147.48726 
L 494.03714 144.578104 
L 495.186053 141.87536 
L 495.76051 141.57869 
L 496.334967 141.561601 
L 496.909424 141.954911 
L 497.48388 142.921611 
L 498.058337 144.116127 
L 499.207251 147.229938 
L 500.356164 151.17244 
L 502.653991 159.728471 
L 503.802905 163.086184 
L 504.377361 163.050772 
L 504.951818 163.135766 
L 504.951818 163.135766 
" clip-path="url(#p6d6f19c014)" style="fill: none; stroke: #0072b2; stroke-width: 0.9; stroke-linecap: round"/>
   </g>
   <g id="patch_9">
    <path d="M 381.3 193.914 
L 381.3 101.04 
" style="fill: none; stroke: #111111; stroke-width: 0.75; stroke-linejoin: miter; stroke-linecap: square"/>
   </g>
   <g id="patch_10">
    <path d="M 381.3 193.914 
L 510.84 193.914 
" style="fill: none; stroke: #111111; stroke-width: 0.75; stroke-linejoin: miter; stroke-linecap: square"/>
   </g>
   <g id="text_22">
    <text style="font-size: 7.5px; font-family: 'DejaVu Sans', 'Arial', 'Liberation Sans', 'Bitstream Vera Sans', sans-serif; fill: #262626" transform="translate(418.082109 86.641641)">Ankle flexion R</text>
    <text style="font-size: 7.5px; font-family: 'DejaVu Sans', 'Arial', 'Liberation Sans', 'Bitstream Vera Sans', sans-serif; fill: #262626" transform="translate(386.392266 95.04)">FM 7.0°/r 0.69 · OC 13.5°/r 0.86</text>
   </g>
  </g>
  <g id="axes_4">
   <g id="patch_11">
    <path d="M 40.74 319.26 
L 170.28 319.26 
L 170.28 226.386 
L 40.74 226.386 
z
" style="fill: #ffffff"/>
   </g>
   <g id="matplotlib.axis_7">
    <g id="xtick_16">
     <g id="line2d_57">
      <g>
       <use xlink:href="#maaf1cb30ca" x="46.628182" y="319.26" style="fill: #555555; stroke: #555555"/>
      </g>
     </g>
     <g id="text_23">
      <text style="font-size: 6.5px; font-family: 'DejaVu Sans', 'Arial', 'Liberation Sans', 'Bitstream Vera Sans', sans-serif; text-anchor: middle; fill: #555555" x="46.628182" y="332.498984" transform="rotate(-0 46.628182 332.498984)">0.0</text>
     </g>
    </g>
    <g id="xtick_17">
     <g id="line2d_58">
      <g>
       <use xlink:href="#maaf1cb30ca" x="75.35102" y="319.26" style="fill: #555555; stroke: #555555"/>
      </g>
     </g>
     <g id="text_24">
      <text style="font-size: 6.5px; font-family: 'DejaVu Sans', 'Arial', 'Liberation Sans', 'Bitstream Vera Sans', sans-serif; text-anchor: middle; fill: #555555" x="75.35102" y="332.498984" transform="rotate(-0 75.35102 332.498984)">0.5</text>
     </g>
    </g>
    <g id="xtick_18">
     <g id="line2d_59">
      <g>
       <use xlink:href="#maaf1cb30ca" x="104.073858" y="319.26" style="fill: #555555; stroke: #555555"/>
      </g>
     </g>
     <g id="text_25">
      <text style="font-size: 6.5px; font-family: 'DejaVu Sans', 'Arial', 'Liberation Sans', 'Bitstream Vera Sans', sans-serif; text-anchor: middle; fill: #555555" x="104.073858" y="332.498984" transform="rotate(-0 104.073858 332.498984)">1.0</text>
     </g>
    </g>
    <g id="xtick_19">
     <g id="line2d_60">
      <g>
       <use xlink:href="#maaf1cb30ca" x="132.796696" y="319.26" style="fill: #555555; stroke: #555555"/>
      </g>
     </g>
     <g id="text_26">
      <text style="font-size: 6.5px; font-family: 'DejaVu Sans', 'Arial', 'Liberation Sans', 'Bitstream Vera Sans', sans-serif; text-anchor: middle; fill: #555555" x="132.796696" y="332.498984" transform="rotate(-0 132.796696 332.498984)">1.5</text>
     </g>
    </g>
    <g id="xtick_20">
     <g id="line2d_61">
      <g>
       <use xlink:href="#maaf1cb30ca" x="161.519534" y="319.26" style="fill: #555555; stroke: #555555"/>
      </g>
     </g>
     <g id="text_27">
      <text style="font-size: 6.5px; font-family: 'DejaVu Sans', 'Arial', 'Liberation Sans', 'Bitstream Vera Sans', sans-serif; text-anchor: middle; fill: #555555" x="161.519534" y="332.498984" transform="rotate(-0 161.519534 332.498984)">2.0</text>
     </g>
    </g>
    <g id="text_28">
     <text style="font-size: 7px; font-family: 'DejaVu Sans', 'Arial', 'Liberation Sans', 'Bitstream Vera Sans', sans-serif; text-anchor: middle; fill: #111111" x="105.51" y="343.169688" transform="rotate(-0 105.51 343.169688)">Comparison time (s)</text>
    </g>
   </g>
   <g id="matplotlib.axis_8">
    <g id="ytick_17">
     <g id="line2d_62">
      <path d="M 40.74 316.039497 
L 170.28 316.039497 
" clip-path="url(#p33de016099)" style="fill: none; stroke: #e8e8e8; stroke-opacity: 0.55; stroke-width: 0.35; stroke-linecap: round"/>
     </g>
     <g id="line2d_63">
      <g>
       <use xlink:href="#md0b054beae" x="40.74" y="316.039497" style="fill: #555555; stroke: #555555"/>
      </g>
     </g>
     <g id="text_29">
      <text style="font-size: 6.5px; font-family: 'DejaVu Sans', 'Arial', 'Liberation Sans', 'Bitstream Vera Sans', sans-serif; text-anchor: end; fill: #555555" x="32.44" y="318.508989" transform="rotate(-0 32.44 318.508989)">−30</text>
     </g>
    </g>
    <g id="ytick_18">
     <g id="line2d_64">
      <path d="M 40.74 301.772998 
L 170.28 301.772998 
" clip-path="url(#p33de016099)" style="fill: none; stroke: #e8e8e8; stroke-opacity: 0.55; stroke-width: 0.35; stroke-linecap: round"/>
     </g>
     <g id="line2d_65">
      <g>
       <use xlink:href="#md0b054beae" x="40.74" y="301.772998" style="fill: #555555; stroke: #555555"/>
      </g>
     </g>
     <g id="text_30">
      <text style="font-size: 6.5px; font-family: 'DejaVu Sans', 'Arial', 'Liberation Sans', 'Bitstream Vera Sans', sans-serif; text-anchor: end; fill: #555555" x="32.44" y="304.24249" transform="rotate(-0 32.44 304.24249)">−20</text>
     </g>
    </g>
    <g id="ytick_19">
     <g id="line2d_66">
      <path d="M 40.74 287.506499 
L 170.28 287.506499 
" clip-path="url(#p33de016099)" style="fill: none; stroke: #e8e8e8; stroke-opacity: 0.55; stroke-width: 0.35; stroke-linecap: round"/>
     </g>
     <g id="line2d_67">
      <g>
       <use xlink:href="#md0b054beae" x="40.74" y="287.506499" style="fill: #555555; stroke: #555555"/>
      </g>
     </g>
     <g id="text_31">
      <text style="font-size: 6.5px; font-family: 'DejaVu Sans', 'Arial', 'Liberation Sans', 'Bitstream Vera Sans', sans-serif; text-anchor: end; fill: #555555" x="32.44" y="289.975992" transform="rotate(-0 32.44 289.975992)">−10</text>
     </g>
    </g>
    <g id="ytick_20">
     <g id="line2d_68">
      <path d="M 40.74 273.240001 
L 170.28 273.240001 
" clip-path="url(#p33de016099)" style="fill: none; stroke: #e8e8e8; stroke-opacity: 0.55; stroke-width: 0.35; stroke-linecap: round"/>
     </g>
     <g id="line2d_69">
      <g>
       <use xlink:href="#md0b054beae" x="40.74" y="273.240001" style="fill: #555555; stroke: #555555"/>
      </g>
     </g>
     <g id="text_32">
      <text style="font-size: 6.5px; font-family: 'DejaVu Sans', 'Arial', 'Liberation Sans', 'Bitstream Vera Sans', sans-serif; text-anchor: end; fill: #555555" x="32.44" y="275.709493" transform="rotate(-0 32.44 275.709493)">0</text>
     </g>
    </g>
    <g id="ytick_21">
     <g id="line2d_70">
      <path d="M 40.74 258.973502 
L 170.28 258.973502 
" clip-path="url(#p33de016099)" style="fill: none; stroke: #e8e8e8; stroke-opacity: 0.55; stroke-width: 0.35; stroke-linecap: round"/>
     </g>
     <g id="line2d_71">
      <g>
       <use xlink:href="#md0b054beae" x="40.74" y="258.973502" style="fill: #555555; stroke: #555555"/>
      </g>
     </g>
     <g id="text_33">
      <text style="font-size: 6.5px; font-family: 'DejaVu Sans', 'Arial', 'Liberation Sans', 'Bitstream Vera Sans', sans-serif; text-anchor: end; fill: #555555" x="32.44" y="261.442994" transform="rotate(-0 32.44 261.442994)">10</text>
     </g>
    </g>
    <g id="ytick_22">
     <g id="line2d_72">
      <path d="M 40.74 244.707003 
L 170.28 244.707003 
" clip-path="url(#p33de016099)" style="fill: none; stroke: #e8e8e8; stroke-opacity: 0.55; stroke-width: 0.35; stroke-linecap: round"/>
     </g>
     <g id="line2d_73">
      <g>
       <use xlink:href="#md0b054beae" x="40.74" y="244.707003" style="fill: #555555; stroke: #555555"/>
      </g>
     </g>
     <g id="text_34">
      <text style="font-size: 6.5px; font-family: 'DejaVu Sans', 'Arial', 'Liberation Sans', 'Bitstream Vera Sans', sans-serif; text-anchor: end; fill: #555555" x="32.44" y="247.176495" transform="rotate(-0 32.44 247.176495)">20</text>
     </g>
    </g>
    <g id="ytick_23">
     <g id="line2d_74">
      <path d="M 40.74 230.440504 
L 170.28 230.440504 
" clip-path="url(#p33de016099)" style="fill: none; stroke: #e8e8e8; stroke-opacity: 0.55; stroke-width: 0.35; stroke-linecap: round"/>
     </g>
     <g id="line2d_75">
      <g>
       <use xlink:href="#md0b054beae" x="40.74" y="230.440504" style="fill: #555555; stroke: #555555"/>
      </g>
     </g>
     <g id="text_35">
      <text style="font-size: 6.5px; font-family: 'DejaVu Sans', 'Arial', 'Liberation Sans', 'Bitstream Vera Sans', sans-serif; text-anchor: end; fill: #555555" x="32.44" y="232.909996" transform="rotate(-0 32.44 232.909996)">30</text>
     </g>
    </g>
    <g id="text_36">
     <text style="font-size: 7px; font-family: 'DejaVu Sans', 'Arial', 'Liberation Sans', 'Bitstream Vera Sans', sans-serif; text-anchor: middle; fill: #111111" x="13.266172" y="272.823" transform="rotate(-90 13.266172 272.823)">deg</text>
    </g>
   </g>
   <g id="line2d_76">
    <path d="M 46.628182 315.038455 
L 47.777095 314.646433 
L 48.351552 314.248372 
L 48.926009 313.572828 
L 49.500466 312.401199 
L 50.649379 308.110234 
L 51.223836 304.80626 
L 52.372749 299.463634 
L 52.947206 296.396217 
L 53.521663 294.460101 
L 54.670576 288.865362 
L 55.81949 284.181508 
L 56.968404 278.747816 
L 58.691774 271.119534 
L 59.266231 269.310573 
L 60.989601 262.646819 
L 61.564058 262.173386 
L 62.138514 260.390787 
L 62.712971 259.953865 
L 63.287428 258.303675 
L 63.861885 258.107741 
L 64.436341 256.318246 
L 65.010798 256.078988 
L 65.585255 254.592306 
L 66.159712 253.463509 
L 66.734169 254.303058 
L 67.308625 253.371181 
L 67.883082 254.944611 
L 68.457539 254.30234 
L 69.031996 255.900623 
L 70.180909 257.321317 
L 70.755366 257.458551 
L 71.329823 257.380215 
L 71.904279 257.682861 
L 73.053193 257.062621 
L 73.62765 257.020366 
L 74.776563 256.562813 
L 75.35102 256.875831 
L 76.499933 258.489998 
L 77.648847 262.41072 
L 78.797761 266.008391 
L 79.372217 267.228444 
L 80.521131 270.630368 
L 81.095588 269.041298 
L 81.670044 270.773865 
L 82.244501 271.32321 
L 84.542328 279.335185 
L 85.691242 283.195988 
L 87.414612 287.713488 
L 88.563525 290.084897 
L 89.712439 292.093385 
L 90.286896 293.393296 
L 90.861353 294.392635 
L 92.010266 296.64706 
L 92.584723 297.80037 
L 93.15918 298.632341 
L 93.733636 300.127597 
L 94.308093 300.942449 
L 94.88255 302.281758 
L 95.457007 302.930428 
L 96.60592 305.511674 
L 97.754834 306.544962 
L 98.903747 309.197562 
L 99.478204 309.53292 
L 100.052661 310.912928 
L 100.627118 311.360096 
L 101.201574 312.476377 
L 101.776031 312.781222 
L 102.350488 313.476699 
L 103.499401 314.282123 
L 104.648315 314.738436 
L 106.371685 314.925749 
L 106.946142 314.941551 
L 108.669512 314.486445 
L 109.243969 314.016361 
L 109.818426 313.1766 
L 110.392882 311.887595 
L 111.541796 307.692111 
L 112.69071 301.96447 
L 117.286364 281.771898 
L 117.86082 279.491343 
L 119.584191 271.638473 
L 120.733104 266.853521 
L 121.307561 264.999123 
L 122.456475 260.677153 
L 123.030931 259.637977 
L 124.179845 255.968462 
L 125.328758 255.050603 
L 125.903215 253.98716 
L 126.477672 253.731832 
L 127.052129 252.27308 
L 127.626585 252.694406 
L 129.349956 253.477123 
L 129.924412 253.019603 
L 130.498869 254.964698 
L 131.073326 255.444925 
L 131.647783 257.207895 
L 132.222239 257.653563 
L 132.796696 257.880222 
L 133.371153 258.671795 
L 135.66898 258.736555 
L 136.243437 258.909385 
L 136.817894 259.432228 
L 137.966807 261.635335 
L 139.690177 266.220897 
L 140.264634 267.928717 
L 140.839091 267.877623 
L 141.413548 268.230871 
L 141.988004 269.245588 
L 142.562461 270.636596 
L 146.009202 282.623158 
L 147.158115 286.018522 
L 147.732572 287.324122 
L 151.179313 293.197532 
L 151.753769 294.528174 
L 153.47714 297.3836 
L 154.051596 299.019914 
L 155.20051 300.590585 
L 155.774967 302.318684 
L 156.349424 302.94645 
L 156.92388 304.375209 
L 157.498337 304.906631 
L 158.072794 305.930383 
L 158.647251 306.500197 
L 159.221707 307.813882 
L 162.093991 311.600377 
L 162.668448 312.041649 
L 163.817361 313.155533 
L 164.391818 313.660857 
L 164.391818 313.660857 
" clip-path="url(#p33de016099)" style="fill: none; stroke: #111111; stroke-width: 0.9; stroke-linecap: round"/>
   </g>
   <g id="line2d_77">
    <path d="M 46.628182 302.036202 
L 47.777095 294.917203 
L 51.798293 267.641955 
L 52.947206 261.577449 
L 54.09612 257.290017 
L 55.245033 254.239148 
L 56.393947 251.857021 
L 57.54286 249.757174 
L 58.691774 246.979607 
L 59.266231 246.198274 
L 59.840687 245.223179 
L 60.415144 243.850092 
L 60.989601 242.981408 
L 61.564058 242.368732 
L 62.712971 240.253311 
L 63.861885 238.713943 
L 65.010798 237.176447 
L 66.159712 235.968824 
L 66.734169 235.950905 
L 67.308625 236.20987 
L 68.457539 237.27441 
L 69.031996 238.085959 
L 69.606452 238.266714 
L 72.478736 237.662089 
L 73.62765 237.498536 
L 74.202106 237.547351 
L 75.35102 238.152473 
L 75.925477 238.570988 
L 77.07439 240.260494 
L 77.648847 241.439387 
L 78.797761 244.851258 
L 79.946674 248.863821 
L 80.521131 250.531052 
L 81.670044 252.983159 
L 82.818958 255.064761 
L 83.393415 256.343678 
L 84.542328 259.628019 
L 87.989069 271.792252 
L 88.563525 273.474564 
L 90.861353 278.863594 
L 93.15918 284.569969 
L 94.308093 286.674112 
L 95.457007 288.305512 
L 96.60592 289.782398 
L 97.754834 291.523822 
L 98.903747 293.935618 
L 101.201574 299.372186 
L 102.350488 301.554112 
L 102.924945 302.45176 
L 103.499401 303.099097 
L 104.648315 305.144482 
L 105.797228 305.82923 
L 106.371685 306.065742 
L 106.946142 305.845461 
L 107.520599 305.393337 
L 108.669512 303.02344 
L 109.243969 301.534845 
L 110.392882 297.321285 
L 111.541796 291.680453 
L 114.988537 270.829416 
L 116.13745 265.740629 
L 117.286364 261.878647 
L 119.584191 255.03848 
L 122.456475 246.008876 
L 123.605388 242.821289 
L 125.903215 237.603924 
L 127.052129 234.547231 
L 128.201042 232.061092 
L 128.775499 231.123371 
L 129.349956 230.607545 
L 129.924412 230.752948 
L 130.498869 231.233954 
L 131.073326 231.347553 
L 131.647783 231.764067 
L 132.222239 232.798083 
L 132.796696 233.347206 
L 133.371153 233.650223 
L 134.520067 233.970352 
L 135.094523 234.381957 
L 136.243437 235.871373 
L 138.541264 242.033723 
L 139.115721 244.029309 
L 140.264634 247.074772 
L 141.413548 249.439732 
L 141.988004 250.343389 
L 144.285831 255.577438 
L 144.860288 257.234798 
L 149.455942 273.959853 
L 151.179313 279.6156 
L 151.753769 281.499574 
L 152.902683 284.232559 
L 153.47714 285.809837 
L 155.20051 288.919404 
L 157.498337 293.071555 
L 158.072794 294.437615 
L 159.221707 296.442018 
L 160.370621 297.853278 
L 162.093991 299.661696 
L 163.242905 301.298345 
L 164.391818 303.205892 
L 164.391818 303.205892 
" clip-path="url(#p33de016099)" style="fill: none; stroke: #d55e00; stroke-width: 0.9; stroke-linecap: round"/>
   </g>
   <g id="line2d_78">
    <path d="M 46.628182 298.32179 
L 47.777095 294.099856 
L 48.926009 289.188567 
L 50.074922 282.499567 
L 50.649379 280.078093 
L 51.798293 273.024038 
L 52.947206 264.521648 
L 53.521663 261.905084 
L 54.670576 254.159137 
L 56.393947 246.4297 
L 56.968404 244.969785 
L 58.117317 242.555229 
L 59.266231 239.579274 
L 59.840687 238.856913 
L 60.415144 238.436141 
L 62.138514 235.877516 
L 62.712971 235.431875 
L 65.010798 234.220082 
L 66.159712 234.221058 
L 67.308625 234.382815 
L 68.457539 234.823697 
L 69.031996 235.157702 
L 69.606452 234.968242 
L 70.180909 235.002806 
L 71.904279 236.519779 
L 73.053193 237.025994 
L 73.62765 237.467294 
L 74.202106 237.507001 
L 74.776563 237.306675 
L 75.925477 237.881695 
L 77.648847 239.345008 
L 82.244501 247.50977 
L 82.818958 249.164266 
L 83.393415 251.305314 
L 83.967871 251.47175 
L 84.542328 251.796293 
L 85.116785 253.505028 
L 85.691242 254.163895 
L 86.265698 253.955763 
L 87.414612 256.78952 
L 87.989069 257.48146 
L 88.563525 258.586603 
L 90.286896 263.237813 
L 92.010266 269.774879 
L 93.15918 272.570754 
L 93.733636 275.706626 
L 94.308093 278.199633 
L 94.88255 280.020853 
L 96.031463 282.350698 
L 97.180377 286.524208 
L 99.478204 291.891499 
L 104.073858 302.004866 
L 105.222772 304.779395 
L 105.797228 305.851209 
L 106.371685 306.63166 
L 106.946142 307.107322 
L 107.520599 307.406063 
L 109.243969 305.250465 
L 110.392882 304.612588 
L 112.116253 294.928607 
L 113.265166 290.587666 
L 114.41408 281.005289 
L 115.562993 273.896719 
L 116.13745 270.930732 
L 117.86082 259.737963 
L 119.584191 250.865846 
L 120.733104 245.517904 
L 121.307561 244.432791 
L 121.882018 244.191903 
L 122.456475 241.920474 
L 123.030931 240.364542 
L 123.605388 240.699812 
L 124.179845 239.551282 
L 124.754302 237.494483 
L 125.328758 237.835506 
L 125.903215 237.944077 
L 126.477672 237.08138 
L 127.052129 236.769835 
L 127.626585 236.824655 
L 128.775499 235.539012 
L 129.349956 235.091052 
L 129.924412 235.627333 
L 130.498869 236.872839 
L 131.647783 237.405856 
L 132.222239 237.53696 
L 132.796696 237.499549 
L 133.371153 237.330591 
L 134.520067 237.762787 
L 135.66898 238.533995 
L 136.243437 238.992258 
L 137.39235 239.074363 
L 137.966807 239.612853 
L 138.541264 240.5242 
L 139.115721 241.776292 
L 140.264634 242.595612 
L 144.285831 249.96426 
L 146.583659 253.151922 
L 147.158115 254.299014 
L 147.732572 256.011335 
L 148.307029 256.274652 
L 148.881486 256.353956 
L 150.604856 260.934384 
L 151.753769 262.135836 
L 152.902683 264.88721 
L 154.051596 267.974914 
L 154.626053 269.410896 
L 155.774967 273.902221 
L 156.349424 276.636286 
L 157.498337 280.217231 
L 159.796164 286.933095 
L 161.519534 290.742143 
L 163.817361 295.330562 
L 164.391818 296.415548 
L 164.391818 296.415548 
" clip-path="url(#p33de016099)" style="fill: none; stroke: #0072b2; stroke-width: 0.9; stroke-linecap: round"/>
   </g>
   <g id="patch_12">
    <path d="M 40.74 319.26 
L 40.74 226.386 
" style="fill: none; stroke: #111111; stroke-width: 0.75; stroke-linejoin: miter; stroke-linecap: square"/>
   </g>
   <g id="patch_13">
    <path d="M 40.74 319.26 
L 170.28 319.26 
" style="fill: none; stroke: #111111; stroke-width: 0.75; stroke-linejoin: miter; stroke-linecap: square"/>
   </g>
   <g id="text_37">
    <text style="font-size: 7.5px; font-family: 'DejaVu Sans', 'Arial', 'Liberation Sans', 'Bitstream Vera Sans', sans-serif; fill: #262626" transform="translate(82.258242 211.987641)">Hip flexion L</text>
    <text style="font-size: 7.5px; font-family: 'DejaVu Sans', 'Arial', 'Liberation Sans', 'Bitstream Vera Sans', sans-serif; fill: #262626" transform="translate(43.446328 220.386)">FM 16.3°/r 0.96 · OC 13.4°/r 0.98</text>
   </g>
  </g>
  <g id="axes_5">
   <g id="patch_14">
    <path d="M 211.02 319.26 
L 340.56 319.26 
L 340.56 226.386 
L 211.02 226.386 
z
" style="fill: #ffffff"/>
   </g>
   <g id="matplotlib.axis_9">
    <g id="xtick_21">
     <g id="line2d_79">
      <g>
       <use xlink:href="#maaf1cb30ca" x="216.908182" y="319.26" style="fill: #555555; stroke: #555555"/>
      </g>
     </g>
     <g id="text_38">
      <text style="font-size: 6.5px; font-family: 'DejaVu Sans', 'Arial', 'Liberation Sans', 'Bitstream Vera Sans', sans-serif; text-anchor: middle; fill: #555555" x="216.908182" y="332.498984" transform="rotate(-0 216.908182 332.498984)">0.0</text>
     </g>
    </g>
    <g id="xtick_22">
     <g id="line2d_80">
      <g>
       <use xlink:href="#maaf1cb30ca" x="245.63102" y="319.26" style="fill: #555555; stroke: #555555"/>
      </g>
     </g>
     <g id="text_39">
      <text style="font-size: 6.5px; font-family: 'DejaVu Sans', 'Arial', 'Liberation Sans', 'Bitstream Vera Sans', sans-serif; text-anchor: middle; fill: #555555" x="245.63102" y="332.498984" transform="rotate(-0 245.63102 332.498984)">0.5</text>
     </g>
    </g>
    <g id="xtick_23">
     <g id="line2d_81">
      <g>
       <use xlink:href="#maaf1cb30ca" x="274.353858" y="319.26" style="fill: #555555; stroke: #555555"/>
      </g>
     </g>
     <g id="text_40">
      <text style="font-size: 6.5px; font-family: 'DejaVu Sans', 'Arial', 'Liberation Sans', 'Bitstream Vera Sans', sans-serif; text-anchor: middle; fill: #555555" x="274.353858" y="332.498984" transform="rotate(-0 274.353858 332.498984)">1.0</text>
     </g>
    </g>
    <g id="xtick_24">
     <g id="line2d_82">
      <g>
       <use xlink:href="#maaf1cb30ca" x="303.076696" y="319.26" style="fill: #555555; stroke: #555555"/>
      </g>
     </g>
     <g id="text_41">
      <text style="font-size: 6.5px; font-family: 'DejaVu Sans', 'Arial', 'Liberation Sans', 'Bitstream Vera Sans', sans-serif; text-anchor: middle; fill: #555555" x="303.076696" y="332.498984" transform="rotate(-0 303.076696 332.498984)">1.5</text>
     </g>
    </g>
    <g id="xtick_25">
     <g id="line2d_83">
      <g>
       <use xlink:href="#maaf1cb30ca" x="331.799534" y="319.26" style="fill: #555555; stroke: #555555"/>
      </g>
     </g>
     <g id="text_42">
      <text style="font-size: 6.5px; font-family: 'DejaVu Sans', 'Arial', 'Liberation Sans', 'Bitstream Vera Sans', sans-serif; text-anchor: middle; fill: #555555" x="331.799534" y="332.498984" transform="rotate(-0 331.799534 332.498984)">2.0</text>
     </g>
    </g>
    <g id="text_43">
     <text style="font-size: 7px; font-family: 'DejaVu Sans', 'Arial', 'Liberation Sans', 'Bitstream Vera Sans', sans-serif; text-anchor: middle; fill: #111111" x="275.79" y="343.169688" transform="rotate(-0 275.79 343.169688)">Comparison time (s)</text>
    </g>
   </g>
   <g id="matplotlib.axis_10">
    <g id="ytick_24">
     <g id="line2d_84">
      <path d="M 211.02 315.50183 
L 340.56 315.50183 
" clip-path="url(#p4e6447a15e)" style="fill: none; stroke: #e8e8e8; stroke-opacity: 0.55; stroke-width: 0.35; stroke-linecap: round"/>
     </g>
     <g id="line2d_85">
      <g>
       <use xlink:href="#md0b054beae" x="211.02" y="315.50183" style="fill: #555555; stroke: #555555"/>
      </g>
     </g>
     <g id="text_44">
      <text style="font-size: 6.5px; font-family: 'DejaVu Sans', 'Arial', 'Liberation Sans', 'Bitstream Vera Sans', sans-serif; text-anchor: end; fill: #555555" x="202.72" y="317.971323" transform="rotate(-0 202.72 317.971323)">0</text>
     </g>
    </g>
    <g id="ytick_25">
     <g id="line2d_86">
      <path d="M 211.02 292.159876 
L 340.56 292.159876 
" clip-path="url(#p4e6447a15e)" style="fill: none; stroke: #e8e8e8; stroke-opacity: 0.55; stroke-width: 0.35; stroke-linecap: round"/>
     </g>
     <g id="line2d_87">
      <g>
       <use xlink:href="#md0b054beae" x="211.02" y="292.159876" style="fill: #555555; stroke: #555555"/>
      </g>
     </g>
     <g id="text_45">
      <text style="font-size: 6.5px; font-family: 'DejaVu Sans', 'Arial', 'Liberation Sans', 'Bitstream Vera Sans', sans-serif; text-anchor: end; fill: #555555" x="202.72" y="294.629368" transform="rotate(-0 202.72 294.629368)">20</text>
     </g>
    </g>
    <g id="ytick_26">
     <g id="line2d_88">
      <path d="M 211.02 268.817921 
L 340.56 268.817921 
" clip-path="url(#p4e6447a15e)" style="fill: none; stroke: #e8e8e8; stroke-opacity: 0.55; stroke-width: 0.35; stroke-linecap: round"/>
     </g>
     <g id="line2d_89">
      <g>
       <use xlink:href="#md0b054beae" x="211.02" y="268.817921" style="fill: #555555; stroke: #555555"/>
      </g>
     </g>
     <g id="text_46">
      <text style="font-size: 6.5px; font-family: 'DejaVu Sans', 'Arial', 'Liberation Sans', 'Bitstream Vera Sans', sans-serif; text-anchor: end; fill: #555555" x="202.72" y="271.287414" transform="rotate(-0 202.72 271.287414)">40</text>
     </g>
    </g>
    <g id="ytick_27">
     <g id="line2d_90">
      <path d="M 211.02 245.475967 
L 340.56 245.475967 
" clip-path="url(#p4e6447a15e)" style="fill: none; stroke: #e8e8e8; stroke-opacity: 0.55; stroke-width: 0.35; stroke-linecap: round"/>
     </g>
     <g id="line2d_91">
      <g>
       <use xlink:href="#md0b054beae" x="211.02" y="245.475967" style="fill: #555555; stroke: #555555"/>
      </g>
     </g>
     <g id="text_47">
      <text style="font-size: 6.5px; font-family: 'DejaVu Sans', 'Arial', 'Liberation Sans', 'Bitstream Vera Sans', sans-serif; text-anchor: end; fill: #555555" x="202.72" y="247.945459" transform="rotate(-0 202.72 247.945459)">60</text>
     </g>
    </g>
    <g id="text_48">
     <text style="font-size: 7px; font-family: 'DejaVu Sans', 'Arial', 'Liberation Sans', 'Bitstream Vera Sans', sans-serif; text-anchor: middle; fill: #111111" x="188.992969" y="272.823" transform="rotate(-90 188.992969 272.823)">deg</text>
    </g>
   </g>
   <g id="line2d_92">
    <path d="M 216.908182 286.901773 
L 218.631552 275.142686 
L 220.354922 261.340876 
L 222.078293 247.68885 
L 223.227206 240.822328 
L 224.37612 236.398799 
L 224.950576 234.74598 
L 225.525033 233.754271 
L 226.09949 233.045736 
L 226.673947 232.712611 
L 227.248404 232.757015 
L 227.82286 233.15059 
L 228.397317 233.822536 
L 228.971774 234.88237 
L 230.120687 238.202901 
L 231.269601 242.437277 
L 233.567428 254.802398 
L 236.439712 273.958365 
L 239.886452 302.245484 
L 240.460909 306.274505 
L 241.035366 309.455334 
L 241.609823 311.599437 
L 242.184279 312.894446 
L 242.758736 313.06514 
L 243.333193 312.451282 
L 243.90765 311.49569 
L 245.056563 307.941359 
L 246.205477 305.785995 
L 246.779933 305.408902 
L 247.35439 305.521112 
L 247.928847 305.308202 
L 248.503304 305.255017 
L 249.077761 304.670858 
L 250.801131 301.75057 
L 251.375588 299.816421 
L 252.524501 298.639028 
L 253.098958 298.772043 
L 253.673415 299.186194 
L 254.822328 300.509307 
L 255.971242 301.877998 
L 257.694612 303.580961 
L 258.269069 303.987075 
L 259.417982 305.045915 
L 261.141353 306.39029 
L 264.588093 309.013225 
L 265.16255 309.316839 
L 266.88592 309.719555 
L 267.460377 309.679653 
L 268.034834 309.52662 
L 268.60929 309.248038 
L 269.183747 309.185322 
L 270.332661 308.623958 
L 272.630488 306.63606 
L 273.779401 305.077756 
L 274.928315 302.712227 
L 276.077228 299.533919 
L 276.651685 297.609933 
L 277.800599 292.3243 
L 278.949512 284.948193 
L 280.098426 276.028737 
L 282.97071 251.439443 
L 284.119623 243.940504 
L 285.268537 238.07891 
L 286.41745 234.08377 
L 286.991907 232.671757 
L 287.566364 231.664955 
L 288.14082 230.974832 
L 288.715277 230.667529 
L 289.289734 230.607545 
L 289.864191 230.969837 
L 290.438647 231.576301 
L 291.013104 232.549215 
L 292.162018 235.598987 
L 292.736475 237.512954 
L 294.459845 245.432434 
L 296.183215 256.624638 
L 297.906585 269.892995 
L 301.927783 304.681217 
L 302.502239 308.193121 
L 303.076696 310.631725 
L 303.651153 312.360409 
L 304.22561 312.763436 
L 304.800067 312.396962 
L 305.374523 311.492873 
L 307.097894 307.062909 
L 308.246807 305.02931 
L 309.395721 303.365556 
L 310.544634 301.271985 
L 311.693548 298.458814 
L 312.268004 297.533351 
L 312.842461 297.034673 
L 313.416918 297.080418 
L 313.991375 297.268051 
L 315.140288 298.542771 
L 315.714745 299.651805 
L 317.438115 301.732761 
L 318.012572 302.608229 
L 318.587029 302.969036 
L 319.161486 303.636665 
L 320.310399 304.574189 
L 321.459313 305.667179 
L 322.033769 306.059649 
L 323.182683 307.062532 
L 323.75714 307.410556 
L 324.331596 307.941595 
L 324.906053 308.289844 
L 325.48051 308.492655 
L 326.054967 308.895559 
L 327.778337 309.203288 
L 330.076164 308.502323 
L 331.799534 307.189397 
L 332.948448 305.959097 
L 334.097361 304.471553 
L 334.671818 303.417983 
L 334.671818 303.417983 
" clip-path="url(#p4e6447a15e)" style="fill: none; stroke: #111111; stroke-width: 0.9; stroke-linecap: round"/>
   </g>
   <g id="line2d_93">
    <path d="M 216.908182 282.988368 
L 219.206009 259.868566 
L 220.354922 250.327852 
L 221.503836 243.245508 
L 222.078293 240.648022 
L 223.227206 236.934414 
L 223.801663 236.14027 
L 224.37612 235.65284 
L 224.950576 235.781937 
L 225.525033 236.304435 
L 226.09949 237.026602 
L 227.248404 239.661152 
L 228.397317 243.119798 
L 229.546231 247.258401 
L 230.695144 252.063175 
L 232.418514 260.480046 
L 234.141885 270.212163 
L 235.290798 277.521623 
L 238.163082 296.885745 
L 239.311996 302.458001 
L 239.886452 304.222522 
L 240.460909 305.621458 
L 241.035366 306.170561 
L 241.609823 306.410456 
L 242.184279 306.028332 
L 243.333193 304.409149 
L 245.056563 300.511519 
L 246.205477 298.405536 
L 247.928847 296.269019 
L 249.652217 294.77393 
L 250.801131 294.011693 
L 251.950044 293.393744 
L 253.098958 293.177631 
L 253.673415 293.345074 
L 254.247871 293.812908 
L 254.822328 294.433205 
L 256.545698 298.138392 
L 257.694612 300.726191 
L 258.843525 302.659259 
L 259.992439 304.027668 
L 262.290266 306.524973 
L 265.16255 310.088711 
L 266.88592 311.562167 
L 267.460377 311.927769 
L 268.034834 312.071974 
L 269.183747 312.013062 
L 270.332661 311.179274 
L 273.204945 308.352713 
L 273.779401 307.579822 
L 274.928315 305.396371 
L 276.077228 301.782029 
L 277.226142 296.714014 
L 277.800599 293.856446 
L 278.949512 286.559822 
L 280.098426 277.725908 
L 281.821796 262.338578 
L 283.545166 246.369244 
L 284.69408 238.689727 
L 285.268537 236.042225 
L 285.842993 234.312094 
L 286.41745 233.047569 
L 286.991907 232.966084 
L 287.566364 233.156082 
L 288.14082 233.889246 
L 289.289734 236.032077 
L 290.438647 238.782783 
L 291.587561 242.383141 
L 292.736475 246.924044 
L 293.885388 252.39105 
L 297.332129 270.645453 
L 298.481042 277.643138 
L 300.204412 289.735883 
L 301.353326 297.29367 
L 302.502239 303.280019 
L 303.651153 306.895001 
L 304.22561 307.398842 
L 304.800067 307.620458 
L 305.374523 307.276627 
L 306.523437 305.824699 
L 308.246807 303.479395 
L 309.395721 302.56134 
L 310.544634 301.690454 
L 311.119091 301.028079 
L 312.842461 298.640406 
L 313.416918 298.206893 
L 313.991375 298.165961 
L 315.140288 298.384226 
L 316.863659 300.352634 
L 318.012572 302.085446 
L 319.735942 305.216743 
L 320.884856 307.222316 
L 322.608226 309.594308 
L 323.75714 310.831724 
L 324.906053 311.800729 
L 326.054967 312.563962 
L 327.20388 313.424648 
L 327.778337 313.747092 
L 328.352794 313.872777 
L 329.501707 313.757029 
L 331.225078 313.093184 
L 333.522905 312.405038 
L 334.097361 312.084923 
L 334.671818 311.536275 
L 334.671818 311.536275 
" clip-path="url(#p4e6447a15e)" style="fill: none; stroke: #d55e00; stroke-width: 0.9; stroke-linecap: round"/>
   </g>
   <g id="line2d_94">
    <path d="M 216.908182 297.247262 
L 219.206009 278.386519 
L 220.354922 268.064946 
L 222.078293 255.369234 
L 223.227206 248.184289 
L 224.37612 243.795641 
L 224.950576 241.90624 
L 225.525033 241.209876 
L 226.09949 240.965273 
L 226.673947 241.353831 
L 227.248404 242.380269 
L 227.82286 243.687434 
L 228.971774 248.078124 
L 229.546231 250.624216 
L 231.269601 260.386529 
L 233.567428 273.43378 
L 235.290798 282.808113 
L 238.163082 297.530184 
L 239.311996 302.884952 
L 240.460909 305.861861 
L 241.035366 306.943845 
L 241.609823 307.465267 
L 242.184279 307.678701 
L 243.333193 306.290808 
L 243.90765 305.233591 
L 245.056563 302.022078 
L 246.779933 297.17687 
L 247.928847 294.255626 
L 249.077761 293.03029 
L 250.226674 292.378378 
L 250.801131 291.94439 
L 252.524501 293.150704 
L 253.098958 293.831666 
L 253.673415 294.77677 
L 254.822328 295.886305 
L 255.396785 296.839804 
L 255.971242 297.490957 
L 256.545698 297.892426 
L 257.694612 300.008794 
L 258.269069 300.742383 
L 259.417982 302.82567 
L 262.290266 308.164695 
L 263.43918 309.362368 
L 264.013636 310.728485 
L 264.588093 311.721356 
L 265.737007 312.826702 
L 267.460377 314.218858 
L 268.60929 314.669134 
L 269.758204 314.894364 
L 272.056031 315.037444 
L 273.779401 314.992091 
L 274.928315 314.838325 
L 275.502772 314.652526 
L 276.077228 314.196718 
L 276.651685 313.353644 
L 277.800599 310.444449 
L 278.949512 304.730993 
L 280.672882 293.760422 
L 284.119623 258.784176 
L 284.69408 253.390595 
L 285.268537 249.101538 
L 286.41745 242.837186 
L 287.566364 238.312906 
L 288.14082 236.967343 
L 288.715277 236.056607 
L 289.289734 235.370472 
L 289.864191 235.845961 
L 290.438647 236.5608 
L 291.013104 237.765307 
L 291.587561 239.865634 
L 293.310931 248.154537 
L 294.459845 256.056012 
L 295.608758 263.702008 
L 296.757672 270.881831 
L 299.629956 288.119611 
L 301.353326 300.224502 
L 301.927783 303.483602 
L 302.502239 306.000815 
L 303.076696 307.847181 
L 303.651153 309.169865 
L 304.22561 309.83543 
L 304.800067 310.237044 
L 305.374523 309.977498 
L 305.94898 309.457529 
L 306.523437 308.717587 
L 308.821264 304.17611 
L 309.970177 302.16626 
L 310.544634 301.153976 
L 312.268004 299.550202 
L 313.416918 299.058585 
L 315.140288 299.064871 
L 317.438115 300.589768 
L 318.012572 301.208413 
L 319.161486 301.666589 
L 320.310399 303.257349 
L 324.906053 308.473991 
L 326.629424 311.35292 
L 327.778337 312.74003 
L 329.501707 314.198321 
L 330.650621 314.626225 
L 332.373991 314.933813 
L 334.097361 315.02364 
L 334.671818 315.015274 
L 334.671818 315.015274 
" clip-path="url(#p4e6447a15e)" style="fill: none; stroke: #0072b2; stroke-width: 0.9; stroke-linecap: round"/>
   </g>
   <g id="patch_15">
    <path d="M 211.02 319.26 
L 211.02 226.386 
" style="fill: none; stroke: #111111; stroke-width: 0.75; stroke-linejoin: miter; stroke-linecap: square"/>
   </g>
   <g id="patch_16">
    <path d="M 211.02 319.26 
L 340.56 319.26 
" style="fill: none; stroke: #111111; stroke-width: 0.75; stroke-linejoin: miter; stroke-linecap: square"/>
   </g>
   <g id="text_49">
    <text style="font-size: 7.5px; font-family: 'DejaVu Sans', 'Arial', 'Liberation Sans', 'Bitstream Vera Sans', sans-serif; fill: #262626" transform="translate(249.330234 211.987641)">Knee flexion L</text>
    <text style="font-size: 7.5px; font-family: 'DejaVu Sans', 'Arial', 'Liberation Sans', 'Bitstream Vera Sans', sans-serif; fill: #262626" transform="translate(218.498203 220.386)">FM 7.7°/r 0.97 · OC 5.0°/r 0.98</text>
   </g>
  </g>
  <g id="axes_6">
   <g id="patch_17">
    <path d="M 381.3 319.26 
L 510.84 319.26 
L 510.84 226.386 
L 381.3 226.386 
z
" style="fill: #ffffff"/>
   </g>
   <g id="matplotlib.axis_11">
    <g id="xtick_26">
     <g id="line2d_95">
      <g>
       <use xlink:href="#maaf1cb30ca" x="387.188182" y="319.26" style="fill: #555555; stroke: #555555"/>
      </g>
     </g>
     <g id="text_50">
      <text style="font-size: 6.5px; font-family: 'DejaVu Sans', 'Arial', 'Liberation Sans', 'Bitstream Vera Sans', sans-serif; text-anchor: middle; fill: #555555" x="387.188182" y="332.498984" transform="rotate(-0 387.188182 332.498984)">0.0</text>
     </g>
    </g>
    <g id="xtick_27">
     <g id="line2d_96">
      <g>
       <use xlink:href="#maaf1cb30ca" x="415.91102" y="319.26" style="fill: #555555; stroke: #555555"/>
      </g>
     </g>
     <g id="text_51">
      <text style="font-size: 6.5px; font-family: 'DejaVu Sans', 'Arial', 'Liberation Sans', 'Bitstream Vera Sans', sans-serif; text-anchor: middle; fill: #555555" x="415.91102" y="332.498984" transform="rotate(-0 415.91102 332.498984)">0.5</text>
     </g>
    </g>
    <g id="xtick_28">
     <g id="line2d_97">
      <g>
       <use xlink:href="#maaf1cb30ca" x="444.633858" y="319.26" style="fill: #555555; stroke: #555555"/>
      </g>
     </g>
     <g id="text_52">
      <text style="font-size: 6.5px; font-family: 'DejaVu Sans', 'Arial', 'Liberation Sans', 'Bitstream Vera Sans', sans-serif; text-anchor: middle; fill: #555555" x="444.633858" y="332.498984" transform="rotate(-0 444.633858 332.498984)">1.0</text>
     </g>
    </g>
    <g id="xtick_29">
     <g id="line2d_98">
      <g>
       <use xlink:href="#maaf1cb30ca" x="473.356696" y="319.26" style="fill: #555555; stroke: #555555"/>
      </g>
     </g>
     <g id="text_53">
      <text style="font-size: 6.5px; font-family: 'DejaVu Sans', 'Arial', 'Liberation Sans', 'Bitstream Vera Sans', sans-serif; text-anchor: middle; fill: #555555" x="473.356696" y="332.498984" transform="rotate(-0 473.356696 332.498984)">1.5</text>
     </g>
    </g>
    <g id="xtick_30">
     <g id="line2d_99">
      <g>
       <use xlink:href="#maaf1cb30ca" x="502.079534" y="319.26" style="fill: #555555; stroke: #555555"/>
      </g>
     </g>
     <g id="text_54">
      <text style="font-size: 6.5px; font-family: 'DejaVu Sans', 'Arial', 'Liberation Sans', 'Bitstream Vera Sans', sans-serif; text-anchor: middle; fill: #555555" x="502.079534" y="332.498984" transform="rotate(-0 502.079534 332.498984)">2.0</text>
     </g>
    </g>
    <g id="text_55">
     <text style="font-size: 7px; font-family: 'DejaVu Sans', 'Arial', 'Liberation Sans', 'Bitstream Vera Sans', sans-serif; text-anchor: middle; fill: #111111" x="446.07" y="343.169688" transform="rotate(-0 446.07 343.169688)">Comparison time (s)</text>
    </g>
   </g>
   <g id="matplotlib.axis_12">
    <g id="ytick_28">
     <g id="line2d_100">
      <path d="M 381.3 308.935596 
L 510.84 308.935596 
" clip-path="url(#p5b8bc26166)" style="fill: none; stroke: #e8e8e8; stroke-opacity: 0.55; stroke-width: 0.35; stroke-linecap: round"/>
     </g>
     <g id="line2d_101">
      <g>
       <use xlink:href="#md0b054beae" x="381.3" y="308.935596" style="fill: #555555; stroke: #555555"/>
      </g>
     </g>
     <g id="text_56">
      <text style="font-size: 6.5px; font-family: 'DejaVu Sans', 'Arial', 'Liberation Sans', 'Bitstream Vera Sans', sans-serif; text-anchor: end; fill: #555555" x="373" y="311.405089" transform="rotate(-0 373 311.405089)">−20</text>
     </g>
    </g>
    <g id="ytick_29">
     <g id="line2d_102">
      <path d="M 381.3 292.599518 
L 510.84 292.599518 
" clip-path="url(#p5b8bc26166)" style="fill: none; stroke: #e8e8e8; stroke-opacity: 0.55; stroke-width: 0.35; stroke-linecap: round"/>
     </g>
     <g id="line2d_103">
      <g>
       <use xlink:href="#md0b054beae" x="381.3" y="292.599518" style="fill: #555555; stroke: #555555"/>
      </g>
     </g>
     <g id="text_57">
      <text style="font-size: 6.5px; font-family: 'DejaVu Sans', 'Arial', 'Liberation Sans', 'Bitstream Vera Sans', sans-serif; text-anchor: end; fill: #555555" x="373" y="295.069011" transform="rotate(-0 373 295.069011)">−10</text>
     </g>
    </g>
    <g id="ytick_30">
     <g id="line2d_104">
      <path d="M 381.3 276.26344 
L 510.84 276.26344 
" clip-path="url(#p5b8bc26166)" style="fill: none; stroke: #e8e8e8; stroke-opacity: 0.55; stroke-width: 0.35; stroke-linecap: round"/>
     </g>
     <g id="line2d_105">
      <g>
       <use xlink:href="#md0b054beae" x="381.3" y="276.26344" style="fill: #555555; stroke: #555555"/>
      </g>
     </g>
     <g id="text_58">
      <text style="font-size: 6.5px; font-family: 'DejaVu Sans', 'Arial', 'Liberation Sans', 'Bitstream Vera Sans', sans-serif; text-anchor: end; fill: #555555" x="373" y="278.732933" transform="rotate(-0 373 278.732933)">0</text>
     </g>
    </g>
    <g id="ytick_31">
     <g id="line2d_106">
      <path d="M 381.3 259.927362 
L 510.84 259.927362 
" clip-path="url(#p5b8bc26166)" style="fill: none; stroke: #e8e8e8; stroke-opacity: 0.55; stroke-width: 0.35; stroke-linecap: round"/>
     </g>
     <g id="line2d_107">
      <g>
       <use xlink:href="#md0b054beae" x="381.3" y="259.927362" style="fill: #555555; stroke: #555555"/>
      </g>
     </g>
     <g id="text_59">
      <text style="font-size: 6.5px; font-family: 'DejaVu Sans', 'Arial', 'Liberation Sans', 'Bitstream Vera Sans', sans-serif; text-anchor: end; fill: #555555" x="373" y="262.396855" transform="rotate(-0 373 262.396855)">10</text>
     </g>
    </g>
    <g id="ytick_32">
     <g id="line2d_108">
      <path d="M 381.3 243.591284 
L 510.84 243.591284 
" clip-path="url(#p5b8bc26166)" style="fill: none; stroke: #e8e8e8; stroke-opacity: 0.55; stroke-width: 0.35; stroke-linecap: round"/>
     </g>
     <g id="line2d_109">
      <g>
       <use xlink:href="#md0b054beae" x="381.3" y="243.591284" style="fill: #555555; stroke: #555555"/>
      </g>
     </g>
     <g id="text_60">
      <text style="font-size: 6.5px; font-family: 'DejaVu Sans', 'Arial', 'Liberation Sans', 'Bitstream Vera Sans', sans-serif; text-anchor: end; fill: #555555" x="373" y="246.060776" transform="rotate(-0 373 246.060776)">20</text>
     </g>
    </g>
    <g id="ytick_33">
     <g id="line2d_110">
      <path d="M 381.3 227.255206 
L 510.84 227.255206 
" clip-path="url(#p5b8bc26166)" style="fill: none; stroke: #e8e8e8; stroke-opacity: 0.55; stroke-width: 0.35; stroke-linecap: round"/>
     </g>
     <g id="line2d_111">
      <g>
       <use xlink:href="#md0b054beae" x="381.3" y="227.255206" style="fill: #555555; stroke: #555555"/>
      </g>
     </g>
     <g id="text_61">
      <text style="font-size: 6.5px; font-family: 'DejaVu Sans', 'Arial', 'Liberation Sans', 'Bitstream Vera Sans', sans-serif; text-anchor: end; fill: #555555" x="373" y="229.724698" transform="rotate(-0 373 229.724698)">30</text>
     </g>
    </g>
    <g id="text_62">
     <text style="font-size: 7px; font-family: 'DejaVu Sans', 'Arial', 'Liberation Sans', 'Bitstream Vera Sans', sans-serif; text-anchor: middle; fill: #111111" x="353.826172" y="272.823" transform="rotate(-90 353.826172 272.823)">deg</text>
    </g>
   </g>
   <g id="line2d_112">
    <path d="M 387.188182 238.994852 
L 388.337095 247.568867 
L 389.486009 258.086363 
L 391.209379 274.934297 
L 392.358293 282.385796 
L 392.932749 284.051109 
L 393.507206 284.242745 
L 394.65612 281.440365 
L 395.230576 279.26909 
L 396.37949 274.31934 
L 397.528404 270.93185 
L 401.549601 259.016811 
L 402.124058 257.857228 
L 402.698514 257.081097 
L 403.847428 256.475939 
L 404.421885 256.536041 
L 404.996341 256.908354 
L 405.570798 256.335792 
L 406.145255 256.816467 
L 406.719712 256.824979 
L 407.294169 255.728314 
L 407.868625 255.798139 
L 408.443082 254.949793 
L 409.017539 254.617851 
L 409.591996 254.082279 
L 411.315366 253.191851 
L 411.889823 252.393848 
L 412.464279 252.030454 
L 413.613193 250.780466 
L 414.18765 250.438656 
L 414.762106 250.270609 
L 415.336563 250.385038 
L 416.485477 252.328686 
L 417.63439 256.089379 
L 418.783304 258.896202 
L 419.357761 259.635709 
L 419.932217 259.657889 
L 420.506674 258.641413 
L 421.081131 257.915058 
L 423.378958 253.607893 
L 424.527871 252.14626 
L 426.251242 250.674476 
L 426.825698 250.166199 
L 428.549069 249.249022 
L 429.123525 248.794562 
L 430.272439 247.744481 
L 430.846896 246.794951 
L 431.995809 245.834701 
L 433.71918 244.244892 
L 435.44255 241.910349 
L 436.017007 241.081863 
L 436.591463 239.992381 
L 437.740377 238.184217 
L 440.038204 234.487981 
L 441.761574 232.470739 
L 442.336031 231.959549 
L 443.484945 231.308246 
L 444.059401 231.140966 
L 444.633858 230.711574 
L 445.208315 230.607545 
L 445.782772 230.665736 
L 446.357228 231.122519 
L 446.931685 232.249382 
L 447.506142 232.470899 
L 448.080599 234.53246 
L 448.655055 236.001229 
L 449.229512 238.789962 
L 449.803969 242.457678 
L 450.952882 252.457265 
L 453.25071 275.687658 
L 453.825166 279.705614 
L 454.399623 282.044768 
L 454.97408 282.631684 
L 455.548537 281.937384 
L 456.122993 280.1386 
L 458.42082 271.757991 
L 458.995277 270.919596 
L 459.569734 269.729053 
L 460.144191 269.032294 
L 461.867561 265.046758 
L 463.590931 260.421295 
L 464.165388 259.38367 
L 464.739845 258.784262 
L 465.314302 258.490684 
L 465.888758 258.460529 
L 466.463215 258.565192 
L 467.037672 258.851318 
L 467.612129 259.377411 
L 468.186585 259.13534 
L 468.761042 259.190769 
L 469.335499 258.97044 
L 470.484412 258.261462 
L 471.058869 257.369994 
L 471.633326 256.824784 
L 473.356696 253.917098 
L 473.931153 253.347238 
L 474.50561 252.480695 
L 475.080067 252.198342 
L 475.654523 252.248328 
L 476.22898 252.866351 
L 476.803437 253.984611 
L 477.377894 255.355276 
L 477.95235 257.8653 
L 479.101264 261.334403 
L 479.675721 262.276219 
L 480.824634 261.284529 
L 481.399091 261.280619 
L 484.271375 254.662211 
L 485.420288 253.128198 
L 485.994745 252.838124 
L 486.569202 252.08074 
L 488.292572 251.348148 
L 488.867029 250.769597 
L 489.441486 250.495828 
L 490.015942 249.868243 
L 490.590399 249.74686 
L 491.739313 248.663693 
L 492.888226 247.531381 
L 495.186053 244.943677 
L 496.334967 243.345558 
L 498.058337 240.622256 
L 499.781707 237.793878 
L 501.505078 235.154655 
L 502.653991 233.652933 
L 503.802905 232.591116 
L 504.377361 232.251204 
L 504.951818 231.630097 
L 504.951818 231.630097 
" clip-path="url(#p5b8bc26166)" style="fill: none; stroke: #111111; stroke-width: 0.9; stroke-linecap: round"/>
   </g>
   <g id="line2d_113">
    <path d="M 387.188182 284.888942 
L 387.762639 283.557766 
L 388.337095 283.371646 
L 388.911552 284.010076 
L 389.486009 286.314821 
L 390.634922 294.121381 
L 392.358293 308.79221 
L 393.507206 315.038455 
L 394.081663 314.745697 
L 394.65612 313.754868 
L 395.230576 311.367646 
L 396.37949 303.460557 
L 398.10286 290.756755 
L 399.826231 282.32369 
L 400.400687 279.905435 
L 402.124058 276.185952 
L 403.272971 276.386651 
L 403.847428 276.403826 
L 404.996341 277.024489 
L 405.570798 277.501538 
L 406.145255 278.209582 
L 407.868625 281.619725 
L 409.591996 286.200611 
L 410.740909 288.553679 
L 411.315366 289.22309 
L 411.889823 289.668304 
L 412.464279 289.66136 
L 413.038736 289.969364 
L 413.613193 290.437219 
L 414.762106 290.609449 
L 415.336563 290.940868 
L 415.91102 291.951422 
L 417.63439 295.900302 
L 418.208847 296.608471 
L 418.783304 296.278649 
L 419.357761 295.422 
L 420.506674 291.561245 
L 422.230044 285.216716 
L 423.378958 281.747473 
L 424.527871 279.364402 
L 425.102328 278.365644 
L 426.251242 277.631876 
L 426.825698 277.167251 
L 429.697982 275.905405 
L 430.846896 275.588376 
L 431.421353 274.951222 
L 431.995809 274.501839 
L 432.570266 274.436979 
L 433.71918 273.961109 
L 434.868093 273.917602 
L 435.44255 273.677921 
L 436.017007 273.113297 
L 436.591463 272.383749 
L 437.740377 270.467452 
L 439.463747 267.302925 
L 440.612661 265.122471 
L 441.187118 263.679503 
L 442.336031 259.682804 
L 443.484945 254.839558 
L 444.059401 253.006615 
L 445.208315 250.4743 
L 445.782772 251.38102 
L 446.357228 252.761711 
L 446.931685 255.090743 
L 448.080599 262.415389 
L 450.378426 281.414085 
L 450.952882 285.135452 
L 451.527339 285.933266 
L 452.101796 286.016133 
L 452.676253 284.667273 
L 454.399623 278.657242 
L 454.97408 277.82757 
L 455.548537 278.28175 
L 456.122993 279.57808 
L 457.846364 284.442261 
L 458.42082 285.357151 
L 458.995277 285.384699 
L 459.569734 284.961882 
L 460.718647 282.910274 
L 461.293104 282.516067 
L 462.442018 281.232291 
L 463.590931 279.160224 
L 464.165388 278.281801 
L 465.314302 275.787986 
L 465.888758 275.624065 
L 466.463215 275.343012 
L 467.037672 274.816296 
L 467.612129 274.973846 
L 468.186585 275.478693 
L 468.761042 275.345035 
L 469.335499 275.518118 
L 470.484412 277.018343 
L 471.058869 277.667545 
L 471.633326 279.06567 
L 472.207783 280.00629 
L 473.356696 280.107738 
L 475.080067 280.533744 
L 475.654523 280.534218 
L 476.803437 280.975066 
L 477.95235 282.664801 
L 478.526807 283.272399 
L 480.250177 286.166938 
L 480.824634 286.713516 
L 481.399091 286.892491 
L 481.973548 286.568227 
L 482.548004 285.988546 
L 484.845831 280.562165 
L 485.994745 277.594805 
L 487.143659 275.326197 
L 488.292572 273.947753 
L 489.441486 273.097912 
L 490.590399 272.821533 
L 491.164856 272.627201 
L 491.739313 271.717385 
L 492.313769 271.202629 
L 492.888226 271.494818 
L 493.462683 271.538087 
L 494.03714 271.455019 
L 495.186053 271.712396 
L 495.76051 271.626217 
L 496.909424 271.096931 
L 497.48388 270.533455 
L 498.058337 269.678619 
L 499.207251 266.497525 
L 499.781707 264.61288 
L 503.228448 250.11946 
L 504.377361 246.602797 
L 504.951818 245.356938 
L 504.951818 245.356938 
" clip-path="url(#p5b8bc26166)" style="fill: none; stroke: #d55e00; stroke-width: 0.9; stroke-linecap: round"/>
   </g>
   <g id="line2d_114">
    <path d="M 387.188182 264.209498 
L 387.762639 262.745804 
L 388.337095 264.850458 
L 391.209379 278.526275 
L 391.783836 279.881042 
L 392.358293 280.869122 
L 392.932749 281.067738 
L 393.507206 280.910391 
L 394.081663 280.292392 
L 395.230576 278.475756 
L 398.10286 272.033102 
L 398.677317 271.303705 
L 399.251774 270.892584 
L 399.826231 270.965294 
L 400.400687 271.691485 
L 400.975144 272.707969 
L 402.698514 278.365164 
L 405.570798 289.382918 
L 406.719712 292.615232 
L 407.868625 294.8387 
L 408.443082 295.35175 
L 409.017539 295.470727 
L 409.591996 295.391187 
L 410.166452 295.438633 
L 410.740909 295.280129 
L 411.315366 294.678908 
L 412.464279 294.066338 
L 413.613193 294.387488 
L 414.762106 295.135392 
L 415.91102 295.524645 
L 416.485477 295.508257 
L 417.059933 295.033184 
L 417.63439 294.256754 
L 418.208847 293.284639 
L 419.357761 289.181111 
L 420.506674 284.734606 
L 421.655588 280.961889 
L 423.378958 275.997763 
L 424.527871 273.607819 
L 425.676785 271.136626 
L 427.400155 267.741918 
L 427.974612 266.657419 
L 429.123525 265.007862 
L 430.272439 263.094706 
L 431.421353 261.508555 
L 434.868093 257.032535 
L 436.591463 254.310125 
L 437.740377 250.783731 
L 440.612661 243.993105 
L 442.336031 241.13364 
L 442.910488 240.572891 
L 443.484945 240.231025 
L 444.059401 240.178954 
L 444.633858 241.390889 
L 446.931685 247.888907 
L 448.080599 253.358675 
L 449.229512 259.659768 
L 449.803969 261.661157 
L 450.378426 261.832492 
L 450.952882 261.464255 
L 451.527339 264.907785 
L 452.101796 269.209837 
L 453.825166 285.591713 
L 454.399623 287.820567 
L 454.97408 289.576081 
L 455.548537 290.4606 
L 456.122993 290.519716 
L 456.69745 290.185421 
L 457.846364 288.359518 
L 458.42082 287.138817 
L 459.569734 283.610133 
L 461.293104 276.610617 
L 461.867561 274.941533 
L 462.442018 273.614704 
L 463.016475 272.571532 
L 463.590931 271.788018 
L 464.165388 271.605948 
L 464.739845 271.938965 
L 465.314302 272.587278 
L 467.037672 278.385305 
L 469.909956 288.166097 
L 471.058869 290.669625 
L 472.207783 291.590789 
L 472.782239 291.915792 
L 473.356696 292.05187 
L 474.50561 291.938811 
L 475.080067 291.88736 
L 475.654523 292.060219 
L 476.22898 292.494828 
L 476.803437 293.15053 
L 477.95235 295.036733 
L 478.526807 295.375578 
L 479.101264 295.105649 
L 480.250177 293.343207 
L 480.824634 292.195451 
L 482.548004 285.757162 
L 483.696918 281.233411 
L 486.569202 272.546459 
L 487.718115 269.497077 
L 488.292572 268.23655 
L 490.015942 265.182696 
L 492.888226 259.901526 
L 494.611596 257.221701 
L 498.058337 252.56925 
L 499.207251 250.539713 
L 502.653991 243.258586 
L 503.802905 240.959797 
L 504.951818 239.771684 
L 504.951818 239.771684 
" clip-path="url(#p5b8bc26166)" style="fill: none; stroke: #0072b2; stroke-width: 0.9; stroke-linecap: round"/>
   </g>
   <g id="patch_18">
    <path d="M 381.3 319.26 
L 381.3 226.386 
" style="fill: none; stroke: #111111; stroke-width: 0.75; stroke-linejoin: miter; stroke-linecap: square"/>
   </g>
   <g id="patch_19">
    <path d="M 381.3 319.26 
L 510.84 319.26 
" style="fill: none; stroke: #111111; stroke-width: 0.75; stroke-linejoin: miter; stroke-linecap: square"/>
   </g>
   <g id="text_63">
    <text style="font-size: 7.5px; font-family: 'DejaVu Sans', 'Arial', 'Liberation Sans', 'Bitstream Vera Sans', sans-serif; fill: #262626" transform="translate(418.59832 211.987641)">Ankle flexion L</text>
    <text style="font-size: 7.5px; font-family: 'DejaVu Sans', 'Arial', 'Liberation Sans', 'Bitstream Vera Sans', sans-serif; fill: #262626" transform="translate(384.006328 220.386)">FM 13.8°/r 0.70 · OC 16.2°/r 0.79</text>
   </g>
  </g>
  <g id="text_64">
   <text style="font-weight: 700; font-size: 9.5px; font-family: 'DejaVu Sans', 'Arial', 'Liberation Sans', 'Bitstream Vera Sans', sans-serif; text-anchor: middle; fill: #262626" x="259.2" y="19.566516" transform="rotate(-0 259.2 19.566516)">S18_Walk_1</text>
  </g>
  <g id="legend_1">
   <g id="line2d_115">
    <path d="M 162.946172 44.448906 
L 169.946172 44.448906 
L 176.946172 44.448906 
" style="fill: none; stroke: #111111; stroke-width: 0.9; stroke-linecap: round"/>
   </g>
   <g id="text_65">
    <text style="font-size: 7px; font-family: 'DejaVu Sans', 'Arial', 'Liberation Sans', 'Bitstream Vera Sans', sans-serif; text-anchor: start; fill: #262626" x="182.546172" y="46.898906" transform="rotate(-0 182.546172 46.898906)">Marker-based</text>
   </g>
   <g id="line2d_116">
    <path d="M 243.948203 44.448906 
L 250.948203 44.448906 
L 257.948203 44.448906 
" style="fill: none; stroke: #d55e00; stroke-width: 0.9; stroke-linecap: round"/>
   </g>
   <g id="text_66">
    <text style="font-size: 7px; font-family: 'DejaVu Sans', 'Arial', 'Liberation Sans', 'Bitstream Vera Sans', sans-serif; text-anchor: start; fill: #262626" x="263.548203" y="46.898906" transform="rotate(-0 263.548203 46.898906)">OpenCap</text>
   </g>
   <g id="line2d_117">
    <path d="M 309.867422 44.448906 
L 316.867422 44.448906 
L 323.867422 44.448906 
" style="fill: none; stroke: #0072b2; stroke-width: 0.9; stroke-linecap: round"/>
   </g>
   <g id="text_67">
    <text style="font-size: 7px; font-family: 'DejaVu Sans', 'Arial', 'Liberation Sans', 'Bitstream Vera Sans', sans-serif; text-anchor: start; fill: #262626" x="329.467422" y="46.898906" transform="rotate(-0 329.467422 46.898906)">FootMR</text>
   </g>
  </g>
 </g>
 <defs>
  <clipPath id="pc16cccde22">
   <rect x="40.74" y="101.04" width="129.54" height="92.874"/>
  </clipPath>
  <clipPath id="p332171c3ff">
   <rect x="211.02" y="101.04" width="129.54" height="92.874"/>
  </clipPath>
  <clipPath id="p6d6f19c014">
   <rect x="381.3" y="101.04" width="129.54" height="92.874"/>
  </clipPath>
  <clipPath id="p33de016099">
   <rect x="40.74" y="226.386" width="129.54" height="92.874"/>
  </clipPath>
  <clipPath id="p4e6447a15e">
   <rect x="211.02" y="226.386" width="129.54" height="92.874"/>
  </clipPath>
  <clipPath id="p5b8bc26166">
   <rect x="381.3" y="226.386" width="129.54" height="92.874"/>
  </clipPath>
 </defs>
</svg>
