<?xml version="1.0" encoding="utf-8" standalone="no"?>
<!DOCTYPE svg PUBLIC "-//W3C//DTD SVG 1.1//EN"
  "http://www.w3.org/Graphics/SVG/1.1/DTD/svg11.dtd">
<svg xmlns:xlink="http://www.w3.org/1999/xlink" width="518.4pt" height="352.8pt" viewBox="0 0 518.4 352.8" xmlns="http://www.w3.org/2000/svg" version="1.1">
 <metadata>
  <rdf:RDF xmlns:dc="http://purl.org/dc/elements/1.1/" xmlns:cc="http://creativecommons.org/ns#" xmlns:rdf="http://www.w3.org/1999/02/22-rdf-syntax-ns#">
   <cc:Work>
    <dc:type rdf:resource="http://purl.org/dc/dcmitype/StillImage"/>
    <dc:date>2026-06-18T16:50:08.332187</dc:date>
    <dc:format>image/svg+xml</dc:format>
    <dc:creator>
     <cc:Agent>
      <dc:title>Matplotlib v3.10.8, https://matplotlib.org/</dc:title>
     </cc:Agent>
    </dc:creator>
   </cc:Work>
  </rdf:RDF>
 </metadata>
 <defs>
  <style type="text/css">*{stroke-linejoin: round; stroke-linecap: butt}</style>
 </defs>
 <g id="figure_1">
  <g id="patch_1">
   <path d="M 0 352.8 
L 518.4 352.8 
L 518.4 0 
L 0 0 
z
" style="fill: #ffffff"/>
  </g>
  <g id="axes_1">
   <g id="patch_2">
    <path d="M 40.74 193.914 
L 170.28 193.914 
L 170.28 101.04 
L 40.74 101.04 
z
" style="fill: #ffffff"/>
   </g>
   <g id="matplotlib.axis_1">
    <g id="xtick_1">
     <g id="line2d_1">
      <defs>
       <path id="m060bedcf3d" d="M 0 0 
L 0 4.8 
" style="stroke: #555555"/>
      </defs>
      <g>
       <use xlink:href="#m060bedcf3d" x="46.628182" y="193.914" style="fill: #555555; stroke: #555555"/>
      </g>
     </g>
    </g>
    <g id="xtick_2">
     <g id="line2d_2">
      <g>
       <use xlink:href="#m060bedcf3d" x="85.36622" y="193.914" style="fill: #555555; stroke: #555555"/>
      </g>
     </g>
    </g>
    <g id="xtick_3">
     <g id="line2d_3">
      <g>
       <use xlink:href="#m060bedcf3d" x="124.104258" y="193.914" style="fill: #555555; stroke: #555555"/>
      </g>
     </g>
    </g>
    <g id="xtick_4">
     <g id="line2d_4">
      <g>
       <use xlink:href="#m060bedcf3d" x="162.842297" y="193.914" style="fill: #555555; stroke: #555555"/>
      </g>
     </g>
    </g>
   </g>
   <g id="matplotlib.axis_2">
    <g id="ytick_1">
     <g id="line2d_5">
      <path d="M 40.74 192.679616 
L 170.28 192.679616 
" clip-path="url(#p5a5703c647)" style="fill: none; stroke: #e8e8e8; stroke-opacity: 0.55; stroke-width: 0.35; stroke-linecap: round"/>
     </g>
     <g id="line2d_6">
      <defs>
       <path id="m10482367ac" d="M 0 0 
L -4.8 0 
" style="stroke: #555555"/>
      </defs>
      <g>
       <use xlink:href="#m10482367ac" x="40.74" y="192.679616" style="fill: #555555; stroke: #555555"/>
      </g>
     </g>
     <g id="text_1">
      <text style="font-size: 6.5px; font-family: 'DejaVu Sans', 'Arial', 'Liberation Sans', 'Bitstream Vera Sans', sans-serif; text-anchor: end; fill: #555555" x="32.44" y="195.149109" transform="rotate(-0 32.44 195.149109)">−30</text>
     </g>
    </g>
    <g id="ytick_2">
     <g id="line2d_7">
      <path d="M 40.74 178.137451 
L 170.28 178.137451 
" clip-path="url(#p5a5703c647)" style="fill: none; stroke: #e8e8e8; stroke-opacity: 0.55; stroke-width: 0.35; stroke-linecap: round"/>
     </g>
     <g id="line2d_8">
      <g>
       <use xlink:href="#m10482367ac" x="40.74" y="178.137451" style="fill: #555555; stroke: #555555"/>
      </g>
     </g>
     <g id="text_2">
      <text style="font-size: 6.5px; font-family: 'DejaVu Sans', 'Arial', 'Liberation Sans', 'Bitstream Vera Sans', sans-serif; text-anchor: end; fill: #555555" x="32.44" y="180.606943" transform="rotate(-0 32.44 180.606943)">−20</text>
     </g>
    </g>
    <g id="ytick_3">
     <g id="line2d_9">
      <path d="M 40.74 163.595286 
L 170.28 163.595286 
" clip-path="url(#p5a5703c647)" style="fill: none; stroke: #e8e8e8; stroke-opacity: 0.55; stroke-width: 0.35; stroke-linecap: round"/>
     </g>
     <g id="line2d_10">
      <g>
       <use xlink:href="#m10482367ac" x="40.74" y="163.595286" style="fill: #555555; stroke: #555555"/>
      </g>
     </g>
     <g id="text_3">
      <text style="font-size: 6.5px; font-family: 'DejaVu Sans', 'Arial', 'Liberation Sans', 'Bitstream Vera Sans', sans-serif; text-anchor: end; fill: #555555" x="32.44" y="166.064778" transform="rotate(-0 32.44 166.064778)">−10</text>
     </g>
    </g>
    <g id="ytick_4">
     <g id="line2d_11">
      <path d="M 40.74 149.053121 
L 170.28 149.053121 
" clip-path="url(#p5a5703c647)" style="fill: none; stroke: #e8e8e8; stroke-opacity: 0.55; stroke-width: 0.35; stroke-linecap: round"/>
     </g>
     <g id="line2d_12">
      <g>
       <use xlink:href="#m10482367ac" x="40.74" y="149.053121" style="fill: #555555; stroke: #555555"/>
      </g>
     </g>
     <g id="text_4">
      <text style="font-size: 6.5px; font-family: 'DejaVu Sans', 'Arial', 'Liberation Sans', 'Bitstream Vera Sans', sans-serif; text-anchor: end; fill: #555555" x="32.44" y="151.522613" transform="rotate(-0 32.44 151.522613)">0</text>
     </g>
    </g>
    <g id="ytick_5">
     <g id="line2d_13">
      <path d="M 40.74 134.510956 
L 170.28 134.510956 
" clip-path="url(#p5a5703c647)" style="fill: none; stroke: #e8e8e8; stroke-opacity: 0.55; stroke-width: 0.35; stroke-linecap: round"/>
     </g>
     <g id="line2d_14">
      <g>
       <use xlink:href="#m10482367ac" x="40.74" y="134.510956" style="fill: #555555; stroke: #555555"/>
      </g>
     </g>
     <g id="text_5">
      <text style="font-size: 6.5px; font-family: 'DejaVu Sans', 'Arial', 'Liberation Sans', 'Bitstream Vera Sans', sans-serif; text-anchor: end; fill: #555555" x="32.44" y="136.980448" transform="rotate(-0 32.44 136.980448)">10</text>
     </g>
    </g>
    <g id="ytick_6">
     <g id="line2d_15">
      <path d="M 40.74 119.968791 
L 170.28 119.968791 
" clip-path="url(#p5a5703c647)" style="fill: none; stroke: #e8e8e8; stroke-opacity: 0.55; stroke-width: 0.35; stroke-linecap: round"/>
     </g>
     <g id="line2d_16">
      <g>
       <use xlink:href="#m10482367ac" x="40.74" y="119.968791" style="fill: #555555; stroke: #555555"/>
      </g>
     </g>
     <g id="text_6">
      <text style="font-size: 6.5px; font-family: 'DejaVu Sans', 'Arial', 'Liberation Sans', 'Bitstream Vera Sans', sans-serif; text-anchor: end; fill: #555555" x="32.44" y="122.438283" transform="rotate(-0 32.44 122.438283)">20</text>
     </g>
    </g>
    <g id="ytick_7">
     <g id="line2d_17">
      <path d="M 40.74 105.426626 
L 170.28 105.426626 
" clip-path="url(#p5a5703c647)" style="fill: none; stroke: #e8e8e8; stroke-opacity: 0.55; stroke-width: 0.35; stroke-linecap: round"/>
     </g>
     <g id="line2d_18">
      <g>
       <use xlink:href="#m10482367ac" x="40.74" y="105.426626" style="fill: #555555; stroke: #555555"/>
      </g>
     </g>
     <g id="text_7">
      <text style="font-size: 6.5px; font-family: 'DejaVu Sans', 'Arial', 'Liberation Sans', 'Bitstream Vera Sans', sans-serif; text-anchor: end; fill: #555555" x="32.44" y="107.896118" transform="rotate(-0 32.44 107.896118)">30</text>
     </g>
    </g>
    <g id="text_8">
     <text style="font-size: 7px; font-family: 'DejaVu Sans', 'Arial', 'Liberation Sans', 'Bitstream Vera Sans', sans-serif; text-anchor: middle; fill: #111111" x="13.266172" y="147.477" transform="rotate(-90 13.266172 147.477)">deg</text>
    </g>
   </g>
   <g id="line2d_19">
    <path d="M 46.628182 169.052978 
L 47.402943 169.223246 
L 48.177703 169.791943 
L 48.952464 170.023629 
L 50.501986 171.985101 
L 51.276746 172.320337 
L 52.051507 173.533362 
L 52.826268 174.267562 
L 53.601029 174.338508 
L 54.375789 176.073886 
L 55.925311 178.021862 
L 56.700072 177.996949 
L 57.474833 179.967788 
L 59.024354 181.696705 
L 59.799115 182.242006 
L 61.348636 183.767357 
L 62.123397 184.510324 
L 63.672919 186.346714 
L 64.447679 186.914815 
L 65.22244 187.309651 
L 65.997201 186.910704 
L 66.771962 187.33528 
L 67.546722 187.61581 
L 68.321483 187.629697 
L 69.096244 185.585868 
L 69.871005 185.438747 
L 74.519569 171.976073 
L 75.29433 168.270705 
L 76.843852 163.520993 
L 78.393373 159.16001 
L 83.041938 146.604454 
L 86.140981 138.835871 
L 87.690502 135.596655 
L 88.465263 133.960985 
L 89.240024 133.13429 
L 90.789545 130.176077 
L 91.564306 128.840216 
L 92.339067 128.847564 
L 93.113828 128.079789 
L 93.888589 126.960335 
L 94.663349 127.298477 
L 95.43811 126.501994 
L 96.212871 126.821752 
L 96.987632 126.429111 
L 98.537153 126.416116 
L 99.311914 127.361873 
L 100.861435 127.554268 
L 101.636196 128.743446 
L 103.960478 129.880122 
L 104.735239 130.395698 
L 107.834282 130.139141 
L 108.609043 130.284669 
L 109.383804 130.681482 
L 110.158565 131.611833 
L 110.933325 132.78695 
L 112.482847 136.027753 
L 114.807129 141.597877 
L 115.58189 142.317193 
L 116.356651 144.065222 
L 117.131411 146.102954 
L 117.906172 147.422874 
L 119.455694 152.291129 
L 120.230455 154.205834 
L 121.779976 158.708342 
L 122.554737 160.670002 
L 124.104258 163.773329 
L 124.879019 165.149259 
L 125.65378 166.298181 
L 127.203301 167.91913 
L 129.527584 169.854528 
L 131.851866 171.27998 
L 132.626627 171.965987 
L 133.401388 172.860498 
L 134.176148 173.121569 
L 134.950909 173.76603 
L 135.72567 173.902841 
L 136.500431 174.529981 
L 137.275191 174.94152 
L 138.049952 175.781787 
L 138.824713 177.011739 
L 140.374234 178.588735 
L 141.148995 178.613674 
L 141.923756 180.572294 
L 142.698517 181.363636 
L 144.248038 183.480106 
L 145.022799 184.216047 
L 145.79756 185.186338 
L 146.572321 185.586469 
L 147.347081 186.185641 
L 149.671364 188.32114 
L 150.446124 188.467616 
L 151.220885 189.012036 
L 151.995646 189.098115 
L 152.770407 189.500663 
L 153.545167 189.692455 
L 154.319928 188.815036 
L 155.094689 188.321961 
L 155.86945 187.420921 
L 156.644211 186.163807 
L 158.193732 181.662859 
L 160.518014 173.126672 
L 162.067536 167.292765 
L 163.617057 161.928983 
L 164.391818 159.351602 
L 164.391818 159.351602 
" clip-path="url(#p5a5703c647)" style="fill: none; stroke: #111111; stroke-width: 0.9; stroke-linecap: round"/>
   </g>
   <g id="line2d_20">
    <path d="M 46.628182 155.756103 
L 49.727225 158.346311 
L 50.501986 158.925971 
L 52.051507 159.727648 
L 53.601029 160.472002 
L 54.375789 161.019833 
L 55.925311 162.676375 
L 57.474833 164.453681 
L 58.249593 165.173693 
L 59.799115 166.174992 
L 61.348636 166.414065 
L 62.898158 167.175267 
L 64.447679 168.186393 
L 65.22244 168.836501 
L 65.997201 169.672652 
L 66.771962 170.138714 
L 67.546722 170.421481 
L 68.321483 170.401401 
L 69.096244 170.133472 
L 70.645766 168.524171 
L 71.420526 167.619075 
L 73.744809 160.821179 
L 76.843852 151.448809 
L 81.492416 137.314298 
L 85.36622 126.607136 
L 86.915742 122.142147 
L 88.465263 118.61592 
L 89.240024 117.366392 
L 90.789545 115.507438 
L 93.888589 111.867363 
L 94.663349 110.772819 
L 96.212871 109.02462 
L 96.987632 108.273385 
L 98.537153 107.365282 
L 100.861435 107.734368 
L 101.636196 108.470307 
L 102.410957 109.490811 
L 104.735239 111.155362 
L 105.51 112.099087 
L 106.284761 113.234448 
L 107.059522 113.82352 
L 107.834282 114.592881 
L 108.609043 115.717463 
L 110.933325 118.36562 
L 112.482847 120.446193 
L 114.032368 122.965686 
L 118.680933 132.384768 
L 121.005215 137.376299 
L 122.554737 141.055696 
L 125.65378 148.425534 
L 130.302344 159.900712 
L 131.851866 163.021274 
L 133.401388 165.435805 
L 134.950909 166.839501 
L 135.72567 167.210448 
L 137.275191 167.499624 
L 139.599474 167.515444 
L 140.374234 167.768877 
L 141.148995 168.140792 
L 141.923756 168.850341 
L 142.698517 169.794023 
L 144.248038 172.749222 
L 145.022799 174.369434 
L 146.572321 176.523641 
L 150.446124 179.825744 
L 151.220885 180.680893 
L 151.995646 181.088617 
L 152.770407 181.274231 
L 154.319928 180.646612 
L 155.094689 180.435293 
L 155.86945 179.483399 
L 156.644211 178.165095 
L 157.418971 176.353073 
L 158.193732 174.244975 
L 158.968493 171.553529 
L 160.518014 165.145131 
L 164.391818 148.15713 
L 164.391818 148.15713 
" clip-path="url(#p5a5703c647)" style="fill: none; stroke: #d55e00; stroke-width: 0.9; stroke-linecap: round"/>
   </g>
   <g id="line2d_21">
    <path d="M 46.628182 153.591413 
L 47.402943 154.504117 
L 48.177703 155.694586 
L 48.952464 157.416395 
L 49.727225 158.523244 
L 50.501986 159.345662 
L 52.051507 162.718986 
L 59.024354 175.071974 
L 62.898158 180.506532 
L 64.447679 182.197242 
L 65.997201 183.661747 
L 67.546722 184.631452 
L 68.321483 185.273984 
L 69.871005 185.996929 
L 70.645766 185.754214 
L 71.420526 185.236172 
L 72.195287 184.191459 
L 73.744809 180.90664 
L 75.29433 175.85465 
L 76.843852 169.67445 
L 79.168134 159.026275 
L 81.492416 147.214818 
L 83.041938 138.620218 
L 83.816699 134.72179 
L 87.690502 118.237159 
L 88.465263 116.146242 
L 90.014785 112.864251 
L 90.789545 111.491685 
L 91.564306 110.592534 
L 93.113828 107.883262 
L 93.888589 108.00268 
L 94.663349 107.876448 
L 95.43811 107.280308 
L 96.987632 106.443294 
L 98.537153 105.82073 
L 99.311914 105.261545 
L 100.086675 105.434301 
L 100.861435 105.951809 
L 102.410957 106.053945 
L 103.185718 106.213069 
L 104.735239 106.21626 
L 106.284761 106.665056 
L 107.059522 106.761268 
L 108.609043 107.480165 
L 110.158565 108.330493 
L 110.933325 108.874016 
L 111.708086 108.916931 
L 112.482847 108.728325 
L 114.807129 110.458452 
L 115.58189 111.446942 
L 116.356651 112.624816 
L 117.131411 113.534684 
L 117.906172 114.834077 
L 118.680933 116.878595 
L 119.455694 117.8498 
L 120.230455 118.318876 
L 121.779976 121.479564 
L 122.554737 123.33159 
L 124.104258 127.906301 
L 125.65378 130.469825 
L 127.203301 133.971538 
L 128.752823 137.928631 
L 130.302344 142.300913 
L 132.626627 149.654534 
L 133.401388 151.52831 
L 134.176148 152.887002 
L 134.950909 155.151746 
L 135.72567 157.839258 
L 137.275191 161.098077 
L 138.049952 162.45013 
L 139.599474 165.875296 
L 141.148995 168.329281 
L 141.923756 169.813377 
L 143.473278 172.055266 
L 144.248038 172.643844 
L 145.022799 173.614666 
L 145.79756 175.316686 
L 146.572321 176.518368 
L 147.347081 177.478695 
L 148.896603 179.000331 
L 149.671364 179.903185 
L 151.995646 183.638836 
L 153.545167 185.493918 
L 155.094689 186.55298 
L 155.86945 185.964286 
L 156.644211 185.188405 
L 157.418971 184.054451 
L 158.193732 182.389373 
L 158.968493 180.45982 
L 161.292775 171.408127 
L 162.842297 163.739665 
L 164.391818 155.411967 
L 164.391818 155.411967 
" clip-path="url(#p5a5703c647)" style="fill: none; stroke: #0072b2; stroke-width: 0.9; stroke-linecap: round"/>
   </g>
   <g id="patch_3">
    <path d="M 40.74 193.914 
L 40.74 101.04 
" style="fill: none; stroke: #111111; stroke-width: 0.75; stroke-linejoin: miter; stroke-linecap: square"/>
   </g>
   <g id="patch_4">
    <path d="M 40.74 193.914 
L 170.28 193.914 
" style="fill: none; stroke: #111111; stroke-width: 0.75; stroke-linejoin: miter; stroke-linecap: square"/>
   </g>
   <g id="text_9">
    <text style="font-size: 7.5px; font-family: 'DejaVu Sans', 'Arial', 'Liberation Sans', 'Bitstream Vera Sans', sans-serif; fill: #262626" transform="translate(81.742031 86.641641)">Hip flexion R</text>
    <text style="font-size: 7.5px; font-family: 'DejaVu Sans', 'Arial', 'Liberation Sans', 'Bitstream Vera Sans', sans-serif; fill: #262626" transform="translate(45.832266 95.04)">FM 12.5°/r 0.94 · OC 9.8°/r 0.99</text>
   </g>
  </g>
  <g id="axes_2">
   <g id="patch_5">
    <path d="M 211.02 193.914 
L 340.56 193.914 
L 340.56 101.04 
L 211.02 101.04 
z
" style="fill: #ffffff"/>
   </g>
   <g id="matplotlib.axis_3">
    <g id="xtick_5">
     <g id="line2d_22">
      <g>
       <use xlink:href="#m060bedcf3d" x="216.908182" y="193.914" style="fill: #555555; stroke: #555555"/>
      </g>
     </g>
    </g>
    <g id="xtick_6">
     <g id="line2d_23">
      <g>
       <use xlink:href="#m060bedcf3d" x="255.64622" y="193.914" style="fill: #555555; stroke: #555555"/>
      </g>
     </g>
    </g>
    <g id="xtick_7">
     <g id="line2d_24">
      <g>
       <use xlink:href="#m060bedcf3d" x="294.384258" y="193.914" style="fill: #555555; stroke: #555555"/>
      </g>
     </g>
    </g>
    <g id="xtick_8">
     <g id="line2d_25">
      <g>
       <use xlink:href="#m060bedcf3d" x="333.122297" y="193.914" style="fill: #555555; stroke: #555555"/>
      </g>
     </g>
    </g>
   </g>
   <g id="matplotlib.axis_4">
    <g id="ytick_8">
     <g id="line2d_26">
      <path d="M 211.02 190.060988 
L 340.56 190.060988 
" clip-path="url(#p368e7ad030)" style="fill: none; stroke: #e8e8e8; stroke-opacity: 0.55; stroke-width: 0.35; stroke-linecap: round"/>
     </g>
     <g id="line2d_27">
      <g>
       <use xlink:href="#m10482367ac" x="211.02" y="190.060988" style="fill: #555555; stroke: #555555"/>
      </g>
     </g>
     <g id="text_10">
      <text style="font-size: 6.5px; font-family: 'DejaVu Sans', 'Arial', 'Liberation Sans', 'Bitstream Vera Sans', sans-serif; text-anchor: end; fill: #555555" x="202.72" y="192.53048" transform="rotate(-0 202.72 192.53048)">0</text>
     </g>
    </g>
    <g id="ytick_9">
     <g id="line2d_28">
      <path d="M 211.02 166.051518 
L 340.56 166.051518 
" clip-path="url(#p368e7ad030)" style="fill: none; stroke: #e8e8e8; stroke-opacity: 0.55; stroke-width: 0.35; stroke-linecap: round"/>
     </g>
     <g id="line2d_29">
      <g>
       <use xlink:href="#m10482367ac" x="211.02" y="166.051518" style="fill: #555555; stroke: #555555"/>
      </g>
     </g>
     <g id="text_11">
      <text style="font-size: 6.5px; font-family: 'DejaVu Sans', 'Arial', 'Liberation Sans', 'Bitstream Vera Sans', sans-serif; text-anchor: end; fill: #555555" x="202.72" y="168.52101" transform="rotate(-0 202.72 168.52101)">20</text>
     </g>
    </g>
    <g id="ytick_10">
     <g id="line2d_30">
      <path d="M 211.02 142.042048 
L 340.56 142.042048 
" clip-path="url(#p368e7ad030)" style="fill: none; stroke: #e8e8e8; stroke-opacity: 0.55; stroke-width: 0.35; stroke-linecap: round"/>
     </g>
     <g id="line2d_31">
      <g>
       <use xlink:href="#m10482367ac" x="211.02" y="142.042048" style="fill: #555555; stroke: #555555"/>
      </g>
     </g>
     <g id="text_12">
      <text style="font-size: 6.5px; font-family: 'DejaVu Sans', 'Arial', 'Liberation Sans', 'Bitstream Vera Sans', sans-serif; text-anchor: end; fill: #555555" x="202.72" y="144.51154" transform="rotate(-0 202.72 144.51154)">40</text>
     </g>
    </g>
    <g id="ytick_11">
     <g id="line2d_32">
      <path d="M 211.02 118.032577 
L 340.56 118.032577 
" clip-path="url(#p368e7ad030)" style="fill: none; stroke: #e8e8e8; stroke-opacity: 0.55; stroke-width: 0.35; stroke-linecap: round"/>
     </g>
     <g id="line2d_33">
      <g>
       <use xlink:href="#m10482367ac" x="211.02" y="118.032577" style="fill: #555555; stroke: #555555"/>
      </g>
     </g>
     <g id="text_13">
      <text style="font-size: 6.5px; font-family: 'DejaVu Sans', 'Arial', 'Liberation Sans', 'Bitstream Vera Sans', sans-serif; text-anchor: end; fill: #555555" x="202.72" y="120.50207" transform="rotate(-0 202.72 120.50207)">60</text>
     </g>
    </g>
    <g id="text_14">
     <text style="font-size: 7px; font-family: 'DejaVu Sans', 'Arial', 'Liberation Sans', 'Bitstream Vera Sans', sans-serif; text-anchor: middle; fill: #111111" x="188.992969" y="147.477" transform="rotate(-90 188.992969 147.477)">deg</text>
    </g>
   </g>
   <g id="line2d_34">
    <path d="M 216.908182 176.976891 
L 219.232464 176.89176 
L 220.007225 176.861127 
L 220.781986 176.953864 
L 221.556746 176.835619 
L 222.331507 176.976433 
L 223.881029 176.872376 
L 224.655789 177.017056 
L 226.205311 176.990974 
L 226.980072 176.804824 
L 227.754833 176.753353 
L 229.304354 176.066474 
L 230.853876 174.935301 
L 231.628636 174.633751 
L 232.403397 174.167831 
L 233.178158 172.824011 
L 233.952919 171.975806 
L 235.50244 169.615877 
L 237.826722 164.664159 
L 238.601483 162.514933 
L 239.376244 159.3715 
L 240.151005 156.735455 
L 242.475287 144.686938 
L 246.349091 122.948136 
L 247.898612 116.036867 
L 248.673373 113.088335 
L 249.448134 110.639316 
L 250.222895 108.653301 
L 250.997656 107.152463 
L 251.772416 106.101048 
L 252.547177 105.457366 
L 253.321938 105.261545 
L 254.096699 105.443768 
L 254.871459 106.034018 
L 255.64622 106.988576 
L 256.420981 108.248978 
L 257.970502 111.637548 
L 258.745263 113.695118 
L 261.844306 123.91942 
L 263.393828 130.363442 
L 264.168589 133.331004 
L 272.690957 173.624776 
L 274.240478 178.820492 
L 275.015239 180.397017 
L 275.79 180.845666 
L 276.564761 180.60686 
L 278.114282 178.735354 
L 279.663804 176.443095 
L 282.762847 174.118333 
L 285.087129 171.652625 
L 285.86189 170.569438 
L 286.636651 169.972572 
L 288.186172 169.395435 
L 288.960933 169.803798 
L 290.510455 170.921257 
L 293.609498 174.28098 
L 295.93378 176.339951 
L 297.483301 177.244848 
L 299.032823 177.941751 
L 301.357105 178.230282 
L 303.681388 177.948201 
L 305.230909 177.333775 
L 306.00567 177.133781 
L 306.780431 176.630496 
L 307.555191 176.370922 
L 308.329952 176.236752 
L 309.104713 176.38923 
L 313.753278 176.398057 
L 314.528038 176.277866 
L 316.07756 175.719135 
L 317.627081 174.870466 
L 318.401842 173.892154 
L 319.176603 173.572421 
L 321.500885 169.862553 
L 323.050407 166.848616 
L 323.825167 164.973415 
L 325.374689 159.715265 
L 326.924211 152.982721 
L 328.473732 144.40922 
L 331.572775 125.591505 
L 333.122297 117.600878 
L 334.671818 111.346982 
L 334.671818 111.346982 
" clip-path="url(#p368e7ad030)" style="fill: none; stroke: #111111; stroke-width: 0.9; stroke-linecap: round"/>
   </g>
   <g id="line2d_35">
    <path d="M 216.908182 183.53974 
L 218.457703 183.773838 
L 219.232464 184.000262 
L 220.007225 184.04599 
L 221.556746 183.371681 
L 222.331507 182.980771 
L 223.881029 181.994844 
L 224.655789 181.628611 
L 226.205311 181.391372 
L 227.754833 181.314183 
L 228.529593 181.144545 
L 230.079115 180.422404 
L 233.178158 177.726877 
L 235.50244 175.365477 
L 236.277201 174.406881 
L 237.826722 171.927395 
L 239.376244 168.408767 
L 240.151005 166.165462 
L 241.700526 160.388972 
L 244.024809 147.794313 
L 247.123852 130.829442 
L 248.673373 123.42298 
L 249.448134 120.044222 
L 250.997656 115.23006 
L 251.772416 113.528093 
L 252.547177 112.357359 
L 253.321938 111.450466 
L 254.096699 111.19917 
L 254.871459 111.187262 
L 255.64622 111.647011 
L 256.420981 112.657927 
L 257.195742 113.942173 
L 258.745263 117.837655 
L 261.069545 125.466112 
L 264.943349 139.689333 
L 266.492871 145.980267 
L 268.042392 153.39712 
L 271.916196 173.037448 
L 272.690957 176.414174 
L 274.240478 181.542945 
L 275.015239 183.441082 
L 275.79 184.753139 
L 276.564761 185.773268 
L 277.339522 185.817003 
L 278.114282 185.676255 
L 278.889043 185.172029 
L 280.438565 183.34694 
L 282.762847 180.783873 
L 284.312368 179.665023 
L 285.86189 178.622159 
L 286.636651 178.383627 
L 287.411411 178.373562 
L 289.735694 178.730682 
L 290.510455 178.932066 
L 292.059976 179.698754 
L 293.609498 180.626314 
L 295.93378 182.868834 
L 299.032823 186.291041 
L 299.807584 186.995932 
L 301.357105 188.035118 
L 302.131866 188.411916 
L 303.681388 188.666283 
L 305.230909 188.12467 
L 307.555191 186.871076 
L 308.329952 186.830207 
L 309.104713 186.915114 
L 311.428995 187.904653 
L 312.203756 187.960943 
L 312.978517 187.870974 
L 313.753278 187.492839 
L 315.302799 186.304689 
L 316.852321 184.885064 
L 319.951364 182.497644 
L 321.500885 180.87153 
L 323.050407 178.545656 
L 324.599928 175.20508 
L 325.374689 173.212033 
L 326.924211 167.297551 
L 328.473732 158.200191 
L 333.122297 125.946747 
L 334.671818 118.335271 
L 334.671818 118.335271 
" clip-path="url(#p368e7ad030)" style="fill: none; stroke: #d55e00; stroke-width: 0.9; stroke-linecap: round"/>
   </g>
   <g id="line2d_36">
    <path d="M 216.908182 189.1981 
L 220.007225 189.583074 
L 223.881029 189.685328 
L 228.529593 189.636325 
L 232.403397 189.387959 
L 236.277201 189.122892 
L 237.826722 188.928831 
L 238.601483 188.57678 
L 239.376244 187.939362 
L 240.151005 187.157144 
L 240.925766 185.537003 
L 241.700526 183.449406 
L 242.475287 180.467611 
L 244.024809 173.176885 
L 246.349091 158.543082 
L 250.222895 131.536013 
L 251.772416 122.869226 
L 253.321938 116.352887 
L 254.096699 114.024006 
L 254.871459 112.578309 
L 255.64622 111.562506 
L 256.420981 111.333018 
L 257.195742 111.497206 
L 257.970502 112.414459 
L 258.745263 114.220991 
L 259.520024 116.459929 
L 261.069545 122.688084 
L 263.393828 134.083711 
L 265.71811 146.423113 
L 269.591914 165.491777 
L 271.916196 175.951572 
L 273.465718 181.488852 
L 275.015239 185.356424 
L 275.79 186.430973 
L 276.564761 187.203479 
L 277.339522 187.398206 
L 278.114282 187.343914 
L 278.889043 187.163469 
L 281.213325 184.329823 
L 283.537608 179.928588 
L 285.087129 177.454057 
L 286.636651 175.779873 
L 288.186172 174.746543 
L 289.735694 174.325289 
L 290.510455 174.176483 
L 291.285215 174.166009 
L 292.059976 174.357046 
L 292.834737 174.933555 
L 295.159019 177.185906 
L 295.93378 177.846279 
L 297.483301 179.634873 
L 299.032823 181.488088 
L 300.582344 183.256595 
L 302.131866 185.676548 
L 306.00567 188.80156 
L 307.555191 189.227983 
L 309.879474 189.439446 
L 312.203756 189.580864 
L 316.07756 189.620586 
L 320.726124 189.425037 
L 321.500885 189.370953 
L 323.050407 188.765685 
L 323.825167 188.208936 
L 324.599928 187.14073 
L 325.374689 185.817945 
L 326.924211 180.82211 
L 327.698971 177.539161 
L 329.248493 169.037004 
L 334.671818 130.953867 
L 334.671818 130.953867 
" clip-path="url(#p368e7ad030)" style="fill: none; stroke: #0072b2; stroke-width: 0.9; stroke-linecap: round"/>
   </g>
   <g id="patch_6">
    <path d="M 211.02 193.914 
L 211.02 101.04 
" style="fill: none; stroke: #111111; stroke-width: 0.75; stroke-linejoin: miter; stroke-linecap: square"/>
   </g>
   <g id="patch_7">
    <path d="M 211.02 193.914 
L 340.56 193.914 
" style="fill: none; stroke: #111111; stroke-width: 0.75; stroke-linejoin: miter; stroke-linecap: square"/>
   </g>
   <g id="text_15">
    <text style="font-size: 7.5px; font-family: 'DejaVu Sans', 'Arial', 'Liberation Sans', 'Bitstream Vera Sans', sans-serif; fill: #262626" transform="translate(248.814023 86.641641)">Knee flexion R</text>
    <text style="font-size: 7.5px; font-family: 'DejaVu Sans', 'Arial', 'Liberation Sans', 'Bitstream Vera Sans', sans-serif; fill: #262626" transform="translate(216.112266 95.04)">FM 13.8°/r 0.92 · OC 6.9°/r 0.99</text>
   </g>
  </g>
  <g id="axes_3">
   <g id="patch_8">
    <path d="M 381.3 193.914 
L 510.84 193.914 
L 510.84 101.04 
L 381.3 101.04 
z
" style="fill: #ffffff"/>
   </g>
   <g id="matplotlib.axis_5">
    <g id="xtick_9">
     <g id="line2d_37">
      <g>
       <use xlink:href="#m060bedcf3d" x="387.188182" y="193.914" style="fill: #555555; stroke: #555555"/>
      </g>
     </g>
    </g>
    <g id="xtick_10">
     <g id="line2d_38">
      <g>
       <use xlink:href="#m060bedcf3d" x="425.92622" y="193.914" style="fill: #555555; stroke: #555555"/>
      </g>
     </g>
    </g>
    <g id="xtick_11">
     <g id="line2d_39">
      <g>
       <use xlink:href="#m060bedcf3d" x="464.664258" y="193.914" style="fill: #555555; stroke: #555555"/>
      </g>
     </g>
    </g>
    <g id="xtick_12">
     <g id="line2d_40">
      <g>
       <use xlink:href="#m060bedcf3d" x="503.402297" y="193.914" style="fill: #555555; stroke: #555555"/>
      </g>
     </g>
    </g>
   </g>
   <g id="matplotlib.axis_6">
    <g id="ytick_12">
     <g id="line2d_41">
      <path d="M 381.3 181.36292 
L 510.84 181.36292 
" clip-path="url(#p425a381694)" style="fill: none; stroke: #e8e8e8; stroke-opacity: 0.55; stroke-width: 0.35; stroke-linecap: round"/>
     </g>
     <g id="line2d_42">
      <g>
       <use xlink:href="#m10482367ac" x="381.3" y="181.36292" style="fill: #555555; stroke: #555555"/>
      </g>
     </g>
     <g id="text_16">
      <text style="font-size: 6.5px; font-family: 'DejaVu Sans', 'Arial', 'Liberation Sans', 'Bitstream Vera Sans', sans-serif; text-anchor: end; fill: #555555" x="373" y="183.832412" transform="rotate(-0 373 183.832412)">−10</text>
     </g>
    </g>
    <g id="ytick_13">
     <g id="line2d_43">
      <path d="M 381.3 160.930033 
L 510.84 160.930033 
" clip-path="url(#p425a381694)" style="fill: none; stroke: #e8e8e8; stroke-opacity: 0.55; stroke-width: 0.35; stroke-linecap: round"/>
     </g>
     <g id="line2d_44">
      <g>
       <use xlink:href="#m10482367ac" x="381.3" y="160.930033" style="fill: #555555; stroke: #555555"/>
      </g>
     </g>
     <g id="text_17">
      <text style="font-size: 6.5px; font-family: 'DejaVu Sans', 'Arial', 'Liberation Sans', 'Bitstream Vera Sans', sans-serif; text-anchor: end; fill: #555555" x="373" y="163.399525" transform="rotate(-0 373 163.399525)">0</text>
     </g>
    </g>
    <g id="ytick_14">
     <g id="line2d_45">
      <path d="M 381.3 140.497146 
L 510.84 140.497146 
" clip-path="url(#p425a381694)" style="fill: none; stroke: #e8e8e8; stroke-opacity: 0.55; stroke-width: 0.35; stroke-linecap: round"/>
     </g>
     <g id="line2d_46">
      <g>
       <use xlink:href="#m10482367ac" x="381.3" y="140.497146" style="fill: #555555; stroke: #555555"/>
      </g>
     </g>
     <g id="text_18">
      <text style="font-size: 6.5px; font-family: 'DejaVu Sans', 'Arial', 'Liberation Sans', 'Bitstream Vera Sans', sans-serif; text-anchor: end; fill: #555555" x="373" y="142.966638" transform="rotate(-0 373 142.966638)">10</text>
     </g>
    </g>
    <g id="ytick_15">
     <g id="line2d_47">
      <path d="M 381.3 120.064259 
L 510.84 120.064259 
" clip-path="url(#p425a381694)" style="fill: none; stroke: #e8e8e8; stroke-opacity: 0.55; stroke-width: 0.35; stroke-linecap: round"/>
     </g>
     <g id="line2d_48">
      <g>
       <use xlink:href="#m10482367ac" x="381.3" y="120.064259" style="fill: #555555; stroke: #555555"/>
      </g>
     </g>
     <g id="text_19">
      <text style="font-size: 6.5px; font-family: 'DejaVu Sans', 'Arial', 'Liberation Sans', 'Bitstream Vera Sans', sans-serif; text-anchor: end; fill: #555555" x="373" y="122.533751" transform="rotate(-0 373 122.533751)">20</text>
     </g>
    </g>
    <g id="text_20">
     <text style="font-size: 7px; font-family: 'DejaVu Sans', 'Arial', 'Liberation Sans', 'Bitstream Vera Sans', sans-serif; text-anchor: middle; fill: #111111" x="353.826172" y="147.477" transform="rotate(-90 353.826172 147.477)">deg</text>
    </g>
   </g>
   <g id="line2d_49">
    <path d="M 387.188182 137.412939 
L 387.962943 136.571073 
L 388.737703 135.229435 
L 389.512464 134.700627 
L 390.287225 133.867276 
L 395.71055 129.979464 
L 400.359115 125.822919 
L 401.133876 125.296389 
L 402.683397 125.408694 
L 403.458158 124.832327 
L 404.232919 125.13401 
L 405.007679 124.851838 
L 405.78244 125.12076 
L 406.557201 124.881964 
L 407.331962 125.918335 
L 408.881483 129.608815 
L 409.656244 128.203926 
L 410.431005 131.443861 
L 411.205766 131.42683 
L 411.980526 133.675623 
L 412.755287 136.709856 
L 413.530048 140.541821 
L 415.079569 150.214389 
L 416.629091 161.509737 
L 417.403852 166.508588 
L 418.178612 170.647238 
L 418.953373 173.042083 
L 419.728134 174.191748 
L 420.502895 173.533261 
L 421.277656 171.902658 
L 422.827177 167.875254 
L 423.601938 165.150569 
L 424.376699 162.964573 
L 425.151459 161.11942 
L 426.700981 158.397269 
L 427.475742 157.840783 
L 429.025263 155.293606 
L 429.800024 155.003985 
L 430.574785 154.11544 
L 432.124306 153.797428 
L 432.899067 154.28672 
L 433.673828 154.143061 
L 435.223349 154.607056 
L 436.772871 154.65503 
L 438.322392 154.247503 
L 439.871914 153.250586 
L 440.646675 152.666814 
L 441.421435 151.400273 
L 442.196196 150.945097 
L 442.970957 149.993081 
L 443.745718 148.458734 
L 444.520478 147.858527 
L 445.295239 147.74726 
L 446.07 147.473978 
L 446.844761 147.921459 
L 447.619522 148.972461 
L 448.394282 150.606288 
L 449.943804 155.39348 
L 450.718565 158.552397 
L 452.268086 162.535664 
L 453.042847 163.314046 
L 454.592368 162.302752 
L 455.367129 160.289998 
L 456.14189 159.128612 
L 458.466172 153.876876 
L 460.790455 150.508472 
L 461.565215 149.778428 
L 462.339976 148.871153 
L 463.114737 148.284888 
L 463.889498 147.99624 
L 464.664258 147.568591 
L 465.439019 146.959363 
L 466.21378 146.524276 
L 467.763301 145.968835 
L 470.087584 144.764687 
L 470.862344 144.08018 
L 473.961388 142.187842 
L 474.736148 141.347538 
L 476.28567 140.086697 
L 477.060431 138.838142 
L 477.835191 138.133442 
L 478.609952 137.122498 
L 479.384713 136.435031 
L 480.159474 135.569086 
L 481.708995 133.588757 
L 482.483756 132.820385 
L 484.033278 130.950913 
L 486.35756 128.284101 
L 487.132321 127.683573 
L 487.907081 127.555959 
L 488.681842 126.318081 
L 490.231364 126.451177 
L 491.006124 124.573236 
L 491.780885 124.841697 
L 492.555646 124.674749 
L 494.105167 127.261688 
L 494.879928 125.529668 
L 495.654689 126.283131 
L 496.42945 127.326522 
L 497.978971 130.944928 
L 498.753732 133.848811 
L 499.528493 137.698505 
L 501.852775 153.919053 
L 503.402297 165.124706 
L 504.177057 169.311616 
L 504.951818 172.12651 
L 504.951818 172.12651 
" clip-path="url(#p425a381694)" style="fill: none; stroke: #111111; stroke-width: 0.9; stroke-linecap: round"/>
   </g>
   <g id="line2d_50">
    <path d="M 387.188182 147.304933 
L 388.737703 144.233319 
L 389.512464 143.199017 
L 390.287225 141.57389 
L 392.611507 133.51743 
L 394.161029 128.701966 
L 394.935789 126.64508 
L 396.485311 123.457026 
L 398.809593 120.247833 
L 400.359115 118.241837 
L 403.458158 115.414076 
L 404.232919 114.950803 
L 405.78244 115.013361 
L 408.106722 115.518464 
L 408.881483 115.926142 
L 409.656244 116.534874 
L 410.431005 117.539735 
L 411.980526 120.292018 
L 412.755287 122.9602 
L 413.530048 126.042845 
L 414.304809 129.942093 
L 415.85433 140.011257 
L 418.953373 163.108289 
L 419.728134 168.090369 
L 421.277656 175.120094 
L 422.052416 177.33928 
L 422.827177 178.740582 
L 423.601938 179.736756 
L 424.376699 180.047577 
L 425.151459 180.091885 
L 425.92622 179.611091 
L 426.700981 178.511307 
L 427.475742 177.104369 
L 429.800024 171.025217 
L 431.349545 165.142485 
L 432.124306 164.427656 
L 432.899067 163.890647 
L 433.673828 163.703991 
L 434.448589 163.883345 
L 435.223349 164.244398 
L 435.99811 165.032381 
L 436.772871 166.052601 
L 439.097153 170.651642 
L 440.646675 173.908531 
L 441.421435 175.157306 
L 442.196196 174.635876 
L 442.970957 173.246562 
L 443.745718 173.057428 
L 444.520478 173.052249 
L 445.295239 173.409514 
L 446.07 173.161161 
L 446.844761 172.61728 
L 447.619522 172.899976 
L 448.394282 173.697257 
L 449.169043 175.508411 
L 450.718565 178.137128 
L 451.493325 180.55503 
L 452.268086 182.443182 
L 453.042847 183.287584 
L 454.592368 185.79859 
L 456.14189 184.79181 
L 458.466172 182.446381 
L 460.015694 178.464319 
L 461.565215 173.682652 
L 462.339976 171.536919 
L 463.114737 168.940606 
L 463.889498 166.808736 
L 466.988541 161.935903 
L 468.538062 158.841728 
L 470.087584 155.595971 
L 471.637105 153.496274 
L 473.961388 151.631265 
L 474.736148 150.305715 
L 475.510909 148.730347 
L 477.060431 144.307716 
L 478.609952 139.548201 
L 480.159474 135.376251 
L 481.708995 131.472488 
L 482.483756 130.609685 
L 483.258517 130.016793 
L 484.033278 129.9557 
L 485.582799 130.328787 
L 488.681842 132.175273 
L 490.231364 132.477799 
L 491.006124 132.366172 
L 491.780885 131.791413 
L 492.555646 131.467492 
L 493.330407 131.265126 
L 494.105167 130.466488 
L 494.879928 130.071483 
L 497.204211 131.393349 
L 497.978971 133.730527 
L 498.753732 136.594263 
L 499.528493 140.495461 
L 501.078014 150.172433 
L 503.402297 165.689729 
L 504.951818 173.887123 
L 504.951818 173.887123 
" clip-path="url(#p425a381694)" style="fill: none; stroke: #d55e00; stroke-width: 0.9; stroke-linecap: round"/>
   </g>
   <g id="line2d_51">
    <path d="M 387.188182 123.896068 
L 387.962943 123.219297 
L 388.737703 122.311762 
L 389.512464 120.962795 
L 391.836746 117.95651 
L 392.611507 116.880538 
L 394.161029 115.209199 
L 394.935789 114.247889 
L 396.485311 112.740708 
L 401.908636 106.392012 
L 402.683397 105.745591 
L 404.232919 105.261545 
L 405.007679 105.290744 
L 405.78244 105.683398 
L 406.557201 106.255703 
L 408.106722 108.757287 
L 408.881483 110.412501 
L 411.205766 116.953273 
L 412.755287 121.681682 
L 414.304809 128.916735 
L 415.85433 142.729569 
L 416.629091 150.347286 
L 418.178612 161.922016 
L 418.953373 166.55067 
L 419.728134 170.381428 
L 420.502895 172.685887 
L 421.277656 173.909482 
L 422.052416 174.604933 
L 422.827177 174.137045 
L 423.601938 173.366905 
L 424.376699 172.018588 
L 425.151459 170.018409 
L 426.700981 165.235068 
L 429.800024 154.853667 
L 431.349545 151.522094 
L 432.124306 150.417987 
L 432.899067 150.277356 
L 433.673828 150.604619 
L 434.448589 151.682859 
L 435.223349 153.228977 
L 436.772871 158.391485 
L 437.547632 161.251724 
L 441.421435 177.739149 
L 442.970957 183.228982 
L 443.745718 185.701821 
L 444.520478 187.539414 
L 445.295239 189.062967 
L 446.07 189.542554 
L 446.844761 189.692455 
L 447.619522 189.211694 
L 449.169043 188.657117 
L 449.943804 188.796742 
L 450.718565 189.057915 
L 451.493325 189.551598 
L 452.268086 189.686825 
L 453.042847 189.641275 
L 453.817608 188.653039 
L 454.592368 187.141219 
L 455.367129 184.627833 
L 457.691411 173.855618 
L 459.240933 166.832179 
L 460.790455 161.39208 
L 462.339976 156.081403 
L 463.889498 151.220976 
L 464.664258 148.545033 
L 466.21378 146.164724 
L 467.763301 143.529369 
L 470.862344 139.154311 
L 471.637105 138.519811 
L 472.411866 138.030636 
L 475.510909 134.168467 
L 476.28567 133.46742 
L 477.835191 131.206338 
L 481.708995 124.3171 
L 483.258517 121.172 
L 484.808038 118.403879 
L 486.35756 115.704993 
L 487.132321 114.864557 
L 487.907081 114.275243 
L 488.681842 113.397261 
L 489.456603 112.781336 
L 490.231364 112.666703 
L 491.006124 112.934302 
L 491.780885 113.392499 
L 493.330407 115.993711 
L 494.105167 117.546192 
L 497.204211 125.225747 
L 497.978971 128.386533 
L 499.528493 138.03777 
L 500.303254 143.861819 
L 501.078014 148.750729 
L 501.852775 151.850809 
L 504.177057 162.602876 
L 504.951818 165.270016 
L 504.951818 165.270016 
" clip-path="url(#p425a381694)" style="fill: none; stroke: #0072b2; stroke-width: 0.9; stroke-linecap: round"/>
   </g>
   <g id="patch_9">
    <path d="M 381.3 193.914 
L 381.3 101.04 
" style="fill: none; stroke: #111111; stroke-width: 0.75; stroke-linejoin: miter; stroke-linecap: square"/>
   </g>
   <g id="patch_10">
    <path d="M 381.3 193.914 
L 510.84 193.914 
" style="fill: none; stroke: #111111; stroke-width: 0.75; stroke-linejoin: miter; stroke-linecap: square"/>
   </g>
   <g id="text_21">
    <text style="font-size: 7.5px; font-family: 'DejaVu Sans', 'Arial', 'Liberation Sans', 'Bitstream Vera Sans', sans-serif; fill: #262626" transform="translate(418.082109 86.641641)">Ankle flexion R</text>
    <text style="font-size: 7.5px; font-family: 'DejaVu Sans', 'Arial', 'Liberation Sans', 'Bitstream Vera Sans', sans-serif; fill: #262626" transform="translate(388.778203 95.04)">FM 7.8°/r 0.87 · OC 6.9°/r 0.87</text>
   </g>
  </g>
  <g id="axes_4">
   <g id="patch_11">
    <path d="M 40.74 319.26 
L 170.28 319.26 
L 170.28 226.386 
L 40.74 226.386 
z
" style="fill: #ffffff"/>
   </g>
   <g id="matplotlib.axis_7">
    <g id="xtick_13">
     <g id="line2d_52">
      <g>
       <use xlink:href="#m060bedcf3d" x="46.628182" y="319.26" style="fill: #555555; stroke: #555555"/>
      </g>
     </g>
     <g id="text_22">
      <text style="font-size: 6.5px; font-family: 'DejaVu Sans', 'Arial', 'Liberation Sans', 'Bitstream Vera Sans', sans-serif; text-anchor: middle; fill: #555555" x="46.628182" y="332.498984" transform="rotate(-0 46.628182 332.498984)">0.0</text>
     </g>
    </g>
    <g id="xtick_14">
     <g id="line2d_53">
      <g>
       <use xlink:href="#m060bedcf3d" x="85.36622" y="319.26" style="fill: #555555; stroke: #555555"/>
      </g>
     </g>
     <g id="text_23">
      <text style="font-size: 6.5px; font-family: 'DejaVu Sans', 'Arial', 'Liberation Sans', 'Bitstream Vera Sans', sans-serif; text-anchor: middle; fill: #555555" x="85.36622" y="332.498984" transform="rotate(-0 85.36622 332.498984)">0.5</text>
     </g>
    </g>
    <g id="xtick_15">
     <g id="line2d_54">
      <g>
       <use xlink:href="#m060bedcf3d" x="124.104258" y="319.26" style="fill: #555555; stroke: #555555"/>
      </g>
     </g>
     <g id="text_24">
      <text style="font-size: 6.5px; font-family: 'DejaVu Sans', 'Arial', 'Liberation Sans', 'Bitstream Vera Sans', sans-serif; text-anchor: middle; fill: #555555" x="124.104258" y="332.498984" transform="rotate(-0 124.104258 332.498984)">1.0</text>
     </g>
    </g>
    <g id="xtick_16">
     <g id="line2d_55">
      <g>
       <use xlink:href="#m060bedcf3d" x="162.842297" y="319.26" style="fill: #555555; stroke: #555555"/>
      </g>
     </g>
     <g id="text_25">
      <text style="font-size: 6.5px; font-family: 'DejaVu Sans', 'Arial', 'Liberation Sans', 'Bitstream Vera Sans', sans-serif; text-anchor: middle; fill: #555555" x="162.842297" y="332.498984" transform="rotate(-0 162.842297 332.498984)">1.5</text>
     </g>
    </g>
    <g id="text_26">
     <text style="font-size: 7px; font-family: 'DejaVu Sans', 'Arial', 'Liberation Sans', 'Bitstream Vera Sans', sans-serif; text-anchor: middle; fill: #111111" x="105.51" y="343.169688" transform="rotate(-0 105.51 343.169688)">Comparison time (s)</text>
    </g>
   </g>
   <g id="matplotlib.axis_8">
    <g id="ytick_16">
     <g id="line2d_56">
      <path d="M 40.74 316.369377 
L 170.28 316.369377 
" clip-path="url(#pf22983b26b)" style="fill: none; stroke: #e8e8e8; stroke-opacity: 0.55; stroke-width: 0.35; stroke-linecap: round"/>
     </g>
     <g id="line2d_57">
      <g>
       <use xlink:href="#m10482367ac" x="40.74" y="316.369377" style="fill: #555555; stroke: #555555"/>
      </g>
     </g>
     <g id="text_27">
      <text style="font-size: 6.5px; font-family: 'DejaVu Sans', 'Arial', 'Liberation Sans', 'Bitstream Vera Sans', sans-serif; text-anchor: end; fill: #555555" x="32.44" y="318.83887" transform="rotate(-0 32.44 318.83887)">−30</text>
     </g>
    </g>
    <g id="ytick_17">
     <g id="line2d_58">
      <path d="M 40.74 301.820312 
L 170.28 301.820312 
" clip-path="url(#pf22983b26b)" style="fill: none; stroke: #e8e8e8; stroke-opacity: 0.55; stroke-width: 0.35; stroke-linecap: round"/>
     </g>
     <g id="line2d_59">
      <g>
       <use xlink:href="#m10482367ac" x="40.74" y="301.820312" style="fill: #555555; stroke: #555555"/>
      </g>
     </g>
     <g id="text_28">
      <text style="font-size: 6.5px; font-family: 'DejaVu Sans', 'Arial', 'Liberation Sans', 'Bitstream Vera Sans', sans-serif; text-anchor: end; fill: #555555" x="32.44" y="304.289804" transform="rotate(-0 32.44 304.289804)">−20</text>
     </g>
    </g>
    <g id="ytick_18">
     <g id="line2d_60">
      <path d="M 40.74 287.271246 
L 170.28 287.271246 
" clip-path="url(#pf22983b26b)" style="fill: none; stroke: #e8e8e8; stroke-opacity: 0.55; stroke-width: 0.35; stroke-linecap: round"/>
     </g>
     <g id="line2d_61">
      <g>
       <use xlink:href="#m10482367ac" x="40.74" y="287.271246" style="fill: #555555; stroke: #555555"/>
      </g>
     </g>
     <g id="text_29">
      <text style="font-size: 6.5px; font-family: 'DejaVu Sans', 'Arial', 'Liberation Sans', 'Bitstream Vera Sans', sans-serif; text-anchor: end; fill: #555555" x="32.44" y="289.740738" transform="rotate(-0 32.44 289.740738)">−10</text>
     </g>
    </g>
    <g id="ytick_19">
     <g id="line2d_62">
      <path d="M 40.74 272.72218 
L 170.28 272.72218 
" clip-path="url(#pf22983b26b)" style="fill: none; stroke: #e8e8e8; stroke-opacity: 0.55; stroke-width: 0.35; stroke-linecap: round"/>
     </g>
     <g id="line2d_63">
      <g>
       <use xlink:href="#m10482367ac" x="40.74" y="272.72218" style="fill: #555555; stroke: #555555"/>
      </g>
     </g>
     <g id="text_30">
      <text style="font-size: 6.5px; font-family: 'DejaVu Sans', 'Arial', 'Liberation Sans', 'Bitstream Vera Sans', sans-serif; text-anchor: end; fill: #555555" x="32.44" y="275.191672" transform="rotate(-0 32.44 275.191672)">0</text>
     </g>
    </g>
    <g id="ytick_20">
     <g id="line2d_64">
      <path d="M 40.74 258.173114 
L 170.28 258.173114 
" clip-path="url(#pf22983b26b)" style="fill: none; stroke: #e8e8e8; stroke-opacity: 0.55; stroke-width: 0.35; stroke-linecap: round"/>
     </g>
     <g id="line2d_65">
      <g>
       <use xlink:href="#m10482367ac" x="40.74" y="258.173114" style="fill: #555555; stroke: #555555"/>
      </g>
     </g>
     <g id="text_31">
      <text style="font-size: 6.5px; font-family: 'DejaVu Sans', 'Arial', 'Liberation Sans', 'Bitstream Vera Sans', sans-serif; text-anchor: end; fill: #555555" x="32.44" y="260.642606" transform="rotate(-0 32.44 260.642606)">10</text>
     </g>
    </g>
    <g id="ytick_21">
     <g id="line2d_66">
      <path d="M 40.74 243.624048 
L 170.28 243.624048 
" clip-path="url(#pf22983b26b)" style="fill: none; stroke: #e8e8e8; stroke-opacity: 0.55; stroke-width: 0.35; stroke-linecap: round"/>
     </g>
     <g id="line2d_67">
      <g>
       <use xlink:href="#m10482367ac" x="40.74" y="243.624048" style="fill: #555555; stroke: #555555"/>
      </g>
     </g>
     <g id="text_32">
      <text style="font-size: 6.5px; font-family: 'DejaVu Sans', 'Arial', 'Liberation Sans', 'Bitstream Vera Sans', sans-serif; text-anchor: end; fill: #555555" x="32.44" y="246.09354" transform="rotate(-0 32.44 246.09354)">20</text>
     </g>
    </g>
    <g id="ytick_22">
     <g id="line2d_68">
      <path d="M 40.74 229.074982 
L 170.28 229.074982 
" clip-path="url(#pf22983b26b)" style="fill: none; stroke: #e8e8e8; stroke-opacity: 0.55; stroke-width: 0.35; stroke-linecap: round"/>
     </g>
     <g id="line2d_69">
      <g>
       <use xlink:href="#m10482367ac" x="40.74" y="229.074982" style="fill: #555555; stroke: #555555"/>
      </g>
     </g>
     <g id="text_33">
      <text style="font-size: 6.5px; font-family: 'DejaVu Sans', 'Arial', 'Liberation Sans', 'Bitstream Vera Sans', sans-serif; text-anchor: end; fill: #555555" x="32.44" y="231.544475" transform="rotate(-0 32.44 231.544475)">30</text>
     </g>
    </g>
    <g id="text_34">
     <text style="font-size: 7px; font-family: 'DejaVu Sans', 'Arial', 'Liberation Sans', 'Bitstream Vera Sans', sans-serif; text-anchor: middle; fill: #111111" x="13.266172" y="272.823" transform="rotate(-90 13.266172 272.823)">deg</text>
    </g>
   </g>
   <g id="line2d_70">
    <path d="M 46.628182 256.081757 
L 47.402943 254.548922 
L 48.177703 253.724714 
L 48.952464 252.363873 
L 49.727225 252.444275 
L 50.501986 252.408862 
L 51.276746 251.88595 
L 52.051507 252.495194 
L 52.826268 252.768608 
L 53.601029 252.326308 
L 54.375789 254.032282 
L 55.925311 255.93599 
L 56.700072 255.702456 
L 57.474833 258.107498 
L 59.024354 259.99065 
L 59.799115 260.383608 
L 60.573876 260.939136 
L 61.348636 260.878273 
L 62.123397 261.09797 
L 62.898158 261.946995 
L 63.672919 262.305613 
L 65.22244 262.537413 
L 65.997201 262.026385 
L 66.771962 262.576348 
L 68.321483 264.11705 
L 69.096244 263.465832 
L 69.871005 265.009929 
L 70.645766 265.391148 
L 71.420526 266.183752 
L 72.970048 268.833571 
L 73.744809 270.478926 
L 74.519569 273.013387 
L 75.29433 273.976083 
L 79.168134 284.230613 
L 80.717656 287.573596 
L 81.492416 288.994519 
L 84.591459 293.524615 
L 87.690502 297.103937 
L 88.465263 297.859092 
L 89.240024 299.221224 
L 91.564306 301.014988 
L 92.339067 302.599705 
L 93.113828 303.485794 
L 93.888589 304.011975 
L 94.663349 305.608376 
L 95.43811 306.171299 
L 96.212871 307.599409 
L 96.987632 308.296714 
L 98.537153 309.983469 
L 99.311914 311.446987 
L 100.086675 311.952652 
L 100.861435 312.311399 
L 101.636196 313.318814 
L 103.960478 314.200214 
L 105.51 314.830664 
L 107.834282 315.017921 
L 109.383804 315.01209 
L 110.933325 314.781724 
L 111.708086 314.581591 
L 112.482847 314.106091 
L 113.257608 313.464288 
L 114.032368 312.14007 
L 114.807129 311.166649 
L 115.58189 308.286959 
L 117.131411 303.98465 
L 117.906172 300.881924 
L 119.455694 296.532266 
L 120.230455 293.841885 
L 123.329498 284.782782 
L 129.527584 265.557625 
L 131.077105 261.632048 
L 131.851866 260.072319 
L 132.626627 258.976507 
L 133.401388 258.143668 
L 134.176148 256.917198 
L 134.950909 256.216422 
L 135.72567 254.881431 
L 136.500431 254.776387 
L 137.275191 254.290188 
L 138.049952 254.4148 
L 138.824713 255.006738 
L 140.374234 255.814591 
L 141.148995 255.401536 
L 141.923756 257.529677 
L 142.698517 258.399719 
L 144.248038 260.723624 
L 145.79756 262.579957 
L 146.572321 262.747308 
L 147.347081 262.728841 
L 148.121842 263.566112 
L 148.896603 263.72068 
L 149.671364 264.111096 
L 150.446124 264.111148 
L 151.220885 264.384072 
L 151.995646 264.411405 
L 153.545167 265.575046 
L 154.319928 265.794893 
L 155.86945 267.476057 
L 156.644211 268.49395 
L 157.418971 269.061977 
L 158.968493 270.934302 
L 159.743254 272.565885 
L 160.518014 273.528116 
L 161.292775 274.945006 
L 164.391818 281.940218 
L 164.391818 281.940218 
" clip-path="url(#pf22983b26b)" style="fill: none; stroke: #111111; stroke-width: 0.9; stroke-linecap: round"/>
   </g>
   <g id="line2d_71">
    <path d="M 46.628182 239.534343 
L 47.402943 238.31188 
L 48.177703 237.369236 
L 48.952464 236.782275 
L 49.727225 236.401417 
L 51.276746 236.358799 
L 52.051507 236.245592 
L 52.826268 236.271338 
L 53.601029 236.422268 
L 54.375789 236.819844 
L 55.925311 238.323782 
L 57.474833 240.202335 
L 58.249593 241.008064 
L 59.799115 242.056816 
L 61.348636 241.983542 
L 63.672919 242.335365 
L 64.447679 242.64437 
L 65.22244 243.170073 
L 65.997201 244.122731 
L 66.771962 244.730355 
L 70.645766 246.899445 
L 71.420526 247.570976 
L 72.195287 247.825503 
L 72.970048 248.239662 
L 73.744809 248.968341 
L 75.29433 250.941856 
L 77.618612 256.586133 
L 82.267177 268.610448 
L 83.816699 271.986311 
L 85.36622 274.763752 
L 90.014785 282.03171 
L 91.564306 284.710872 
L 93.113828 287.094164 
L 96.987632 291.215445 
L 100.086675 294.39806 
L 100.861435 295.237506 
L 101.636196 296.529033 
L 102.410957 298.041314 
L 103.960478 299.869863 
L 104.735239 300.657017 
L 106.284761 302.926324 
L 107.834282 304.036024 
L 108.609043 304.808587 
L 109.383804 305.217895 
L 110.158565 305.447482 
L 110.933325 305.436282 
L 111.708086 305.272967 
L 112.482847 304.809946 
L 113.257608 303.780796 
L 114.032368 302.470854 
L 115.58189 298.448236 
L 116.356651 295.857445 
L 119.455694 282.96879 
L 121.005215 276.620658 
L 123.329498 268.036467 
L 124.879019 263.358385 
L 127.978062 254.630474 
L 129.527584 249.7628 
L 131.077105 246.313004 
L 131.851866 245.240061 
L 134.950909 241.87516 
L 138.049952 237.159114 
L 139.599474 235.455784 
L 140.374234 235.028706 
L 141.148995 234.773256 
L 141.923756 235.063331 
L 142.698517 235.688772 
L 144.248038 238.435635 
L 145.022799 239.981122 
L 146.572321 242.21337 
L 150.446124 245.256108 
L 151.220885 246.145104 
L 151.995646 246.621625 
L 152.770407 246.894319 
L 153.545167 246.967737 
L 154.319928 247.17383 
L 156.644211 248.489217 
L 158.193732 250.877867 
L 161.292775 256.954932 
L 163.617057 261.480399 
L 164.391818 262.863969 
L 164.391818 262.863969 
" clip-path="url(#pf22983b26b)" style="fill: none; stroke: #d55e00; stroke-width: 0.9; stroke-linecap: round"/>
   </g>
   <g id="line2d_72">
    <path d="M 46.628182 236.195929 
L 47.402943 234.243207 
L 48.177703 232.856696 
L 48.952464 232.553292 
L 49.727225 231.704167 
L 50.501986 230.607545 
L 52.826268 231.133565 
L 54.375789 231.448319 
L 55.925311 232.062017 
L 58.249593 233.357298 
L 59.799115 233.702579 
L 61.348636 233.602754 
L 62.123397 233.636119 
L 63.672919 234.223774 
L 65.22244 234.520269 
L 68.321483 235.599363 
L 69.871005 236.37212 
L 71.420526 237.408283 
L 72.970048 238.795503 
L 73.744809 239.594904 
L 75.29433 241.674069 
L 78.393373 246.640255 
L 80.717656 250.63752 
L 81.492416 251.724796 
L 83.816699 254.502563 
L 85.36622 257.77355 
L 86.140981 258.540292 
L 86.915742 259.576992 
L 87.690502 261.130096 
L 91.564306 270.84863 
L 92.339067 272.373664 
L 93.113828 273.61975 
L 94.663349 278.204582 
L 96.212871 281.663555 
L 96.987632 283.11513 
L 98.537153 285.343312 
L 99.311914 286.281585 
L 102.410957 291.715443 
L 103.960478 294.191262 
L 108.609043 300.770108 
L 110.158565 302.473344 
L 110.933325 303.016276 
L 111.708086 302.829687 
L 113.257608 301.629023 
L 114.032368 300.811138 
L 114.807129 299.699356 
L 116.356651 296.222916 
L 117.906172 291.597811 
L 118.680933 289.945634 
L 119.455694 286.872997 
L 120.230455 283.132272 
L 122.554737 275.279748 
L 124.104258 270.284561 
L 125.65378 262.976347 
L 127.203301 256.782973 
L 129.527584 248.502587 
L 130.302344 246.343238 
L 131.851866 243.103126 
L 133.401388 240.001645 
L 134.176148 237.978998 
L 134.950909 237.141525 
L 135.72567 236.865505 
L 137.275191 235.300285 
L 138.049952 234.354021 
L 138.824713 233.989167 
L 139.599474 233.900795 
L 140.374234 233.684606 
L 141.148995 233.712366 
L 141.923756 234.206776 
L 143.473278 234.829283 
L 144.248038 234.41873 
L 145.022799 234.572679 
L 145.79756 235.806466 
L 146.572321 236.33157 
L 147.347081 236.515015 
L 149.671364 236.262621 
L 150.446124 236.878392 
L 151.220885 237.802552 
L 152.770407 238.973004 
L 155.094689 241.468784 
L 156.644211 242.671325 
L 157.418971 243.422065 
L 158.968493 245.607238 
L 160.518014 248.920366 
L 161.292775 250.835566 
L 162.067536 252.07525 
L 162.842297 252.994078 
L 164.391818 255.231517 
L 164.391818 255.231517 
" clip-path="url(#pf22983b26b)" style="fill: none; stroke: #0072b2; stroke-width: 0.9; stroke-linecap: round"/>
   </g>
   <g id="patch_12">
    <path d="M 40.74 319.26 
L 40.74 226.386 
" style="fill: none; stroke: #111111; stroke-width: 0.75; stroke-linejoin: miter; stroke-linecap: square"/>
   </g>
   <g id="patch_13">
    <path d="M 40.74 319.26 
L 170.28 319.26 
" style="fill: none; stroke: #111111; stroke-width: 0.75; stroke-linejoin: miter; stroke-linecap: square"/>
   </g>
   <g id="text_35">
    <text style="font-size: 7.5px; font-family: 'DejaVu Sans', 'Arial', 'Liberation Sans', 'Bitstream Vera Sans', sans-serif; fill: #262626" transform="translate(82.258242 211.987641)">Hip flexion L</text>
    <text style="font-size: 7.5px; font-family: 'DejaVu Sans', 'Arial', 'Liberation Sans', 'Bitstream Vera Sans', sans-serif; fill: #262626" transform="translate(43.446328 220.386)">FM 17.0°/r 0.95 · OC 12.1°/r 0.99</text>
   </g>
  </g>
  <g id="axes_5">
   <g id="patch_14">
    <path d="M 211.02 319.26 
L 340.56 319.26 
L 340.56 226.386 
L 211.02 226.386 
z
" style="fill: #ffffff"/>
   </g>
   <g id="matplotlib.axis_9">
    <g id="xtick_17">
     <g id="line2d_73">
      <g>
       <use xlink:href="#m060bedcf3d" x="216.908182" y="319.26" style="fill: #555555; stroke: #555555"/>
      </g>
     </g>
     <g id="text_36">
      <text style="font-size: 6.5px; font-family: 'DejaVu Sans', 'Arial', 'Liberation Sans', 'Bitstream Vera Sans', sans-serif; text-anchor: middle; fill: #555555" x="216.908182" y="332.498984" transform="rotate(-0 216.908182 332.498984)">0.0</text>
     </g>
    </g>
    <g id="xtick_18">
     <g id="line2d_74">
      <g>
       <use xlink:href="#m060bedcf3d" x="255.64622" y="319.26" style="fill: #555555; stroke: #555555"/>
      </g>
     </g>
     <g id="text_37">
      <text style="font-size: 6.5px; font-family: 'DejaVu Sans', 'Arial', 'Liberation Sans', 'Bitstream Vera Sans', sans-serif; text-anchor: middle; fill: #555555" x="255.64622" y="332.498984" transform="rotate(-0 255.64622 332.498984)">0.5</text>
     </g>
    </g>
    <g id="xtick_19">
     <g id="line2d_75">
      <g>
       <use xlink:href="#m060bedcf3d" x="294.384258" y="319.26" style="fill: #555555; stroke: #555555"/>
      </g>
     </g>
     <g id="text_38">
      <text style="font-size: 6.5px; font-family: 'DejaVu Sans', 'Arial', 'Liberation Sans', 'Bitstream Vera Sans', sans-serif; text-anchor: middle; fill: #555555" x="294.384258" y="332.498984" transform="rotate(-0 294.384258 332.498984)">1.0</text>
     </g>
    </g>
    <g id="xtick_20">
     <g id="line2d_76">
      <g>
       <use xlink:href="#m060bedcf3d" x="333.122297" y="319.26" style="fill: #555555; stroke: #555555"/>
      </g>
     </g>
     <g id="text_39">
      <text style="font-size: 6.5px; font-family: 'DejaVu Sans', 'Arial', 'Liberation Sans', 'Bitstream Vera Sans', sans-serif; text-anchor: middle; fill: #555555" x="333.122297" y="332.498984" transform="rotate(-0 333.122297 332.498984)">1.5</text>
     </g>
    </g>
    <g id="text_40">
     <text style="font-size: 7px; font-family: 'DejaVu Sans', 'Arial', 'Liberation Sans', 'Bitstream Vera Sans', sans-serif; text-anchor: middle; fill: #111111" x="275.79" y="343.169688" transform="rotate(-0 275.79 343.169688)">Comparison time (s)</text>
    </g>
   </g>
   <g id="matplotlib.axis_10">
    <g id="ytick_23">
     <g id="line2d_77">
      <path d="M 211.02 315.038455 
L 340.56 315.038455 
" clip-path="url(#p9ddbcf0fb3)" style="fill: none; stroke: #e8e8e8; stroke-opacity: 0.55; stroke-width: 0.35; stroke-linecap: round"/>
     </g>
     <g id="line2d_78">
      <g>
       <use xlink:href="#m10482367ac" x="211.02" y="315.038455" style="fill: #555555; stroke: #555555"/>
      </g>
     </g>
     <g id="text_41">
      <text style="font-size: 6.5px; font-family: 'DejaVu Sans', 'Arial', 'Liberation Sans', 'Bitstream Vera Sans', sans-serif; text-anchor: end; fill: #555555" x="202.72" y="317.507947" transform="rotate(-0 202.72 317.507947)">0</text>
     </g>
    </g>
    <g id="ytick_24">
     <g id="line2d_79">
      <path d="M 211.02 291.778045 
L 340.56 291.778045 
" clip-path="url(#p9ddbcf0fb3)" style="fill: none; stroke: #e8e8e8; stroke-opacity: 0.55; stroke-width: 0.35; stroke-linecap: round"/>
     </g>
     <g id="line2d_80">
      <g>
       <use xlink:href="#m10482367ac" x="211.02" y="291.778045" style="fill: #555555; stroke: #555555"/>
      </g>
     </g>
     <g id="text_42">
      <text style="font-size: 6.5px; font-family: 'DejaVu Sans', 'Arial', 'Liberation Sans', 'Bitstream Vera Sans', sans-serif; text-anchor: end; fill: #555555" x="202.72" y="294.247537" transform="rotate(-0 202.72 294.247537)">20</text>
     </g>
    </g>
    <g id="ytick_25">
     <g id="line2d_81">
      <path d="M 211.02 268.517635 
L 340.56 268.517635 
" clip-path="url(#p9ddbcf0fb3)" style="fill: none; stroke: #e8e8e8; stroke-opacity: 0.55; stroke-width: 0.35; stroke-linecap: round"/>
     </g>
     <g id="line2d_82">
      <g>
       <use xlink:href="#m10482367ac" x="211.02" y="268.517635" style="fill: #555555; stroke: #555555"/>
      </g>
     </g>
     <g id="text_43">
      <text style="font-size: 6.5px; font-family: 'DejaVu Sans', 'Arial', 'Liberation Sans', 'Bitstream Vera Sans', sans-serif; text-anchor: end; fill: #555555" x="202.72" y="270.987128" transform="rotate(-0 202.72 270.987128)">40</text>
     </g>
    </g>
    <g id="ytick_26">
     <g id="line2d_83">
      <path d="M 211.02 245.257226 
L 340.56 245.257226 
" clip-path="url(#p9ddbcf0fb3)" style="fill: none; stroke: #e8e8e8; stroke-opacity: 0.55; stroke-width: 0.35; stroke-linecap: round"/>
     </g>
     <g id="line2d_84">
      <g>
       <use xlink:href="#m10482367ac" x="211.02" y="245.257226" style="fill: #555555; stroke: #555555"/>
      </g>
     </g>
     <g id="text_44">
      <text style="font-size: 6.5px; font-family: 'DejaVu Sans', 'Arial', 'Liberation Sans', 'Bitstream Vera Sans', sans-serif; text-anchor: end; fill: #555555" x="202.72" y="247.726718" transform="rotate(-0 202.72 247.726718)">60</text>
     </g>
    </g>
    <g id="text_45">
     <text style="font-size: 7px; font-family: 'DejaVu Sans', 'Arial', 'Liberation Sans', 'Bitstream Vera Sans', sans-serif; text-anchor: middle; fill: #111111" x="188.992969" y="272.823" transform="rotate(-90 188.992969 272.823)">deg</text>
    </g>
   </g>
   <g id="line2d_85">
    <path d="M 216.908182 246.225983 
L 217.682943 248.964817 
L 219.232464 255.240153 
L 221.556746 267.055895 
L 227.754833 302.629538 
L 228.529593 306.088837 
L 229.304354 308.905023 
L 230.079115 310.781905 
L 230.853876 311.849286 
L 231.628636 311.831176 
L 232.403397 311.611491 
L 233.178158 310.646741 
L 233.952919 309.414939 
L 237.051962 302.829838 
L 238.601483 300.430947 
L 239.376244 298.870914 
L 241.700526 296.728695 
L 242.475287 296.547208 
L 243.250048 296.617206 
L 244.024809 296.929862 
L 245.57433 297.82266 
L 251.772416 302.796707 
L 252.547177 303.164541 
L 254.096699 304.144567 
L 255.64622 304.931025 
L 261.069545 307.082063 
L 261.844306 307.295937 
L 263.393828 307.980883 
L 264.168589 308.165511 
L 264.943349 308.511015 
L 265.71811 308.701975 
L 266.492871 309.009558 
L 268.817153 309.425921 
L 269.591914 309.555524 
L 271.141435 309.124878 
L 271.916196 308.723738 
L 273.465718 307.619168 
L 274.240478 306.801198 
L 275.015239 305.795115 
L 275.79 304.999992 
L 278.114282 300.765933 
L 279.663804 296.908428 
L 280.438565 294.431434 
L 281.988086 288.104768 
L 283.537608 279.912504 
L 288.960933 246.924192 
L 290.510455 240.282997 
L 291.285215 237.678423 
L 292.059976 235.533532 
L 292.834737 233.77239 
L 293.609498 232.352547 
L 294.384258 231.362302 
L 295.159019 230.849062 
L 295.93378 230.607545 
L 296.708541 230.719087 
L 297.483301 231.147265 
L 298.258062 231.96931 
L 299.032823 233.121646 
L 299.807584 234.66877 
L 300.582344 236.484707 
L 301.357105 238.621139 
L 302.906627 243.901357 
L 305.230909 253.28547 
L 306.00567 256.48189 
L 308.329952 268.26528 
L 311.428995 285.715301 
L 312.978517 295.325263 
L 314.528038 303.682224 
L 315.302799 307.186235 
L 316.07756 309.971835 
L 316.852321 311.756466 
L 318.401842 313.042599 
L 319.176603 312.851607 
L 319.951364 311.883519 
L 321.500885 309.261869 
L 322.275646 307.801771 
L 324.599928 304.500492 
L 326.924211 301.794294 
L 327.698971 300.912279 
L 328.473732 300.304514 
L 329.248493 299.86422 
L 331.572775 300.146493 
L 334.671818 302.45485 
L 334.671818 302.45485 
" clip-path="url(#p9ddbcf0fb3)" style="fill: none; stroke: #111111; stroke-width: 0.9; stroke-linecap: round"/>
   </g>
   <g id="line2d_86">
    <path d="M 216.908182 247.252872 
L 218.457703 253.417808 
L 220.781986 263.74381 
L 223.881029 278.548945 
L 228.529593 302.341253 
L 230.079115 308.028126 
L 230.853876 309.628459 
L 231.628636 310.891749 
L 232.403397 311.490973 
L 233.178158 311.366548 
L 233.952919 310.884007 
L 236.277201 307.891925 
L 239.376244 303.251749 
L 241.700526 300.331717 
L 243.250048 298.861334 
L 244.024809 298.371837 
L 245.57433 297.952507 
L 247.123852 298.620367 
L 247.898612 299.161061 
L 249.448134 300.591805 
L 251.772416 302.845296 
L 253.321938 304.179392 
L 254.871459 305.184431 
L 255.64622 305.491245 
L 257.195742 305.805472 
L 258.745263 305.7659 
L 259.520024 305.972545 
L 261.069545 306.915774 
L 262.619067 308.957642 
L 264.168589 311.318265 
L 265.71811 313.238629 
L 266.492871 314.024111 
L 267.267632 314.539997 
L 268.817153 315.038455 
L 271.916196 314.988389 
L 272.690957 314.912998 
L 274.240478 314.308039 
L 275.015239 313.868286 
L 276.564761 312.586075 
L 278.114282 310.44489 
L 279.663804 307.630391 
L 280.438565 306.015117 
L 281.988086 301.403888 
L 282.762847 298.599639 
L 284.312368 290.881486 
L 286.636651 274.97457 
L 288.960933 259.097219 
L 290.510455 250.172187 
L 292.059976 243.071608 
L 292.834737 240.568302 
L 293.609498 238.457827 
L 294.384258 237.121334 
L 295.159019 236.373005 
L 295.93378 235.916563 
L 296.708541 236.116634 
L 297.483301 236.473301 
L 298.258062 237.138502 
L 299.807584 239.116377 
L 301.357105 243.059817 
L 303.681388 250.876982 
L 306.780431 261.479953 
L 308.329952 267.546931 
L 310.654234 277.681722 
L 311.428995 281.391227 
L 314.528038 298.600464 
L 315.302799 302.319597 
L 316.852321 307.260265 
L 317.627081 308.781512 
L 318.401842 309.65266 
L 319.176603 310.200494 
L 319.951364 309.816085 
L 320.726124 309.290994 
L 321.500885 308.488722 
L 323.050407 306.086836 
L 325.374689 302.634141 
L 326.924211 301.021869 
L 328.473732 300.3571 
L 329.248493 300.26096 
L 330.798014 300.419919 
L 332.347536 301.208336 
L 333.897057 302.249856 
L 334.671818 302.826071 
L 334.671818 302.826071 
" clip-path="url(#p9ddbcf0fb3)" style="fill: none; stroke: #d55e00; stroke-width: 0.9; stroke-linecap: round"/>
   </g>
   <g id="line2d_87">
    <path d="M 216.908182 242.550678 
L 217.682943 245.234694 
L 218.457703 248.343628 
L 221.556746 264.40121 
L 223.881029 277.3771 
L 225.43055 285.202938 
L 226.980072 292.224014 
L 228.529593 298.130744 
L 230.079115 302.007846 
L 230.853876 303.274796 
L 231.628636 303.940678 
L 232.403397 304.316019 
L 233.178158 304.357212 
L 233.952919 304.198863 
L 234.727679 303.65881 
L 236.277201 302.106957 
L 237.826722 300.299128 
L 240.151005 297.337501 
L 242.475287 295.081414 
L 244.024809 293.997317 
L 245.57433 293.273708 
L 247.123852 292.916348 
L 247.898612 292.809063 
L 248.673373 292.951591 
L 249.448134 293.233498 
L 253.321938 296.111209 
L 254.096699 296.868798 
L 256.420981 299.765954 
L 257.195742 300.639896 
L 262.619067 308.189166 
L 263.393828 309.032376 
L 265.71811 312.050866 
L 266.492871 312.714874 
L 267.267632 313.225988 
L 268.817153 313.643073 
L 271.916196 314.135384 
L 274.240478 314.184297 
L 275.79 314.030685 
L 277.339522 313.609248 
L 278.889043 312.599653 
L 280.438565 310.904589 
L 281.213325 309.837175 
L 281.988086 308.127267 
L 282.762847 306.102187 
L 284.312368 300.093736 
L 285.087129 296.287802 
L 286.636651 285.734858 
L 289.735694 265.087589 
L 290.510455 260.053034 
L 292.059976 252.086411 
L 293.609498 245.697644 
L 295.159019 240.11486 
L 295.93378 237.723733 
L 296.708541 235.784323 
L 297.483301 234.507783 
L 298.258062 233.554902 
L 299.032823 233.291748 
L 299.807584 233.341413 
L 300.582344 233.989468 
L 301.357105 235.445514 
L 302.131866 237.29078 
L 303.681388 241.834728 
L 304.456148 244.640275 
L 306.00567 251.744774 
L 308.329952 263.417032 
L 309.879474 271.560715 
L 315.302799 302.164419 
L 316.07756 306.076649 
L 316.852321 309.083131 
L 317.627081 311.641735 
L 318.401842 312.700599 
L 319.176603 313.438723 
L 319.951364 313.563301 
L 320.726124 313.373694 
L 321.500885 313.027371 
L 323.050407 311.072143 
L 323.825167 310.206589 
L 326.924211 306.076114 
L 327.698971 305.278295 
L 328.473732 304.761146 
L 329.248493 304.384419 
L 330.798014 304.920295 
L 331.572775 305.276045 
L 333.122297 305.450763 
L 334.671818 306.204254 
L 334.671818 306.204254 
" clip-path="url(#p9ddbcf0fb3)" style="fill: none; stroke: #0072b2; stroke-width: 0.9; stroke-linecap: round"/>
   </g>
   <g id="patch_15">
    <path d="M 211.02 319.26 
L 211.02 226.386 
" style="fill: none; stroke: #111111; stroke-width: 0.75; stroke-linejoin: miter; stroke-linecap: square"/>
   </g>
   <g id="patch_16">
    <path d="M 211.02 319.26 
L 340.56 319.26 
" style="fill: none; stroke: #111111; stroke-width: 0.75; stroke-linejoin: miter; stroke-linecap: square"/>
   </g>
   <g id="text_46">
    <text style="font-size: 7.5px; font-family: 'DejaVu Sans', 'Arial', 'Liberation Sans', 'Bitstream Vera Sans', sans-serif; fill: #262626" transform="translate(249.330234 211.987641)">Knee flexion L</text>
    <text style="font-size: 7.5px; font-family: 'DejaVu Sans', 'Arial', 'Liberation Sans', 'Bitstream Vera Sans', sans-serif; fill: #262626" transform="translate(218.498203 220.386)">FM 7.7°/r 0.94 · OC 4.8°/r 0.98</text>
   </g>
  </g>
  <g id="axes_6">
   <g id="patch_17">
    <path d="M 381.3 319.26 
L 510.84 319.26 
L 510.84 226.386 
L 381.3 226.386 
z
" style="fill: #ffffff"/>
   </g>
   <g id="matplotlib.axis_11">
    <g id="xtick_21">
     <g id="line2d_88">
      <g>
       <use xlink:href="#m060bedcf3d" x="387.188182" y="319.26" style="fill: #555555; stroke: #555555"/>
      </g>
     </g>
     <g id="text_47">
      <text style="font-size: 6.5px; font-family: 'DejaVu Sans', 'Arial', 'Liberation Sans', 'Bitstream Vera Sans', sans-serif; text-anchor: middle; fill: #555555" x="387.188182" y="332.498984" transform="rotate(-0 387.188182 332.498984)">0.0</text>
     </g>
    </g>
    <g id="xtick_22">
     <g id="line2d_89">
      <g>
       <use xlink:href="#m060bedcf3d" x="425.92622" y="319.26" style="fill: #555555; stroke: #555555"/>
      </g>
     </g>
     <g id="text_48">
      <text style="font-size: 6.5px; font-family: 'DejaVu Sans', 'Arial', 'Liberation Sans', 'Bitstream Vera Sans', sans-serif; text-anchor: middle; fill: #555555" x="425.92622" y="332.498984" transform="rotate(-0 425.92622 332.498984)">0.5</text>
     </g>
    </g>
    <g id="xtick_23">
     <g id="line2d_90">
      <g>
       <use xlink:href="#m060bedcf3d" x="464.664258" y="319.26" style="fill: #555555; stroke: #555555"/>
      </g>
     </g>
     <g id="text_49">
      <text style="font-size: 6.5px; font-family: 'DejaVu Sans', 'Arial', 'Liberation Sans', 'Bitstream Vera Sans', sans-serif; text-anchor: middle; fill: #555555" x="464.664258" y="332.498984" transform="rotate(-0 464.664258 332.498984)">1.0</text>
     </g>
    </g>
    <g id="xtick_24">
     <g id="line2d_91">
      <g>
       <use xlink:href="#m060bedcf3d" x="503.402297" y="319.26" style="fill: #555555; stroke: #555555"/>
      </g>
     </g>
     <g id="text_50">
      <text style="font-size: 6.5px; font-family: 'DejaVu Sans', 'Arial', 'Liberation Sans', 'Bitstream Vera Sans', sans-serif; text-anchor: middle; fill: #555555" x="503.402297" y="332.498984" transform="rotate(-0 503.402297 332.498984)">1.5</text>
     </g>
    </g>
    <g id="text_51">
     <text style="font-size: 7px; font-family: 'DejaVu Sans', 'Arial', 'Liberation Sans', 'Bitstream Vera Sans', sans-serif; text-anchor: middle; fill: #111111" x="446.07" y="343.169688" transform="rotate(-0 446.07 343.169688)">Comparison time (s)</text>
    </g>
   </g>
   <g id="matplotlib.axis_12">
    <g id="ytick_27">
     <g id="line2d_92">
      <path d="M 381.3 305.737275 
L 510.84 305.737275 
" clip-path="url(#p605122766f)" style="fill: none; stroke: #e8e8e8; stroke-opacity: 0.55; stroke-width: 0.35; stroke-linecap: round"/>
     </g>
     <g id="line2d_93">
      <g>
       <use xlink:href="#m10482367ac" x="381.3" y="305.737275" style="fill: #555555; stroke: #555555"/>
      </g>
     </g>
     <g id="text_52">
      <text style="font-size: 6.5px; font-family: 'DejaVu Sans', 'Arial', 'Liberation Sans', 'Bitstream Vera Sans', sans-serif; text-anchor: end; fill: #555555" x="373" y="308.206768" transform="rotate(-0 373 308.206768)">−10</text>
     </g>
    </g>
    <g id="ytick_28">
     <g id="line2d_94">
      <path d="M 381.3 286.15027 
L 510.84 286.15027 
" clip-path="url(#p605122766f)" style="fill: none; stroke: #e8e8e8; stroke-opacity: 0.55; stroke-width: 0.35; stroke-linecap: round"/>
     </g>
     <g id="line2d_95">
      <g>
       <use xlink:href="#m10482367ac" x="381.3" y="286.15027" style="fill: #555555; stroke: #555555"/>
      </g>
     </g>
     <g id="text_53">
      <text style="font-size: 6.5px; font-family: 'DejaVu Sans', 'Arial', 'Liberation Sans', 'Bitstream Vera Sans', sans-serif; text-anchor: end; fill: #555555" x="373" y="288.619763" transform="rotate(-0 373 288.619763)">0</text>
     </g>
    </g>
    <g id="ytick_29">
     <g id="line2d_96">
      <path d="M 381.3 266.563266 
L 510.84 266.563266 
" clip-path="url(#p605122766f)" style="fill: none; stroke: #e8e8e8; stroke-opacity: 0.55; stroke-width: 0.35; stroke-linecap: round"/>
     </g>
     <g id="line2d_97">
      <g>
       <use xlink:href="#m10482367ac" x="381.3" y="266.563266" style="fill: #555555; stroke: #555555"/>
      </g>
     </g>
     <g id="text_54">
      <text style="font-size: 6.5px; font-family: 'DejaVu Sans', 'Arial', 'Liberation Sans', 'Bitstream Vera Sans', sans-serif; text-anchor: end; fill: #555555" x="373" y="269.032758" transform="rotate(-0 373 269.032758)">10</text>
     </g>
    </g>
    <g id="ytick_30">
     <g id="line2d_98">
      <path d="M 381.3 246.976261 
L 510.84 246.976261 
" clip-path="url(#p605122766f)" style="fill: none; stroke: #e8e8e8; stroke-opacity: 0.55; stroke-width: 0.35; stroke-linecap: round"/>
     </g>
     <g id="line2d_99">
      <g>
       <use xlink:href="#m10482367ac" x="381.3" y="246.976261" style="fill: #555555; stroke: #555555"/>
      </g>
     </g>
     <g id="text_55">
      <text style="font-size: 6.5px; font-family: 'DejaVu Sans', 'Arial', 'Liberation Sans', 'Bitstream Vera Sans', sans-serif; text-anchor: end; fill: #555555" x="373" y="249.445753" transform="rotate(-0 373 249.445753)">20</text>
     </g>
    </g>
    <g id="ytick_31">
     <g id="line2d_100">
      <path d="M 381.3 227.389256 
L 510.84 227.389256 
" clip-path="url(#p605122766f)" style="fill: none; stroke: #e8e8e8; stroke-opacity: 0.55; stroke-width: 0.35; stroke-linecap: round"/>
     </g>
     <g id="line2d_101">
      <g>
       <use xlink:href="#m10482367ac" x="381.3" y="227.389256" style="fill: #555555; stroke: #555555"/>
      </g>
     </g>
     <g id="text_56">
      <text style="font-size: 6.5px; font-family: 'DejaVu Sans', 'Arial', 'Liberation Sans', 'Bitstream Vera Sans', sans-serif; text-anchor: end; fill: #555555" x="373" y="229.858748" transform="rotate(-0 373 229.858748)">30</text>
     </g>
    </g>
    <g id="text_57">
     <text style="font-size: 7px; font-family: 'DejaVu Sans', 'Arial', 'Liberation Sans', 'Bitstream Vera Sans', sans-serif; text-anchor: middle; fill: #111111" x="353.826172" y="272.823" transform="rotate(-90 353.826172 272.823)">deg</text>
    </g>
   </g>
   <g id="line2d_102">
    <path d="M 387.188182 264.207318 
L 387.962943 263.499167 
L 388.737703 263.176827 
L 389.512464 263.238335 
L 390.287225 262.347681 
L 393.386268 260.771649 
L 394.161029 260.983426 
L 394.935789 260.208488 
L 396.485311 259.964614 
L 397.260072 259.42634 
L 398.034833 259.792259 
L 399.584354 259.684742 
L 401.133876 259.677911 
L 401.908636 259.809023 
L 402.683397 260.16867 
L 406.557201 265.614115 
L 407.331962 266.041239 
L 408.106722 265.797126 
L 409.656244 264.451754 
L 410.431005 262.863613 
L 411.205766 261.643953 
L 413.530048 257.500024 
L 414.304809 256.336912 
L 415.079569 254.849646 
L 415.85433 254.248822 
L 416.629091 253.44812 
L 418.178612 252.292065 
L 420.502895 251.024207 
L 422.052416 250.265641 
L 422.827177 249.609165 
L 424.376699 249.043263 
L 425.92622 248.276469 
L 426.700981 247.874554 
L 427.475742 247.148332 
L 428.250502 247.012134 
L 430.574785 245.720426 
L 432.124306 244.512554 
L 434.448589 242.30835 
L 437.547632 239.67437 
L 440.646675 236.671101 
L 444.520478 232.772926 
L 445.295239 232.055299 
L 446.07 231.889475 
L 446.844761 230.992074 
L 448.394282 230.607545 
L 449.169043 230.832982 
L 449.943804 231.636746 
L 450.718565 232.253404 
L 451.493325 233.6557 
L 452.268086 235.774279 
L 453.042847 238.760025 
L 454.592368 247.51043 
L 456.916651 266.502723 
L 457.691411 273.548176 
L 459.240933 284.630317 
L 460.015694 288.246499 
L 460.790455 289.656576 
L 461.565215 289.61412 
L 462.339976 287.877988 
L 463.889498 283.322631 
L 465.439019 278.793264 
L 466.21378 277.349426 
L 466.988541 277.256387 
L 468.538062 276.625162 
L 469.312823 275.602184 
L 470.087584 273.964907 
L 470.862344 273.386181 
L 471.637105 271.956221 
L 472.411866 270.961132 
L 473.186627 270.168102 
L 474.736148 268.266602 
L 475.510909 267.551155 
L 476.28567 267.569741 
L 477.060431 266.599648 
L 477.835191 266.092426 
L 480.934234 264.643366 
L 481.708995 264.583737 
L 482.483756 263.417189 
L 483.258517 263.024501 
L 484.033278 262.328534 
L 484.808038 261.805079 
L 485.582799 261.506992 
L 487.907081 259.615168 
L 489.456603 259.803827 
L 490.231364 260.215422 
L 491.006124 261.235235 
L 491.780885 262.459854 
L 494.105167 266.751108 
L 494.879928 267.791055 
L 495.654689 268.18248 
L 496.42945 267.959646 
L 497.204211 267.270669 
L 498.753732 264.61374 
L 499.528493 263.200846 
L 500.303254 262.039673 
L 501.852775 259.308195 
L 504.177057 256.685507 
L 504.951818 256.006315 
L 504.951818 256.006315 
" clip-path="url(#p605122766f)" style="fill: none; stroke: #111111; stroke-width: 0.9; stroke-linecap: round"/>
   </g>
   <g id="line2d_103">
    <path d="M 387.188182 292.365891 
L 388.737703 295.369524 
L 389.512464 295.383184 
L 390.287225 294.922849 
L 391.061986 293.528618 
L 392.611507 289.344405 
L 393.386268 287.302791 
L 394.161029 285.650081 
L 394.935789 284.763616 
L 395.71055 284.59544 
L 396.485311 284.782655 
L 400.359115 288.112584 
L 402.683397 290.818248 
L 404.232919 292.047355 
L 405.78244 292.917383 
L 407.331962 293.391856 
L 409.656244 293.741687 
L 410.431005 293.693781 
L 411.205766 293.274563 
L 411.980526 292.670755 
L 413.530048 290.322797 
L 414.304809 288.851944 
L 418.953373 277.879989 
L 419.728134 276.448761 
L 421.277656 274.460799 
L 422.052416 273.710452 
L 422.827177 273.278756 
L 423.601938 273.003445 
L 425.92622 271.62265 
L 426.700981 271.456262 
L 429.025263 271.474931 
L 430.574785 270.899465 
L 431.349545 270.504431 
L 432.899067 269.488438 
L 433.673828 269.301541 
L 434.448589 268.702214 
L 436.772871 266.203571 
L 438.322392 263.806722 
L 439.871914 261.057003 
L 442.196196 256.569926 
L 442.970957 254.777482 
L 444.520478 251.928186 
L 446.07 250.026762 
L 446.844761 249.244808 
L 448.394282 249.232807 
L 449.169043 249.32365 
L 449.943804 250.19354 
L 450.718565 251.446394 
L 451.493325 252.475983 
L 452.268086 253.928335 
L 453.817608 258.73682 
L 454.592368 261.383742 
L 456.916651 275.868735 
L 459.240933 290.540776 
L 460.790455 298.660485 
L 461.565215 301.502916 
L 462.339976 303.856076 
L 463.889498 306.119648 
L 464.664258 306.757666 
L 465.439019 306.858653 
L 466.21378 306.691476 
L 466.988541 305.430643 
L 467.763301 303.927722 
L 469.312823 300.185131 
L 470.087584 298.530884 
L 472.411866 294.935159 
L 473.961388 291.522329 
L 477.060431 280.874883 
L 477.835191 278.874691 
L 478.609952 279.119962 
L 479.384713 279.622655 
L 480.159474 280.63254 
L 480.934234 281.272935 
L 481.708995 281.734557 
L 483.258517 284.390132 
L 484.033278 285.246676 
L 484.808038 285.507327 
L 486.35756 285.494901 
L 487.132321 285.672361 
L 487.907081 286.159578 
L 488.681842 286.387818 
L 490.231364 286.624667 
L 491.006124 286.950708 
L 491.780885 287.651086 
L 493.330407 288.521506 
L 494.105167 289.625513 
L 494.879928 290.502779 
L 495.654689 290.933304 
L 497.204211 291.42687 
L 497.978971 290.981523 
L 498.753732 290.350331 
L 499.528493 289.352974 
L 501.078014 286.47739 
L 504.177057 279.730222 
L 504.951818 278.1981 
L 504.951818 278.1981 
" clip-path="url(#p605122766f)" style="fill: none; stroke: #d55e00; stroke-width: 0.9; stroke-linecap: round"/>
   </g>
   <g id="line2d_104">
    <path d="M 387.188182 275.583617 
L 387.962943 276.091101 
L 388.737703 277.055823 
L 391.061986 282.651295 
L 393.386268 290.63522 
L 396.485311 301.98331 
L 397.260072 304.437154 
L 398.809593 308.015599 
L 399.584354 309.191229 
L 400.359115 310.087924 
L 402.683397 311.05702 
L 404.232919 311.576429 
L 405.78244 312.43177 
L 407.331962 313.29008 
L 408.106722 313.564209 
L 408.881483 313.656225 
L 409.656244 313.332435 
L 410.431005 312.801849 
L 411.205766 311.465448 
L 411.980526 309.848556 
L 417.403852 294.915105 
L 418.178612 293.062287 
L 419.728134 290.096758 
L 422.052416 286.608396 
L 423.601938 284.941344 
L 424.376699 284.314032 
L 425.92622 282.711642 
L 426.700981 282.665683 
L 427.475742 282.432117 
L 428.250502 281.839677 
L 429.025263 281.628318 
L 429.800024 281.595272 
L 431.349545 280.855724 
L 432.124306 280.654085 
L 433.673828 279.743595 
L 435.223349 278.552044 
L 435.99811 277.859102 
L 437.547632 276.018738 
L 439.097153 273.424813 
L 439.871914 272.335023 
L 442.196196 267.959353 
L 445.295239 263.209744 
L 446.07 262.348469 
L 446.844761 261.725918 
L 447.619522 261.560023 
L 448.394282 261.858333 
L 449.169043 262.382568 
L 449.943804 263.317136 
L 450.718565 264.433987 
L 451.493325 265.899529 
L 452.268086 266.450467 
L 453.042847 266.566936 
L 453.817608 266.930069 
L 454.592368 266.663333 
L 455.367129 265.191718 
L 456.14189 265.606261 
L 456.916651 266.97799 
L 459.240933 288.166145 
L 460.015694 293.099714 
L 460.790455 296.916919 
L 461.565215 299.178071 
L 462.339976 301.069397 
L 463.114737 302.253281 
L 463.889498 302.500241 
L 464.664258 302.301207 
L 465.439019 302.263626 
L 466.21378 302.066873 
L 466.988541 301.565639 
L 468.538062 300.041703 
L 469.312823 299.722887 
L 470.087584 299.154245 
L 472.411866 295.895115 
L 474.736148 291.343506 
L 475.510909 290.969711 
L 476.28567 291.167627 
L 477.060431 291.131371 
L 477.835191 291.426931 
L 478.609952 292.357224 
L 480.159474 294.767082 
L 481.708995 299.043671 
L 484.033278 306.70561 
L 484.808038 308.152885 
L 485.582799 309.256662 
L 486.35756 309.703363 
L 487.132321 309.733265 
L 487.907081 309.562154 
L 488.681842 309.204547 
L 489.456603 308.985681 
L 490.231364 309.032213 
L 491.006124 309.583018 
L 491.780885 310.378259 
L 494.105167 313.699983 
L 494.879928 314.448445 
L 495.654689 315.038455 
L 496.42945 314.820551 
L 497.204211 314.139588 
L 497.978971 312.572835 
L 499.528493 307.750146 
L 501.078014 302.555123 
L 502.627536 298.113012 
L 503.402297 296.083106 
L 504.951818 292.975759 
L 504.951818 292.975759 
" clip-path="url(#p605122766f)" style="fill: none; stroke: #0072b2; stroke-width: 0.9; stroke-linecap: round"/>
   </g>
   <g id="patch_18">
    <path d="M 381.3 319.26 
L 381.3 226.386 
" style="fill: none; stroke: #111111; stroke-width: 0.75; stroke-linejoin: miter; stroke-linecap: square"/>
   </g>
   <g id="patch_19">
    <path d="M 381.3 319.26 
L 510.84 319.26 
" style="fill: none; stroke: #111111; stroke-width: 0.75; stroke-linejoin: miter; stroke-linecap: square"/>
   </g>
   <g id="text_58">
    <text style="font-size: 7.5px; font-family: 'DejaVu Sans', 'Arial', 'Liberation Sans', 'Bitstream Vera Sans', sans-serif; fill: #262626" transform="translate(418.59832 211.987641)">Ankle flexion L</text>
    <text style="font-size: 7.5px; font-family: 'DejaVu Sans', 'Arial', 'Liberation Sans', 'Bitstream Vera Sans', sans-serif; fill: #262626" transform="translate(384.006328 220.386)">FM 18.7°/r 0.66 · OC 12.4°/r 0.92</text>
   </g>
  </g>
  <g id="text_59">
   <text style="font-weight: 700; font-size: 9.5px; font-family: 'DejaVu Sans', 'Arial', 'Liberation Sans', 'Bitstream Vera Sans', sans-serif; text-anchor: middle; fill: #262626" x="259.2" y="19.566516" transform="rotate(-0 259.2 19.566516)">S18_CurvWalkClock_1</text>
  </g>
  <g id="legend_1">
   <g id="line2d_105">
    <path d="M 162.946172 44.448906 
L 169.946172 44.448906 
L 176.946172 44.448906 
" style="fill: none; stroke: #111111; stroke-width: 0.9; stroke-linecap: round"/>
   </g>
   <g id="text_60">
    <text style="font-size: 7px; font-family: 'DejaVu Sans', 'Arial', 'Liberation Sans', 'Bitstream Vera Sans', sans-serif; text-anchor: start; fill: #262626" x="182.546172" y="46.898906" transform="rotate(-0 182.546172 46.898906)">Marker-based</text>
   </g>
   <g id="line2d_106">
    <path d="M 243.948203 44.448906 
L 250.948203 44.448906 
L 257.948203 44.448906 
" style="fill: none; stroke: #d55e00; stroke-width: 0.9; stroke-linecap: round"/>
   </g>
   <g id="text_61">
    <text style="font-size: 7px; font-family: 'DejaVu Sans', 'Arial', 'Liberation Sans', 'Bitstream Vera Sans', sans-serif; text-anchor: start; fill: #262626" x="263.548203" y="46.898906" transform="rotate(-0 263.548203 46.898906)">OpenCap</text>
   </g>
   <g id="line2d_107">
    <path d="M 309.867422 44.448906 
L 316.867422 44.448906 
L 323.867422 44.448906 
" style="fill: none; stroke: #0072b2; stroke-width: 0.9; stroke-linecap: round"/>
   </g>
   <g id="text_62">
    <text style="font-size: 7px; font-family: 'DejaVu Sans', 'Arial', 'Liberation Sans', 'Bitstream Vera Sans', sans-serif; text-anchor: start; fill: #262626" x="329.467422" y="46.898906" transform="rotate(-0 329.467422 46.898906)">FootMR</text>
   </g>
  </g>
 </g>
 <defs>
  <clipPath id="p5a5703c647">
   <rect x="40.74" y="101.04" width="129.54" height="92.874"/>
  </clipPath>
  <clipPath id="p368e7ad030">
   <rect x="211.02" y="101.04" width="129.54" height="92.874"/>
  </clipPath>
  <clipPath id="p425a381694">
   <rect x="381.3" y="101.04" width="129.54" height="92.874"/>
  </clipPath>
  <clipPath id="pf22983b26b">
   <rect x="40.74" y="226.386" width="129.54" height="92.874"/>
  </clipPath>
  <clipPath id="p9ddbcf0fb3">
   <rect x="211.02" y="226.386" width="129.54" height="92.874"/>
  </clipPath>
  <clipPath id="p605122766f">
   <rect x="381.3" y="226.386" width="129.54" height="92.874"/>
  </clipPath>
 </defs>
</svg>
