<?xml version="1.0" encoding="utf-8" standalone="no"?>
<!DOCTYPE svg PUBLIC "-//W3C//DTD SVG 1.1//EN"
  "http://www.w3.org/Graphics/SVG/1.1/DTD/svg11.dtd">
<svg xmlns:xlink="http://www.w3.org/1999/xlink" width="518.4pt" height="352.8pt" viewBox="0 0 518.4 352.8" xmlns="http://www.w3.org/2000/svg" version="1.1">
 <metadata>
  <rdf:RDF xmlns:dc="http://purl.org/dc/elements/1.1/" xmlns:cc="http://creativecommons.org/ns#" xmlns:rdf="http://www.w3.org/1999/02/22-rdf-syntax-ns#">
   <cc:Work>
    <dc:type rdf:resource="http://purl.org/dc/dcmitype/StillImage"/>
    <dc:date>2026-06-18T16:50:11.522957</dc:date>
    <dc:format>image/svg+xml</dc:format>
    <dc:creator>
     <cc:Agent>
      <dc:title>Matplotlib v3.10.8, https://matplotlib.org/</dc:title>
     </cc:Agent>
    </dc:creator>
   </cc:Work>
  </rdf:RDF>
 </metadata>
 <defs>
  <style type="text/css">*{stroke-linejoin: round; stroke-linecap: butt}</style>
 </defs>
 <g id="figure_1">
  <g id="patch_1">
   <path d="M 0 352.8 
L 518.4 352.8 
L 518.4 0 
L 0 0 
z
" style="fill: #ffffff"/>
  </g>
  <g id="axes_1">
   <g id="patch_2">
    <path d="M 40.74 193.914 
L 170.28 193.914 
L 170.28 101.04 
L 40.74 101.04 
z
" style="fill: #ffffff"/>
   </g>
   <g id="matplotlib.axis_1">
    <g id="xtick_1">
     <g id="line2d_1">
      <defs>
       <path id="mb07a136ee7" d="M 0 0 
L 0 4.8 
" style="stroke: #555555"/>
      </defs>
      <g>
       <use xlink:href="#mb07a136ee7" x="46.628182" y="193.914" style="fill: #555555; stroke: #555555"/>
      </g>
     </g>
    </g>
    <g id="xtick_2">
     <g id="line2d_2">
      <g>
       <use xlink:href="#mb07a136ee7" x="88.094251" y="193.914" style="fill: #555555; stroke: #555555"/>
      </g>
     </g>
    </g>
    <g id="xtick_3">
     <g id="line2d_3">
      <g>
       <use xlink:href="#mb07a136ee7" x="129.56032" y="193.914" style="fill: #555555; stroke: #555555"/>
      </g>
     </g>
    </g>
   </g>
   <g id="matplotlib.axis_2">
    <g id="ytick_1">
     <g id="line2d_4">
      <path d="M 40.74 179.735767 
L 170.28 179.735767 
" clip-path="url(#pd0a5392643)" style="fill: none; stroke: #e8e8e8; stroke-opacity: 0.55; stroke-width: 0.35; stroke-linecap: round"/>
     </g>
     <g id="line2d_5">
      <defs>
       <path id="m82c932025c" d="M 0 0 
L -4.8 0 
" style="stroke: #555555"/>
      </defs>
      <g>
       <use xlink:href="#m82c932025c" x="40.74" y="179.735767" style="fill: #555555; stroke: #555555"/>
      </g>
     </g>
     <g id="text_1">
      <text style="font-size: 6.5px; font-family: 'DejaVu Sans', 'Arial', 'Liberation Sans', 'Bitstream Vera Sans', sans-serif; text-anchor: end; fill: #555555" x="32.44" y="182.205259" transform="rotate(-0 32.44 182.205259)">−20</text>
     </g>
    </g>
    <g id="ytick_2">
     <g id="line2d_6">
      <path d="M 40.74 164.87904 
L 170.28 164.87904 
" clip-path="url(#pd0a5392643)" style="fill: none; stroke: #e8e8e8; stroke-opacity: 0.55; stroke-width: 0.35; stroke-linecap: round"/>
     </g>
     <g id="line2d_7">
      <g>
       <use xlink:href="#m82c932025c" x="40.74" y="164.87904" style="fill: #555555; stroke: #555555"/>
      </g>
     </g>
     <g id="text_2">
      <text style="font-size: 6.5px; font-family: 'DejaVu Sans', 'Arial', 'Liberation Sans', 'Bitstream Vera Sans', sans-serif; text-anchor: end; fill: #555555" x="32.44" y="167.348532" transform="rotate(-0 32.44 167.348532)">−10</text>
     </g>
    </g>
    <g id="ytick_3">
     <g id="line2d_8">
      <path d="M 40.74 150.022312 
L 170.28 150.022312 
" clip-path="url(#pd0a5392643)" style="fill: none; stroke: #e8e8e8; stroke-opacity: 0.55; stroke-width: 0.35; stroke-linecap: round"/>
     </g>
     <g id="line2d_9">
      <g>
       <use xlink:href="#m82c932025c" x="40.74" y="150.022312" style="fill: #555555; stroke: #555555"/>
      </g>
     </g>
     <g id="text_3">
      <text style="font-size: 6.5px; font-family: 'DejaVu Sans', 'Arial', 'Liberation Sans', 'Bitstream Vera Sans', sans-serif; text-anchor: end; fill: #555555" x="32.44" y="152.491805" transform="rotate(-0 32.44 152.491805)">0</text>
     </g>
    </g>
    <g id="ytick_4">
     <g id="line2d_10">
      <path d="M 40.74 135.165585 
L 170.28 135.165585 
" clip-path="url(#pd0a5392643)" style="fill: none; stroke: #e8e8e8; stroke-opacity: 0.55; stroke-width: 0.35; stroke-linecap: round"/>
     </g>
     <g id="line2d_11">
      <g>
       <use xlink:href="#m82c932025c" x="40.74" y="135.165585" style="fill: #555555; stroke: #555555"/>
      </g>
     </g>
     <g id="text_4">
      <text style="font-size: 6.5px; font-family: 'DejaVu Sans', 'Arial', 'Liberation Sans', 'Bitstream Vera Sans', sans-serif; text-anchor: end; fill: #555555" x="32.44" y="137.635077" transform="rotate(-0 32.44 137.635077)">10</text>
     </g>
    </g>
    <g id="ytick_5">
     <g id="line2d_12">
      <path d="M 40.74 120.308858 
L 170.28 120.308858 
" clip-path="url(#pd0a5392643)" style="fill: none; stroke: #e8e8e8; stroke-opacity: 0.55; stroke-width: 0.35; stroke-linecap: round"/>
     </g>
     <g id="line2d_13">
      <g>
       <use xlink:href="#m82c932025c" x="40.74" y="120.308858" style="fill: #555555; stroke: #555555"/>
      </g>
     </g>
     <g id="text_5">
      <text style="font-size: 6.5px; font-family: 'DejaVu Sans', 'Arial', 'Liberation Sans', 'Bitstream Vera Sans', sans-serif; text-anchor: end; fill: #555555" x="32.44" y="122.77835" transform="rotate(-0 32.44 122.77835)">20</text>
     </g>
    </g>
    <g id="ytick_6">
     <g id="line2d_14">
      <path d="M 40.74 105.45213 
L 170.28 105.45213 
" clip-path="url(#pd0a5392643)" style="fill: none; stroke: #e8e8e8; stroke-opacity: 0.55; stroke-width: 0.35; stroke-linecap: round"/>
     </g>
     <g id="line2d_15">
      <g>
       <use xlink:href="#m82c932025c" x="40.74" y="105.45213" style="fill: #555555; stroke: #555555"/>
      </g>
     </g>
     <g id="text_6">
      <text style="font-size: 6.5px; font-family: 'DejaVu Sans', 'Arial', 'Liberation Sans', 'Bitstream Vera Sans', sans-serif; text-anchor: end; fill: #555555" x="32.44" y="107.921622" transform="rotate(-0 32.44 107.921622)">30</text>
     </g>
    </g>
    <g id="text_7">
     <text style="font-size: 7px; font-family: 'DejaVu Sans', 'Arial', 'Liberation Sans', 'Bitstream Vera Sans', sans-serif; text-anchor: middle; fill: #111111" x="13.266172" y="147.477" transform="rotate(-90 13.266172 147.477)">deg</text>
    </g>
   </g>
   <g id="line2d_16">
    <path d="M 46.628182 127.531425 
L 47.457503 128.24095 
L 48.286825 128.742747 
L 49.945467 130.029494 
L 50.774789 130.428225 
L 52.433431 130.740526 
L 54.092074 130.937569 
L 54.921396 131.161273 
L 55.750717 131.185772 
L 57.40936 132.872449 
L 58.238681 133.958371 
L 59.068003 135.263972 
L 60.726645 138.744522 
L 61.555967 139.542194 
L 62.385288 141.852024 
L 63.214609 142.921324 
L 64.043931 143.788469 
L 64.873252 145.953522 
L 65.702574 147.152335 
L 67.361216 151.392116 
L 68.190538 153.448877 
L 69.849181 156.869561 
L 71.507823 160.439076 
L 73.166466 163.26145 
L 73.995787 164.407841 
L 74.825109 165.196764 
L 75.65443 166.27852 
L 76.483752 167.12952 
L 78.142394 168.386684 
L 79.801037 169.830951 
L 81.45968 170.980274 
L 82.289001 172.45705 
L 83.118323 173.030884 
L 83.947644 173.906746 
L 84.776965 174.349465 
L 85.606287 175.325436 
L 86.435608 176.048626 
L 87.26493 177.099389 
L 88.094251 178.525398 
L 89.752894 180.360307 
L 90.582215 180.467692 
L 91.411536 182.144171 
L 92.240858 182.341124 
L 93.070179 183.687035 
L 93.899501 183.836579 
L 94.728822 184.298662 
L 95.558143 184.994717 
L 96.387465 186.473012 
L 98.046108 187.602698 
L 99.70475 188.918672 
L 100.534072 189.351773 
L 102.192714 189.692455 
L 103.851357 189.640985 
L 104.680679 188.759773 
L 106.339321 187.430633 
L 107.168643 184.890769 
L 107.997964 183.869084 
L 108.827286 182.521839 
L 109.656607 178.300514 
L 110.485928 176.912437 
L 111.31525 173.059103 
L 112.144571 171.366984 
L 112.973892 169.253938 
L 115.461857 161.473784 
L 117.120499 157.096118 
L 122.925749 140.885038 
L 125.413713 135.156378 
L 127.072356 132.092974 
L 127.901677 130.452847 
L 128.730999 129.338455 
L 129.56032 127.968287 
L 130.389641 127.828529 
L 131.218963 126.630252 
L 132.877606 126.439756 
L 133.706927 125.48472 
L 134.536248 125.882543 
L 135.36557 125.198983 
L 136.194891 124.936695 
L 137.024213 126.038366 
L 137.853534 126.497308 
L 138.682855 127.125373 
L 139.512177 127.454839 
L 140.341498 128.469892 
L 141.170819 129.75576 
L 142.000141 130.697367 
L 143.658784 131.988455 
L 144.488105 132.208392 
L 145.317426 132.593451 
L 146.146748 132.536423 
L 147.805391 133.277314 
L 148.634712 133.528196 
L 150.293355 135.386513 
L 151.951997 138.033157 
L 152.781319 139.783566 
L 153.61064 140.798021 
L 156.098604 145.888402 
L 156.927926 146.850608 
L 157.757247 148.389062 
L 160.245211 153.930068 
L 161.074533 155.138293 
L 164.391818 161.949499 
L 164.391818 161.949499 
" clip-path="url(#pd0a5392643)" style="fill: none; stroke: #111111; stroke-width: 0.9; stroke-linecap: round"/>
   </g>
   <g id="line2d_17">
    <path d="M 46.628182 113.30969 
L 47.457503 113.574204 
L 48.286825 113.986743 
L 49.945467 112.777609 
L 50.774789 112.386944 
L 52.433431 111.196549 
L 54.092074 111.660523 
L 54.921396 112.168297 
L 56.580038 113.680036 
L 58.238681 115.658092 
L 61.555967 119.094932 
L 62.385288 120.107657 
L 63.214609 121.347377 
L 64.043931 123.154081 
L 64.873252 125.244272 
L 69.019859 138.656249 
L 70.678502 142.931735 
L 72.337145 146.56882 
L 73.995787 149.752872 
L 76.483752 154.120007 
L 77.313073 155.431538 
L 78.971716 157.273719 
L 80.630359 158.952995 
L 82.289001 160.916196 
L 84.776965 164.301382 
L 85.606287 165.161472 
L 86.435608 165.479279 
L 87.26493 165.953926 
L 88.923572 167.42411 
L 89.752894 168.052718 
L 90.582215 168.458154 
L 91.411536 169.076252 
L 92.240858 170.119681 
L 93.070179 170.823693 
L 93.899501 171.357998 
L 95.558143 173.520675 
L 96.387465 174.878336 
L 98.046108 178.408199 
L 99.70475 180.592916 
L 100.534072 181.917913 
L 101.363393 182.471911 
L 103.022036 182.700233 
L 103.851357 182.660939 
L 104.680679 182.423418 
L 105.51 181.919505 
L 106.339321 181.282397 
L 107.168643 180.136122 
L 107.997964 178.731213 
L 109.656607 174.705353 
L 110.485928 172.51093 
L 112.144571 167.093407 
L 116.291178 152.678622 
L 117.949821 147.675355 
L 118.779142 145.445282 
L 122.925749 136.471051 
L 127.072356 124.862585 
L 128.730999 121.729704 
L 131.218963 117.990023 
L 132.877606 115.617012 
L 133.706927 114.65985 
L 135.36557 113.193378 
L 137.024213 114.035855 
L 137.853534 114.567606 
L 139.512177 116.183582 
L 141.170819 117.935696 
L 142.829462 119.139674 
L 144.488105 119.99944 
L 146.146748 120.87752 
L 147.805391 122.207458 
L 149.464033 123.995609 
L 151.122676 126.443249 
L 151.951997 127.840504 
L 154.439962 132.627103 
L 156.098604 134.939783 
L 159.41589 139.724092 
L 160.245211 141.087003 
L 163.562497 147.746043 
L 164.391818 149.526922 
L 164.391818 149.526922 
" clip-path="url(#pd0a5392643)" style="fill: none; stroke: #d55e00; stroke-width: 0.9; stroke-linecap: round"/>
   </g>
   <g id="line2d_18">
    <path d="M 46.628182 109.175636 
L 47.457503 109.795124 
L 48.286825 110.669636 
L 49.116146 110.485758 
L 49.945467 110.486707 
L 50.774789 110.873982 
L 51.60411 110.896327 
L 52.433431 110.731765 
L 54.921396 111.064045 
L 57.40936 111.983933 
L 58.238681 112.056646 
L 59.068003 111.693682 
L 59.897324 112.264423 
L 60.726645 113.322408 
L 61.555967 112.788285 
L 62.385288 112.544799 
L 63.214609 112.946982 
L 64.873252 114.111702 
L 65.702574 114.995136 
L 66.531895 116.257305 
L 67.361216 118.316154 
L 68.190538 119.195492 
L 69.019859 119.44777 
L 70.678502 122.517052 
L 72.337145 126.181704 
L 73.995787 129.7922 
L 75.65443 133.858374 
L 78.142394 140.668266 
L 78.971716 143.335275 
L 79.801037 147.150198 
L 81.45968 153.038457 
L 83.118323 156.47881 
L 83.947644 157.540072 
L 86.435608 161.827869 
L 88.923572 165.475454 
L 93.899501 173.115278 
L 95.558143 175.348758 
L 96.387465 176.902285 
L 97.216786 178.029556 
L 98.046108 178.915286 
L 99.70475 181.775357 
L 102.192714 184.84748 
L 103.022036 185.421163 
L 103.851357 185.817095 
L 104.680679 185.834974 
L 105.51 184.964062 
L 106.339321 183.580504 
L 107.997964 179.970549 
L 109.656607 175.373651 
L 110.485928 172.924406 
L 115.461857 152.432094 
L 117.120499 144.172186 
L 119.608464 131.975378 
L 120.437785 128.278026 
L 124.584392 113.281203 
L 125.413713 110.695906 
L 126.243035 109.3647 
L 127.072356 108.789809 
L 127.901677 107.79121 
L 128.730999 106.980434 
L 131.218963 106.124665 
L 132.048284 105.514995 
L 132.877606 105.261545 
L 134.536248 106.495344 
L 135.36557 106.989101 
L 136.194891 107.131893 
L 137.024213 107.678681 
L 137.853534 109.283724 
L 138.682855 110.55412 
L 142.000141 114.665868 
L 142.829462 114.812655 
L 143.658784 114.54605 
L 144.488105 114.116799 
L 145.317426 113.88264 
L 146.146748 114.171222 
L 146.976069 114.818874 
L 149.464033 117.585243 
L 150.293355 118.702714 
L 151.122676 119.523218 
L 153.61064 121.45207 
L 155.269283 123.166721 
L 156.098604 124.107914 
L 156.927926 125.309476 
L 157.757247 126.820172 
L 158.586569 129.105772 
L 159.41589 130.251291 
L 160.245211 130.658977 
L 162.733175 137.331852 
L 163.562497 138.630712 
L 164.391818 139.347403 
L 164.391818 139.347403 
" clip-path="url(#pd0a5392643)" style="fill: none; stroke: #0072b2; stroke-width: 0.9; stroke-linecap: round"/>
   </g>
   <g id="patch_3">
    <path d="M 40.74 193.914 
L 40.74 101.04 
" style="fill: none; stroke: #111111; stroke-width: 0.75; stroke-linejoin: miter; stroke-linecap: square"/>
   </g>
   <g id="patch_4">
    <path d="M 40.74 193.914 
L 170.28 193.914 
" style="fill: none; stroke: #111111; stroke-width: 0.75; stroke-linejoin: miter; stroke-linecap: square"/>
   </g>
   <g id="text_8">
    <text style="font-size: 7.5px; font-family: 'DejaVu Sans', 'Arial', 'Liberation Sans', 'Bitstream Vera Sans', sans-serif; fill: #262626" transform="translate(81.742031 86.641641)">Hip flexion R</text>
    <text style="font-size: 7.5px; font-family: 'DejaVu Sans', 'Arial', 'Liberation Sans', 'Bitstream Vera Sans', sans-serif; fill: #262626" transform="translate(45.832266 95.04)">FM 13.6°/r 0.96 · OC 8.3°/r 0.98</text>
   </g>
  </g>
  <g id="axes_2">
   <g id="patch_5">
    <path d="M 211.02 193.914 
L 340.56 193.914 
L 340.56 101.04 
L 211.02 101.04 
z
" style="fill: #ffffff"/>
   </g>
   <g id="matplotlib.axis_3">
    <g id="xtick_4">
     <g id="line2d_19">
      <g>
       <use xlink:href="#mb07a136ee7" x="216.908182" y="193.914" style="fill: #555555; stroke: #555555"/>
      </g>
     </g>
    </g>
    <g id="xtick_5">
     <g id="line2d_20">
      <g>
       <use xlink:href="#mb07a136ee7" x="258.374251" y="193.914" style="fill: #555555; stroke: #555555"/>
      </g>
     </g>
    </g>
    <g id="xtick_6">
     <g id="line2d_21">
      <g>
       <use xlink:href="#mb07a136ee7" x="299.84032" y="193.914" style="fill: #555555; stroke: #555555"/>
      </g>
     </g>
    </g>
   </g>
   <g id="matplotlib.axis_4">
    <g id="ytick_7">
     <g id="line2d_22">
      <path d="M 211.02 189.692455 
L 340.56 189.692455 
" clip-path="url(#p5d6bc94d43)" style="fill: none; stroke: #e8e8e8; stroke-opacity: 0.55; stroke-width: 0.35; stroke-linecap: round"/>
     </g>
     <g id="line2d_23">
      <g>
       <use xlink:href="#m82c932025c" x="211.02" y="189.692455" style="fill: #555555; stroke: #555555"/>
      </g>
     </g>
     <g id="text_9">
      <text style="font-size: 6.5px; font-family: 'DejaVu Sans', 'Arial', 'Liberation Sans', 'Bitstream Vera Sans', sans-serif; text-anchor: end; fill: #555555" x="202.72" y="192.161947" transform="rotate(-0 202.72 192.161947)">0</text>
     </g>
    </g>
    <g id="ytick_8">
     <g id="line2d_24">
      <path d="M 211.02 166.493007 
L 340.56 166.493007 
" clip-path="url(#p5d6bc94d43)" style="fill: none; stroke: #e8e8e8; stroke-opacity: 0.55; stroke-width: 0.35; stroke-linecap: round"/>
     </g>
     <g id="line2d_25">
      <g>
       <use xlink:href="#m82c932025c" x="211.02" y="166.493007" style="fill: #555555; stroke: #555555"/>
      </g>
     </g>
     <g id="text_10">
      <text style="font-size: 6.5px; font-family: 'DejaVu Sans', 'Arial', 'Liberation Sans', 'Bitstream Vera Sans', sans-serif; text-anchor: end; fill: #555555" x="202.72" y="168.962499" transform="rotate(-0 202.72 168.962499)">20</text>
     </g>
    </g>
    <g id="ytick_9">
     <g id="line2d_26">
      <path d="M 211.02 143.293559 
L 340.56 143.293559 
" clip-path="url(#p5d6bc94d43)" style="fill: none; stroke: #e8e8e8; stroke-opacity: 0.55; stroke-width: 0.35; stroke-linecap: round"/>
     </g>
     <g id="line2d_27">
      <g>
       <use xlink:href="#m82c932025c" x="211.02" y="143.293559" style="fill: #555555; stroke: #555555"/>
      </g>
     </g>
     <g id="text_11">
      <text style="font-size: 6.5px; font-family: 'DejaVu Sans', 'Arial', 'Liberation Sans', 'Bitstream Vera Sans', sans-serif; text-anchor: end; fill: #555555" x="202.72" y="145.763051" transform="rotate(-0 202.72 145.763051)">40</text>
     </g>
    </g>
    <g id="ytick_10">
     <g id="line2d_28">
      <path d="M 211.02 120.094111 
L 340.56 120.094111 
" clip-path="url(#p5d6bc94d43)" style="fill: none; stroke: #e8e8e8; stroke-opacity: 0.55; stroke-width: 0.35; stroke-linecap: round"/>
     </g>
     <g id="line2d_29">
      <g>
       <use xlink:href="#m82c932025c" x="211.02" y="120.094111" style="fill: #555555; stroke: #555555"/>
      </g>
     </g>
     <g id="text_12">
      <text style="font-size: 6.5px; font-family: 'DejaVu Sans', 'Arial', 'Liberation Sans', 'Bitstream Vera Sans', sans-serif; text-anchor: end; fill: #555555" x="202.72" y="122.563603" transform="rotate(-0 202.72 122.563603)">60</text>
     </g>
    </g>
    <g id="text_13">
     <text style="font-size: 7px; font-family: 'DejaVu Sans', 'Arial', 'Liberation Sans', 'Bitstream Vera Sans', sans-serif; text-anchor: middle; fill: #111111" x="188.992969" y="147.477" transform="rotate(-90 188.992969 147.477)">deg</text>
    </g>
   </g>
   <g id="line2d_30">
    <path d="M 216.908182 169.528264 
L 218.566825 176.222968 
L 219.396146 178.990619 
L 220.225467 181.015459 
L 221.054789 182.118208 
L 221.88411 182.269475 
L 222.713431 181.744419 
L 223.542753 180.758725 
L 226.030717 177.110459 
L 226.860038 176.208747 
L 228.518681 174.964441 
L 230.177324 173.96771 
L 231.835967 173.151565 
L 232.665288 172.971436 
L 233.494609 172.926374 
L 234.323931 172.762942 
L 235.153252 173.246056 
L 235.982574 173.522086 
L 236.811895 174.180014 
L 238.470538 175.827709 
L 240.129181 177.099432 
L 241.787823 178.436362 
L 243.446466 179.431934 
L 244.275787 179.762501 
L 245.93443 180.090244 
L 246.763752 180.247666 
L 247.593073 180.116195 
L 249.251716 180.197387 
L 250.081037 180.073461 
L 251.73968 180.235801 
L 252.569001 180.481364 
L 253.398323 180.589838 
L 259.203572 182.20011 
L 260.032894 182.202069 
L 261.691536 181.95982 
L 262.520858 181.546216 
L 263.350179 181.283577 
L 264.179501 180.753263 
L 266.667465 178.88883 
L 267.496786 178.228384 
L 268.326108 177.166709 
L 269.155429 176.370988 
L 270.814072 173.888336 
L 271.643393 172.379955 
L 273.302036 168.512483 
L 274.131357 166.305699 
L 276.619321 156.153077 
L 277.448643 151.466132 
L 279.107286 143.236688 
L 279.936607 138.088433 
L 283.253892 122.403168 
L 284.912535 116.162297 
L 285.741857 113.523619 
L 287.400499 109.467258 
L 288.229821 107.905692 
L 289.059142 106.73336 
L 289.888464 105.906625 
L 290.717785 105.295853 
L 291.547106 105.261545 
L 292.376428 105.506745 
L 293.205749 106.095718 
L 294.03507 107.057453 
L 294.864392 108.300349 
L 295.693713 109.91805 
L 297.352356 114.056564 
L 298.181677 116.414375 
L 299.84032 121.962189 
L 303.157606 135.779127 
L 303.986927 139.276707 
L 311.450819 175.669366 
L 312.280141 178.785967 
L 313.109462 181.107744 
L 313.938784 182.448782 
L 314.768105 182.71744 
L 315.597426 182.33705 
L 318.914712 178.048916 
L 319.744033 177.333419 
L 320.573355 176.920721 
L 321.402676 176.29983 
L 322.231997 175.909191 
L 323.061319 175.300419 
L 323.89064 174.525048 
L 324.719962 173.908157 
L 326.378604 173.141836 
L 327.207926 172.818321 
L 328.037247 172.85963 
L 329.69589 173.562463 
L 330.525211 174.157353 
L 331.354533 174.464931 
L 333.013175 175.726388 
L 334.671818 177.015883 
L 334.671818 177.015883 
" clip-path="url(#p5d6bc94d43)" style="fill: none; stroke: #111111; stroke-width: 0.9; stroke-linecap: round"/>
   </g>
   <g id="line2d_31">
    <path d="M 216.908182 168.435071 
L 218.566825 173.477382 
L 220.225467 177.477849 
L 221.054789 179.023957 
L 222.713431 181.277967 
L 223.542753 181.656808 
L 224.372074 181.84846 
L 225.201396 181.665728 
L 226.860038 180.675528 
L 229.348003 178.676289 
L 231.006645 176.796256 
L 232.665288 174.962912 
L 233.494609 174.361007 
L 234.323931 174.26003 
L 235.153252 174.409514 
L 236.811895 176.184518 
L 238.470538 178.251624 
L 239.299859 179.157532 
L 240.958502 180.397661 
L 242.617145 181.024712 
L 243.446466 181.219937 
L 247.593073 183.285638 
L 250.081037 183.720837 
L 251.73968 184.612403 
L 253.398323 186.61771 
L 254.227644 187.815925 
L 255.886287 189.692455 
L 269.155429 189.692455 
L 269.98475 189.535821 
L 270.814072 189.065915 
L 271.643393 187.906407 
L 272.472714 186.402102 
L 274.131357 182.204575 
L 274.960679 179.695857 
L 276.619321 173.452639 
L 278.277964 165.220212 
L 284.912535 129.035008 
L 286.571178 122.452064 
L 287.400499 119.868352 
L 288.229821 117.882585 
L 289.059142 116.195785 
L 289.888464 115.338939 
L 290.717785 114.66356 
L 291.547106 114.351123 
L 292.376428 114.347241 
L 293.205749 114.497636 
L 294.03507 115.29693 
L 294.864392 116.370569 
L 295.693713 117.992905 
L 297.352356 122.550094 
L 299.84032 131.071745 
L 303.157606 141.699197 
L 304.816248 148.275195 
L 305.64557 151.987552 
L 309.792177 173.404855 
L 311.450819 180.190803 
L 312.280141 182.752474 
L 313.109462 184.567159 
L 313.938784 186.008357 
L 314.768105 186.386731 
L 315.597426 186.472297 
L 316.426748 185.972241 
L 318.085391 184.454188 
L 319.744033 182.671559 
L 320.573355 181.919046 
L 322.231997 180.825613 
L 325.549283 179.917663 
L 326.378604 179.583571 
L 328.037247 179.205346 
L 328.866569 179.093181 
L 330.525211 179.330238 
L 333.013175 180.7535 
L 334.671818 182.095389 
L 334.671818 182.095389 
" clip-path="url(#p5d6bc94d43)" style="fill: none; stroke: #d55e00; stroke-width: 0.9; stroke-linecap: round"/>
   </g>
   <g id="line2d_32">
    <path d="M 216.908182 175.302237 
L 218.566825 179.962644 
L 220.225467 183.055698 
L 221.054789 184.112281 
L 221.88411 184.75287 
L 222.713431 185.180398 
L 224.372074 184.325196 
L 225.201396 183.759394 
L 226.860038 181.9489 
L 228.518681 179.326229 
L 229.348003 177.70894 
L 230.177324 176.604019 
L 231.006645 175.766471 
L 232.665288 173.038475 
L 234.323931 171.345416 
L 235.153252 170.60914 
L 235.982574 170.135027 
L 236.811895 169.820483 
L 237.641216 169.837573 
L 239.299859 169.55181 
L 240.129181 169.896279 
L 240.958502 170.39093 
L 242.617145 171.906527 
L 243.446466 172.576565 
L 245.93443 175.69599 
L 248.422394 179.809175 
L 249.251716 181.380159 
L 250.910359 185.087601 
L 251.73968 186.659023 
L 252.569001 187.645801 
L 253.398323 188.427952 
L 255.056965 189.032603 
L 255.886287 189.217908 
L 259.203572 189.396756 
L 265.008822 189.420388 
L 269.155429 189.247399 
L 270.814072 189.026691 
L 272.472714 188.558369 
L 273.302036 187.63707 
L 274.131357 186.348037 
L 274.960679 184.256651 
L 275.79 181.431648 
L 276.619321 178.183501 
L 278.277964 169.392345 
L 282.424571 144.86999 
L 284.083214 136.334507 
L 286.571178 124.778054 
L 288.229821 117.983087 
L 289.059142 114.915703 
L 290.717785 110.209778 
L 291.547106 108.585228 
L 292.376428 107.304932 
L 293.205749 106.230483 
L 294.03507 106.242157 
L 294.864392 106.493959 
L 295.693713 107.216012 
L 296.523035 108.763984 
L 297.352356 110.81005 
L 299.010999 116.184967 
L 300.669641 122.974728 
L 303.986927 138.132491 
L 305.64557 146.599244 
L 308.133534 161.765197 
L 309.792177 171.904603 
L 311.450819 180.635711 
L 312.280141 184.215675 
L 313.109462 186.658328 
L 313.938784 188.390206 
L 314.768105 188.813139 
L 315.597426 189.065596 
L 317.256069 188.978677 
L 318.085391 188.838707 
L 320.573355 187.255047 
L 321.402676 186.425287 
L 322.231997 185.406249 
L 323.89064 184.071831 
L 324.719962 183.621867 
L 325.549283 183.514931 
L 326.378604 183.628046 
L 328.037247 183.343008 
L 328.866569 183.586207 
L 329.69589 183.649675 
L 330.525211 183.596826 
L 332.183854 184.734496 
L 333.013175 185.564617 
L 334.671818 186.668156 
L 334.671818 186.668156 
" clip-path="url(#p5d6bc94d43)" style="fill: none; stroke: #0072b2; stroke-width: 0.9; stroke-linecap: round"/>
   </g>
   <g id="patch_6">
    <path d="M 211.02 193.914 
L 211.02 101.04 
" style="fill: none; stroke: #111111; stroke-width: 0.75; stroke-linejoin: miter; stroke-linecap: square"/>
   </g>
   <g id="patch_7">
    <path d="M 211.02 193.914 
L 340.56 193.914 
" style="fill: none; stroke: #111111; stroke-width: 0.75; stroke-linejoin: miter; stroke-linecap: square"/>
   </g>
   <g id="text_14">
    <text style="font-size: 7.5px; font-family: 'DejaVu Sans', 'Arial', 'Liberation Sans', 'Bitstream Vera Sans', sans-serif; fill: #262626" transform="translate(248.814023 86.641641)">Knee flexion R</text>
    <text style="font-size: 7.5px; font-family: 'DejaVu Sans', 'Arial', 'Liberation Sans', 'Bitstream Vera Sans', sans-serif; fill: #262626" transform="translate(218.498203 95.04)">FM 8.2°/r 0.96 · OC 7.1°/r 0.98</text>
   </g>
  </g>
  <g id="axes_3">
   <g id="patch_8">
    <path d="M 381.3 193.914 
L 510.84 193.914 
L 510.84 101.04 
L 381.3 101.04 
z
" style="fill: #ffffff"/>
   </g>
   <g id="matplotlib.axis_5">
    <g id="xtick_7">
     <g id="line2d_33">
      <g>
       <use xlink:href="#mb07a136ee7" x="387.188182" y="193.914" style="fill: #555555; stroke: #555555"/>
      </g>
     </g>
    </g>
    <g id="xtick_8">
     <g id="line2d_34">
      <g>
       <use xlink:href="#mb07a136ee7" x="428.654251" y="193.914" style="fill: #555555; stroke: #555555"/>
      </g>
     </g>
    </g>
    <g id="xtick_9">
     <g id="line2d_35">
      <g>
       <use xlink:href="#mb07a136ee7" x="470.12032" y="193.914" style="fill: #555555; stroke: #555555"/>
      </g>
     </g>
    </g>
   </g>
   <g id="matplotlib.axis_6">
    <g id="ytick_11">
     <g id="line2d_36">
      <path d="M 381.3 189.411651 
L 510.84 189.411651 
" clip-path="url(#p4eb5dfc75a)" style="fill: none; stroke: #e8e8e8; stroke-opacity: 0.55; stroke-width: 0.35; stroke-linecap: round"/>
     </g>
     <g id="line2d_37">
      <g>
       <use xlink:href="#m82c932025c" x="381.3" y="189.411651" style="fill: #555555; stroke: #555555"/>
      </g>
     </g>
     <g id="text_15">
      <text style="font-size: 6.5px; font-family: 'DejaVu Sans', 'Arial', 'Liberation Sans', 'Bitstream Vera Sans', sans-serif; text-anchor: end; fill: #555555" x="373" y="191.881143" transform="rotate(-0 373 191.881143)">−20</text>
     </g>
    </g>
    <g id="ytick_12">
     <g id="line2d_38">
      <path d="M 381.3 168.714432 
L 510.84 168.714432 
" clip-path="url(#p4eb5dfc75a)" style="fill: none; stroke: #e8e8e8; stroke-opacity: 0.55; stroke-width: 0.35; stroke-linecap: round"/>
     </g>
     <g id="line2d_39">
      <g>
       <use xlink:href="#m82c932025c" x="381.3" y="168.714432" style="fill: #555555; stroke: #555555"/>
      </g>
     </g>
     <g id="text_16">
      <text style="font-size: 6.5px; font-family: 'DejaVu Sans', 'Arial', 'Liberation Sans', 'Bitstream Vera Sans', sans-serif; text-anchor: end; fill: #555555" x="373" y="171.183924" transform="rotate(-0 373 171.183924)">−10</text>
     </g>
    </g>
    <g id="ytick_13">
     <g id="line2d_40">
      <path d="M 381.3 148.017213 
L 510.84 148.017213 
" clip-path="url(#p4eb5dfc75a)" style="fill: none; stroke: #e8e8e8; stroke-opacity: 0.55; stroke-width: 0.35; stroke-linecap: round"/>
     </g>
     <g id="line2d_41">
      <g>
       <use xlink:href="#m82c932025c" x="381.3" y="148.017213" style="fill: #555555; stroke: #555555"/>
      </g>
     </g>
     <g id="text_17">
      <text style="font-size: 6.5px; font-family: 'DejaVu Sans', 'Arial', 'Liberation Sans', 'Bitstream Vera Sans', sans-serif; text-anchor: end; fill: #555555" x="373" y="150.486705" transform="rotate(-0 373 150.486705)">0</text>
     </g>
    </g>
    <g id="ytick_14">
     <g id="line2d_42">
      <path d="M 381.3 127.319994 
L 510.84 127.319994 
" clip-path="url(#p4eb5dfc75a)" style="fill: none; stroke: #e8e8e8; stroke-opacity: 0.55; stroke-width: 0.35; stroke-linecap: round"/>
     </g>
     <g id="line2d_43">
      <g>
       <use xlink:href="#m82c932025c" x="381.3" y="127.319994" style="fill: #555555; stroke: #555555"/>
      </g>
     </g>
     <g id="text_18">
      <text style="font-size: 6.5px; font-family: 'DejaVu Sans', 'Arial', 'Liberation Sans', 'Bitstream Vera Sans', sans-serif; text-anchor: end; fill: #555555" x="373" y="129.789486" transform="rotate(-0 373 129.789486)">10</text>
     </g>
    </g>
    <g id="ytick_15">
     <g id="line2d_44">
      <path d="M 381.3 106.622775 
L 510.84 106.622775 
" clip-path="url(#p4eb5dfc75a)" style="fill: none; stroke: #e8e8e8; stroke-opacity: 0.55; stroke-width: 0.35; stroke-linecap: round"/>
     </g>
     <g id="line2d_45">
      <g>
       <use xlink:href="#m82c932025c" x="381.3" y="106.622775" style="fill: #555555; stroke: #555555"/>
      </g>
     </g>
     <g id="text_19">
      <text style="font-size: 6.5px; font-family: 'DejaVu Sans', 'Arial', 'Liberation Sans', 'Bitstream Vera Sans', sans-serif; text-anchor: end; fill: #555555" x="373" y="109.092268" transform="rotate(-0 373 109.092268)">20</text>
     </g>
    </g>
    <g id="text_20">
     <text style="font-size: 7px; font-family: 'DejaVu Sans', 'Arial', 'Liberation Sans', 'Bitstream Vera Sans', sans-serif; text-anchor: middle; fill: #111111" x="353.826172" y="147.477" transform="rotate(-90 353.826172 147.477)">deg</text>
    </g>
   </g>
   <g id="line2d_46">
    <path d="M 387.188182 138.606047 
L 388.017503 136.83955 
L 388.846825 135.644368 
L 389.676146 134.697687 
L 390.505467 133.940074 
L 391.334789 133.429699 
L 392.16411 133.198726 
L 392.993431 133.737672 
L 393.822753 134.746892 
L 394.652074 136.421422 
L 396.310717 140.649555 
L 397.140038 142.109002 
L 397.96936 143.80629 
L 398.798681 144.369147 
L 399.628003 144.105486 
L 401.286645 141.253728 
L 402.115967 140.370135 
L 402.945288 138.047329 
L 403.774609 137.403029 
L 404.603931 135.631206 
L 405.433252 134.855407 
L 406.262574 133.660566 
L 407.091895 132.99289 
L 407.921216 132.632835 
L 410.409181 130.888367 
L 414.555787 128.342084 
L 415.385109 127.661362 
L 416.21443 127.198913 
L 417.043752 126.554449 
L 417.873073 125.5384 
L 418.702394 124.888238 
L 419.531716 124.531564 
L 420.361037 123.368558 
L 422.01968 122.255122 
L 423.678323 120.530174 
L 424.507644 119.79374 
L 425.336965 119.255181 
L 426.166287 118.349088 
L 426.995608 118.007338 
L 427.82493 117.252277 
L 430.312894 115.735182 
L 431.142215 115.431119 
L 431.971536 114.687923 
L 432.800858 114.301888 
L 433.630179 113.62079 
L 434.459501 113.258679 
L 436.118143 112.331436 
L 436.947465 111.551928 
L 437.776786 111.669372 
L 438.606108 110.767814 
L 439.435429 111.169424 
L 440.26475 111.054348 
L 441.094072 111.425677 
L 441.923393 111.085914 
L 442.752714 112.036291 
L 443.582036 112.63415 
L 444.411357 115.350247 
L 445.240679 115.903749 
L 446.07 118.754063 
L 446.899321 123.353226 
L 447.728643 125.996745 
L 451.045928 148.448869 
L 451.87525 155.269866 
L 453.533892 164.615235 
L 454.363214 168.482457 
L 455.192535 169.555084 
L 456.021857 169.291401 
L 456.851178 167.745493 
L 459.339142 161.259973 
L 460.168464 159.800747 
L 461.827106 158.312432 
L 462.656428 158.151188 
L 464.31507 156.919222 
L 465.973713 154.992377 
L 466.803035 154.323978 
L 467.632356 152.778773 
L 468.461677 152.159434 
L 469.290999 150.604016 
L 470.12032 150.345592 
L 470.949641 149.466485 
L 471.778963 149.093269 
L 472.608284 147.830813 
L 474.266927 146.566247 
L 475.096248 145.049559 
L 475.92557 144.032308 
L 476.754891 142.597432 
L 480.901498 134.075554 
L 481.730819 131.847102 
L 482.560141 130.165796 
L 484.218784 128.124437 
L 485.048105 127.646973 
L 486.706748 128.617428 
L 487.536069 130.789967 
L 488.365391 133.497174 
L 490.024033 139.4993 
L 490.853355 142.103572 
L 491.682676 142.731133 
L 492.511997 143.63454 
L 493.341319 142.599237 
L 494.17064 141.370534 
L 497.487926 134.639797 
L 498.317247 133.424066 
L 499.97589 131.770462 
L 500.805211 131.164991 
L 501.634533 130.171577 
L 502.463854 129.462161 
L 504.122497 128.530955 
L 504.951818 127.958737 
L 504.951818 127.958737 
" clip-path="url(#p4eb5dfc75a)" style="fill: none; stroke: #111111; stroke-width: 0.9; stroke-linecap: round"/>
   </g>
   <g id="line2d_47">
    <path d="M 387.188182 157.853927 
L 388.846825 156.721655 
L 389.676146 157.555416 
L 390.505467 158.20886 
L 391.334789 158.501664 
L 392.16411 159.523439 
L 393.822753 162.499127 
L 394.652074 164.292886 
L 397.140038 171.042237 
L 399.628003 175.076295 
L 400.457324 175.378556 
L 401.286645 175.188532 
L 402.945288 172.614184 
L 403.774609 171.092822 
L 405.433252 167.198394 
L 408.750538 159.047739 
L 411.238502 151.866896 
L 412.897145 146.846133 
L 413.726466 144.506538 
L 416.21443 139.993183 
L 417.873073 137.657914 
L 418.702394 137.252399 
L 419.531716 137.09011 
L 420.361037 137.414278 
L 421.190359 138.166244 
L 422.01968 139.132105 
L 422.849001 139.721809 
L 423.678323 140.145749 
L 425.336965 140.273665 
L 426.166287 140.280725 
L 426.995608 138.205511 
L 427.82493 136.708906 
L 428.654251 136.36954 
L 429.483572 135.518337 
L 430.312894 134.411221 
L 431.971536 131.392981 
L 432.800858 129.358353 
L 434.459501 126.385315 
L 435.288822 125.442825 
L 436.118143 124.680906 
L 436.947465 124.280136 
L 437.776786 124.195932 
L 438.606108 124.27001 
L 440.26475 125.890211 
L 441.094072 126.543768 
L 441.923393 126.929649 
L 442.752714 127.181693 
L 443.582036 127.260708 
L 444.411357 127.578483 
L 445.240679 128.373784 
L 446.899321 130.78873 
L 447.728643 132.820139 
L 448.557964 135.188031 
L 450.216607 141.633751 
L 451.045928 145.220592 
L 452.704571 153.709408 
L 456.021857 172.233243 
L 457.680499 180.910967 
L 458.509821 183.473025 
L 459.339142 185.176548 
L 460.168464 187.951148 
L 460.997785 189.692455 
L 461.827106 189.367144 
L 462.656428 187.763419 
L 463.485749 185.520497 
L 467.632356 171.904814 
L 470.12032 160.557464 
L 471.778963 154.393093 
L 473.437606 152.053637 
L 474.266927 150.620693 
L 475.096248 150.587234 
L 475.92557 151.253507 
L 476.754891 151.451003 
L 477.584213 151.839489 
L 478.413534 152.609963 
L 479.242855 153.08943 
L 480.072177 153.423394 
L 480.901498 153.024064 
L 481.730819 152.477723 
L 484.218784 150.084089 
L 485.877426 149.85338 
L 486.706748 149.861825 
L 487.536069 150.372567 
L 488.365391 151.134455 
L 490.024033 153.73385 
L 492.511997 158.552163 
L 493.341319 159.567019 
L 494.17064 160.231038 
L 494.999962 160.193375 
L 495.829283 159.518588 
L 496.658604 158.525245 
L 498.317247 154.510242 
L 500.805211 147.577961 
L 504.122497 139.413529 
L 504.951818 137.688989 
L 504.951818 137.688989 
" clip-path="url(#p4eb5dfc75a)" style="fill: none; stroke: #d55e00; stroke-width: 0.9; stroke-linecap: round"/>
   </g>
   <g id="line2d_48">
    <path d="M 387.188182 165.772887 
L 388.846825 169.09726 
L 390.505467 171.182447 
L 391.334789 172.005512 
L 392.16411 172.496074 
L 394.652074 173.506067 
L 395.481396 174.046111 
L 396.310717 174.289958 
L 397.140038 174.380675 
L 397.96936 174.67828 
L 398.798681 174.619809 
L 399.628003 173.816204 
L 400.457324 172.279225 
L 401.286645 170.359544 
L 404.603931 157.483004 
L 405.433252 154.253972 
L 407.091895 149.284961 
L 407.921216 146.534396 
L 410.409181 139.836991 
L 411.238502 137.67224 
L 416.21443 126.867571 
L 417.043752 125.953401 
L 417.873073 125.469791 
L 418.702394 124.310007 
L 419.531716 123.535142 
L 420.361037 123.629212 
L 422.01968 123.295033 
L 423.678323 121.731706 
L 424.507644 120.77841 
L 425.336965 119.426791 
L 427.82493 114.609963 
L 429.483572 112.145675 
L 430.312894 110.828766 
L 431.971536 108.824538 
L 432.800858 107.619271 
L 433.630179 106.833931 
L 436.118143 105.297915 
L 437.776786 105.289942 
L 438.606108 105.355039 
L 439.435429 106.796396 
L 440.26475 108.506262 
L 443.582036 117.574982 
L 444.411357 120.74409 
L 446.899321 133.203094 
L 448.557964 147.673925 
L 449.387286 153.549664 
L 451.045928 163.190906 
L 452.704571 169.72455 
L 453.533892 172.031555 
L 454.363214 173.80846 
L 455.192535 175.274037 
L 456.021857 175.566165 
L 456.851178 175.529254 
L 458.509821 174.026286 
L 459.339142 173.191419 
L 460.997785 172.40852 
L 464.31507 171.267192 
L 465.144392 170.640249 
L 465.973713 169.429847 
L 467.632356 166.208261 
L 470.12032 158.720402 
L 470.949641 156.730961 
L 471.778963 155.062258 
L 472.608284 154.194031 
L 473.437606 153.59969 
L 474.266927 153.590826 
L 475.096248 153.954315 
L 475.92557 154.546408 
L 477.584213 159.021475 
L 479.242855 162.361938 
L 480.901498 165.915981 
L 481.730819 167.355167 
L 482.560141 168.313922 
L 483.389462 168.095321 
L 484.218784 167.14092 
L 485.048105 166.43005 
L 485.877426 166.154362 
L 486.706748 166.959676 
L 487.536069 168.704364 
L 490.853355 178.072159 
L 491.682676 179.715655 
L 492.511997 180.721232 
L 493.341319 179.256393 
L 494.17064 177.16895 
L 496.658604 167.462581 
L 499.146569 158.212052 
L 500.805211 153.474485 
L 503.293175 146.980137 
L 504.122497 145.730076 
L 504.951818 145.025461 
L 504.951818 145.025461 
" clip-path="url(#p4eb5dfc75a)" style="fill: none; stroke: #0072b2; stroke-width: 0.9; stroke-linecap: round"/>
   </g>
   <g id="patch_9">
    <path d="M 381.3 193.914 
L 381.3 101.04 
" style="fill: none; stroke: #111111; stroke-width: 0.75; stroke-linejoin: miter; stroke-linecap: square"/>
   </g>
   <g id="patch_10">
    <path d="M 381.3 193.914 
L 510.84 193.914 
" style="fill: none; stroke: #111111; stroke-width: 0.75; stroke-linejoin: miter; stroke-linecap: square"/>
   </g>
   <g id="text_21">
    <text style="font-size: 7.5px; font-family: 'DejaVu Sans', 'Arial', 'Liberation Sans', 'Bitstream Vera Sans', sans-serif; fill: #262626" transform="translate(418.082109 86.641641)">Ankle flexion R</text>
    <text style="font-size: 7.5px; font-family: 'DejaVu Sans', 'Arial', 'Liberation Sans', 'Bitstream Vera Sans', sans-serif; fill: #262626" transform="translate(386.392266 95.04)">FM 10.3°/r 0.81 · OC 9.5°/r 0.85</text>
   </g>
  </g>
  <g id="axes_4">
   <g id="patch_11">
    <path d="M 40.74 319.26 
L 170.28 319.26 
L 170.28 226.386 
L 40.74 226.386 
z
" style="fill: #ffffff"/>
   </g>
   <g id="matplotlib.axis_7">
    <g id="xtick_10">
     <g id="line2d_49">
      <g>
       <use xlink:href="#mb07a136ee7" x="46.628182" y="319.26" style="fill: #555555; stroke: #555555"/>
      </g>
     </g>
     <g id="text_22">
      <text style="font-size: 6.5px; font-family: 'DejaVu Sans', 'Arial', 'Liberation Sans', 'Bitstream Vera Sans', sans-serif; text-anchor: middle; fill: #555555" x="46.628182" y="332.498984" transform="rotate(-0 46.628182 332.498984)">0.0</text>
     </g>
    </g>
    <g id="xtick_11">
     <g id="line2d_50">
      <g>
       <use xlink:href="#mb07a136ee7" x="88.094251" y="319.26" style="fill: #555555; stroke: #555555"/>
      </g>
     </g>
     <g id="text_23">
      <text style="font-size: 6.5px; font-family: 'DejaVu Sans', 'Arial', 'Liberation Sans', 'Bitstream Vera Sans', sans-serif; text-anchor: middle; fill: #555555" x="88.094251" y="332.498984" transform="rotate(-0 88.094251 332.498984)">0.5</text>
     </g>
    </g>
    <g id="xtick_12">
     <g id="line2d_51">
      <g>
       <use xlink:href="#mb07a136ee7" x="129.56032" y="319.26" style="fill: #555555; stroke: #555555"/>
      </g>
     </g>
     <g id="text_24">
      <text style="font-size: 6.5px; font-family: 'DejaVu Sans', 'Arial', 'Liberation Sans', 'Bitstream Vera Sans', sans-serif; text-anchor: middle; fill: #555555" x="129.56032" y="332.498984" transform="rotate(-0 129.56032 332.498984)">1.0</text>
     </g>
    </g>
    <g id="text_25">
     <text style="font-size: 7px; font-family: 'DejaVu Sans', 'Arial', 'Liberation Sans', 'Bitstream Vera Sans', sans-serif; text-anchor: middle; fill: #111111" x="105.51" y="343.169688" transform="rotate(-0 105.51 343.169688)">Comparison time (s)</text>
    </g>
   </g>
   <g id="matplotlib.axis_8">
    <g id="ytick_16">
     <g id="line2d_52">
      <path d="M 40.74 318.56071 
L 170.28 318.56071 
" clip-path="url(#p32592f0e8e)" style="fill: none; stroke: #e8e8e8; stroke-opacity: 0.55; stroke-width: 0.35; stroke-linecap: round"/>
     </g>
     <g id="line2d_53">
      <g>
       <use xlink:href="#m82c932025c" x="40.74" y="318.56071" style="fill: #555555; stroke: #555555"/>
      </g>
     </g>
     <g id="text_26">
      <text style="font-size: 6.5px; font-family: 'DejaVu Sans', 'Arial', 'Liberation Sans', 'Bitstream Vera Sans', sans-serif; text-anchor: end; fill: #555555" x="32.44" y="321.030203" transform="rotate(-0 32.44 321.030203)">−30</text>
     </g>
    </g>
    <g id="ytick_17">
     <g id="line2d_54">
      <path d="M 40.74 304.010028 
L 170.28 304.010028 
" clip-path="url(#p32592f0e8e)" style="fill: none; stroke: #e8e8e8; stroke-opacity: 0.55; stroke-width: 0.35; stroke-linecap: round"/>
     </g>
     <g id="line2d_55">
      <g>
       <use xlink:href="#m82c932025c" x="40.74" y="304.010028" style="fill: #555555; stroke: #555555"/>
      </g>
     </g>
     <g id="text_27">
      <text style="font-size: 6.5px; font-family: 'DejaVu Sans', 'Arial', 'Liberation Sans', 'Bitstream Vera Sans', sans-serif; text-anchor: end; fill: #555555" x="32.44" y="306.479521" transform="rotate(-0 32.44 306.479521)">−20</text>
     </g>
    </g>
    <g id="ytick_18">
     <g id="line2d_56">
      <path d="M 40.74 289.459346 
L 170.28 289.459346 
" clip-path="url(#p32592f0e8e)" style="fill: none; stroke: #e8e8e8; stroke-opacity: 0.55; stroke-width: 0.35; stroke-linecap: round"/>
     </g>
     <g id="line2d_57">
      <g>
       <use xlink:href="#m82c932025c" x="40.74" y="289.459346" style="fill: #555555; stroke: #555555"/>
      </g>
     </g>
     <g id="text_28">
      <text style="font-size: 6.5px; font-family: 'DejaVu Sans', 'Arial', 'Liberation Sans', 'Bitstream Vera Sans', sans-serif; text-anchor: end; fill: #555555" x="32.44" y="291.928838" transform="rotate(-0 32.44 291.928838)">−10</text>
     </g>
    </g>
    <g id="ytick_19">
     <g id="line2d_58">
      <path d="M 40.74 274.908664 
L 170.28 274.908664 
" clip-path="url(#p32592f0e8e)" style="fill: none; stroke: #e8e8e8; stroke-opacity: 0.55; stroke-width: 0.35; stroke-linecap: round"/>
     </g>
     <g id="line2d_59">
      <g>
       <use xlink:href="#m82c932025c" x="40.74" y="274.908664" style="fill: #555555; stroke: #555555"/>
      </g>
     </g>
     <g id="text_29">
      <text style="font-size: 6.5px; font-family: 'DejaVu Sans', 'Arial', 'Liberation Sans', 'Bitstream Vera Sans', sans-serif; text-anchor: end; fill: #555555" x="32.44" y="277.378156" transform="rotate(-0 32.44 277.378156)">0</text>
     </g>
    </g>
    <g id="ytick_20">
     <g id="line2d_60">
      <path d="M 40.74 260.357982 
L 170.28 260.357982 
" clip-path="url(#p32592f0e8e)" style="fill: none; stroke: #e8e8e8; stroke-opacity: 0.55; stroke-width: 0.35; stroke-linecap: round"/>
     </g>
     <g id="line2d_61">
      <g>
       <use xlink:href="#m82c932025c" x="40.74" y="260.357982" style="fill: #555555; stroke: #555555"/>
      </g>
     </g>
     <g id="text_30">
      <text style="font-size: 6.5px; font-family: 'DejaVu Sans', 'Arial', 'Liberation Sans', 'Bitstream Vera Sans', sans-serif; text-anchor: end; fill: #555555" x="32.44" y="262.827474" transform="rotate(-0 32.44 262.827474)">10</text>
     </g>
    </g>
    <g id="ytick_21">
     <g id="line2d_62">
      <path d="M 40.74 245.8073 
L 170.28 245.8073 
" clip-path="url(#p32592f0e8e)" style="fill: none; stroke: #e8e8e8; stroke-opacity: 0.55; stroke-width: 0.35; stroke-linecap: round"/>
     </g>
     <g id="line2d_63">
      <g>
       <use xlink:href="#m82c932025c" x="40.74" y="245.8073" style="fill: #555555; stroke: #555555"/>
      </g>
     </g>
     <g id="text_31">
      <text style="font-size: 6.5px; font-family: 'DejaVu Sans', 'Arial', 'Liberation Sans', 'Bitstream Vera Sans', sans-serif; text-anchor: end; fill: #555555" x="32.44" y="248.276792" transform="rotate(-0 32.44 248.276792)">20</text>
     </g>
    </g>
    <g id="ytick_22">
     <g id="line2d_64">
      <path d="M 40.74 231.256618 
L 170.28 231.256618 
" clip-path="url(#p32592f0e8e)" style="fill: none; stroke: #e8e8e8; stroke-opacity: 0.55; stroke-width: 0.35; stroke-linecap: round"/>
     </g>
     <g id="line2d_65">
      <g>
       <use xlink:href="#m82c932025c" x="40.74" y="231.256618" style="fill: #555555; stroke: #555555"/>
      </g>
     </g>
     <g id="text_32">
      <text style="font-size: 6.5px; font-family: 'DejaVu Sans', 'Arial', 'Liberation Sans', 'Bitstream Vera Sans', sans-serif; text-anchor: end; fill: #555555" x="32.44" y="233.72611" transform="rotate(-0 32.44 233.72611)">30</text>
     </g>
    </g>
    <g id="text_33">
     <text style="font-size: 7px; font-family: 'DejaVu Sans', 'Arial', 'Liberation Sans', 'Bitstream Vera Sans', sans-serif; text-anchor: middle; fill: #111111" x="13.266172" y="272.823" transform="rotate(-90 13.266172 272.823)">deg</text>
    </g>
   </g>
   <g id="line2d_66">
    <path d="M 46.628182 309.474759 
L 47.457503 310.101244 
L 48.286825 310.536277 
L 52.433431 313.501083 
L 54.092074 314.200841 
L 54.921396 314.362645 
L 55.750717 313.960411 
L 56.580038 314.202598 
L 58.238681 313.202078 
L 59.897324 311.8297 
L 60.726645 310.741258 
L 61.555967 308.012395 
L 62.385288 306.768042 
L 64.043931 300.041728 
L 64.873252 297.581805 
L 65.702574 294.056386 
L 67.361216 288.780608 
L 69.849181 281.222517 
L 73.995787 270.778159 
L 74.825109 268.394998 
L 78.971716 258.462644 
L 79.801037 257.254683 
L 81.45968 254.02968 
L 82.289001 253.861644 
L 83.118323 252.728238 
L 83.947644 252.007431 
L 84.776965 250.787821 
L 85.606287 250.659554 
L 86.435608 250.235973 
L 87.26493 250.344578 
L 88.094251 251.008121 
L 89.752894 251.813551 
L 90.582215 251.456542 
L 91.411536 253.199559 
L 92.240858 253.291549 
L 93.070179 254.800954 
L 93.899501 254.830512 
L 95.558143 256.257185 
L 96.387465 257.671656 
L 97.216786 257.835635 
L 100.534072 259.780446 
L 101.363393 260.400394 
L 102.192714 261.382665 
L 104.680679 265.035675 
L 106.339321 267.872816 
L 107.168643 268.078338 
L 108.827286 271.653937 
L 109.656607 271.155701 
L 110.485928 273.456482 
L 111.31525 273.953299 
L 112.973892 278.730776 
L 116.291178 286.935341 
L 117.949821 290.514541 
L 118.779142 292.011764 
L 119.608464 293.268822 
L 120.437785 293.995124 
L 121.267106 295.051893 
L 123.75507 297.308304 
L 125.413713 298.336722 
L 127.072356 299.677988 
L 127.901677 300.201403 
L 128.730999 300.863523 
L 129.56032 301.37453 
L 130.389641 302.609644 
L 131.218963 302.992083 
L 132.877606 304.974713 
L 133.706927 305.190377 
L 134.536248 306.201362 
L 135.36557 306.427764 
L 136.194891 306.799495 
L 137.024213 308.173719 
L 138.682855 309.83987 
L 139.512177 310.182045 
L 140.341498 310.965503 
L 141.170819 312.064611 
L 142.000141 312.748056 
L 142.829462 313.137112 
L 145.317426 314.585332 
L 146.146748 314.571068 
L 146.976069 314.974668 
L 147.805391 315.038455 
L 148.634712 314.70723 
L 149.464033 314.756258 
L 150.293355 314.347903 
L 151.122676 314.238095 
L 151.951997 313.259268 
L 152.781319 312.598854 
L 154.439962 309.097337 
L 155.269283 307.259128 
L 156.098604 304.57615 
L 157.757247 298.167597 
L 161.903854 284.243829 
L 164.391818 277.690025 
L 164.391818 277.690025 
" clip-path="url(#p32592f0e8e)" style="fill: none; stroke: #111111; stroke-width: 0.9; stroke-linecap: round"/>
   </g>
   <g id="line2d_67">
    <path d="M 46.628182 286.408521 
L 48.286825 289.451806 
L 49.945467 289.826984 
L 50.774789 290.1893 
L 51.60411 290.245453 
L 52.433431 290.148526 
L 54.921396 292.244878 
L 55.750717 292.625213 
L 57.40936 293.034386 
L 58.238681 292.973936 
L 59.068003 292.415475 
L 60.726645 290.601582 
L 64.043931 284.392061 
L 65.702574 282.113202 
L 66.531895 280.976951 
L 67.361216 279.650673 
L 69.019859 276.011433 
L 71.507823 268.130508 
L 73.995787 260.411169 
L 74.825109 258.195776 
L 76.483752 254.639663 
L 77.313073 253.023339 
L 79.801037 247.231881 
L 82.289001 241.385059 
L 83.947644 237.925668 
L 85.606287 234.815254 
L 86.435608 233.637849 
L 87.26493 232.739892 
L 89.752894 231.654075 
L 90.582215 231.212288 
L 91.411536 231.083782 
L 92.240858 231.581846 
L 93.070179 231.81397 
L 93.899501 231.913126 
L 95.558143 233.488396 
L 96.387465 234.574391 
L 98.046108 237.41995 
L 98.875429 237.967576 
L 99.70475 238.670464 
L 100.534072 239.68388 
L 101.363393 240.401163 
L 102.192714 240.97038 
L 104.680679 243.792855 
L 110.485928 251.394587 
L 112.144571 254.109031 
L 113.803214 257.447062 
L 115.461857 261.4367 
L 117.949821 267.954538 
L 122.096428 279.026551 
L 124.584392 284.029186 
L 127.072356 288.353726 
L 128.730999 290.479693 
L 130.389641 291.823819 
L 131.218963 292.422039 
L 135.36557 294.819849 
L 137.853534 298.439123 
L 141.170819 303.482983 
L 142.829462 304.879766 
L 143.658784 305.437518 
L 146.146748 306.409943 
L 147.805391 306.791009 
L 149.464033 306.683956 
L 150.293355 306.412612 
L 151.122676 305.75777 
L 151.951997 304.911182 
L 152.781319 303.144672 
L 153.61064 301.059489 
L 154.439962 298.33695 
L 156.927926 288.536417 
L 159.41589 278.99709 
L 161.074533 273.293753 
L 164.391818 263.119802 
L 164.391818 263.119802 
" clip-path="url(#p32592f0e8e)" style="fill: none; stroke: #d55e00; stroke-width: 0.9; stroke-linecap: round"/>
   </g>
   <g id="line2d_68">
    <path d="M 46.628182 292.18161 
L 48.286825 295.556312 
L 49.945467 297.640475 
L 50.774789 299.072283 
L 51.60411 300.099431 
L 52.433431 300.919324 
L 54.092074 302.84473 
L 55.750717 304.218902 
L 57.40936 305.281517 
L 58.238681 305.463807 
L 59.068003 304.969682 
L 59.897324 304.749065 
L 60.726645 304.671175 
L 64.043931 295.633289 
L 65.702574 290.233598 
L 67.361216 285.079314 
L 68.190538 281.419952 
L 69.019859 277.102263 
L 71.507823 266.681822 
L 73.995787 257.06811 
L 75.65443 251.134441 
L 78.142394 243.173009 
L 78.971716 241.054967 
L 79.801037 240.302115 
L 80.630359 239.188869 
L 82.289001 236.488434 
L 83.947644 233.481727 
L 84.776965 232.647384 
L 85.606287 232.214105 
L 87.26493 231.066707 
L 88.923572 230.698807 
L 89.752894 230.607545 
L 92.240858 231.015386 
L 93.899501 231.322752 
L 94.728822 231.231713 
L 95.558143 231.318974 
L 96.387465 231.827437 
L 97.216786 231.881578 
L 98.046108 231.678274 
L 99.70475 233.007696 
L 101.363393 233.620204 
L 102.192714 233.835307 
L 103.022036 234.234384 
L 103.851357 234.770447 
L 104.680679 235.610189 
L 105.51 235.996468 
L 106.339321 236.121196 
L 107.168643 236.839581 
L 107.997964 237.712666 
L 109.656607 240.254388 
L 110.485928 241.705907 
L 112.144571 243.802502 
L 113.803214 246.075016 
L 117.120499 249.912415 
L 118.779142 251.788673 
L 119.608464 252.905621 
L 120.437785 254.252822 
L 122.096428 257.880531 
L 123.75507 260.996023 
L 125.413713 264.273029 
L 126.243035 266.634834 
L 127.901677 271.787825 
L 130.389641 278.558215 
L 131.218963 280.595241 
L 132.048284 282.001911 
L 132.877606 283.637935 
L 133.706927 285.919058 
L 134.536248 287.714147 
L 135.36557 289.210838 
L 136.194891 289.978041 
L 137.024213 291.08813 
L 137.853534 293.15078 
L 138.682855 294.750714 
L 141.170819 298.671192 
L 142.000141 299.772691 
L 142.829462 300.534346 
L 145.317426 302.133738 
L 146.976069 303.129415 
L 148.634712 304.380284 
L 149.464033 304.857186 
L 150.293355 304.950862 
L 151.122676 304.562297 
L 151.951997 303.867094 
L 153.61064 300.288371 
L 155.269283 295.282814 
L 157.757247 287.12698 
L 158.586569 285.384986 
L 159.41589 282.151912 
L 160.245211 277.95385 
L 161.903854 273.611984 
L 162.733175 270.800407 
L 163.562497 266.971566 
L 164.391818 262.47856 
L 164.391818 262.47856 
" clip-path="url(#p32592f0e8e)" style="fill: none; stroke: #0072b2; stroke-width: 0.9; stroke-linecap: round"/>
   </g>
   <g id="patch_12">
    <path d="M 40.74 319.26 
L 40.74 226.386 
" style="fill: none; stroke: #111111; stroke-width: 0.75; stroke-linejoin: miter; stroke-linecap: square"/>
   </g>
   <g id="patch_13">
    <path d="M 40.74 319.26 
L 170.28 319.26 
" style="fill: none; stroke: #111111; stroke-width: 0.75; stroke-linejoin: miter; stroke-linecap: square"/>
   </g>
   <g id="text_34">
    <text style="font-size: 7.5px; font-family: 'DejaVu Sans', 'Arial', 'Liberation Sans', 'Bitstream Vera Sans', sans-serif; fill: #262626" transform="translate(82.258242 211.987641)">Hip flexion L</text>
    <text style="font-size: 7.5px; font-family: 'DejaVu Sans', 'Arial', 'Liberation Sans', 'Bitstream Vera Sans', sans-serif; fill: #262626" transform="translate(43.446328 220.386)">FM 14.7°/r 0.94 · OC 11.4°/r 0.98</text>
   </g>
  </g>
  <g id="axes_5">
   <g id="patch_14">
    <path d="M 211.02 319.26 
L 340.56 319.26 
L 340.56 226.386 
L 211.02 226.386 
z
" style="fill: #ffffff"/>
   </g>
   <g id="matplotlib.axis_9">
    <g id="xtick_13">
     <g id="line2d_69">
      <g>
       <use xlink:href="#mb07a136ee7" x="216.908182" y="319.26" style="fill: #555555; stroke: #555555"/>
      </g>
     </g>
     <g id="text_35">
      <text style="font-size: 6.5px; font-family: 'DejaVu Sans', 'Arial', 'Liberation Sans', 'Bitstream Vera Sans', sans-serif; text-anchor: middle; fill: #555555" x="216.908182" y="332.498984" transform="rotate(-0 216.908182 332.498984)">0.0</text>
     </g>
    </g>
    <g id="xtick_14">
     <g id="line2d_70">
      <g>
       <use xlink:href="#mb07a136ee7" x="258.374251" y="319.26" style="fill: #555555; stroke: #555555"/>
      </g>
     </g>
     <g id="text_36">
      <text style="font-size: 6.5px; font-family: 'DejaVu Sans', 'Arial', 'Liberation Sans', 'Bitstream Vera Sans', sans-serif; text-anchor: middle; fill: #555555" x="258.374251" y="332.498984" transform="rotate(-0 258.374251 332.498984)">0.5</text>
     </g>
    </g>
    <g id="xtick_15">
     <g id="line2d_71">
      <g>
       <use xlink:href="#mb07a136ee7" x="299.84032" y="319.26" style="fill: #555555; stroke: #555555"/>
      </g>
     </g>
     <g id="text_37">
      <text style="font-size: 6.5px; font-family: 'DejaVu Sans', 'Arial', 'Liberation Sans', 'Bitstream Vera Sans', sans-serif; text-anchor: middle; fill: #555555" x="299.84032" y="332.498984" transform="rotate(-0 299.84032 332.498984)">1.0</text>
     </g>
    </g>
    <g id="text_38">
     <text style="font-size: 7px; font-family: 'DejaVu Sans', 'Arial', 'Liberation Sans', 'Bitstream Vera Sans', sans-serif; text-anchor: middle; fill: #111111" x="275.79" y="343.169688" transform="rotate(-0 275.79 343.169688)">Comparison time (s)</text>
    </g>
   </g>
   <g id="matplotlib.axis_10">
    <g id="ytick_23">
     <g id="line2d_72">
      <path d="M 211.02 315.038455 
L 340.56 315.038455 
" clip-path="url(#p0d7d19d5e4)" style="fill: none; stroke: #e8e8e8; stroke-opacity: 0.55; stroke-width: 0.35; stroke-linecap: round"/>
     </g>
     <g id="line2d_73">
      <g>
       <use xlink:href="#m82c932025c" x="211.02" y="315.038455" style="fill: #555555; stroke: #555555"/>
      </g>
     </g>
     <g id="text_39">
      <text style="font-size: 6.5px; font-family: 'DejaVu Sans', 'Arial', 'Liberation Sans', 'Bitstream Vera Sans', sans-serif; text-anchor: end; fill: #555555" x="202.72" y="317.507947" transform="rotate(-0 202.72 317.507947)">0</text>
     </g>
    </g>
    <g id="ytick_24">
     <g id="line2d_74">
      <path d="M 211.02 291.781391 
L 340.56 291.781391 
" clip-path="url(#p0d7d19d5e4)" style="fill: none; stroke: #e8e8e8; stroke-opacity: 0.55; stroke-width: 0.35; stroke-linecap: round"/>
     </g>
     <g id="line2d_75">
      <g>
       <use xlink:href="#m82c932025c" x="211.02" y="291.781391" style="fill: #555555; stroke: #555555"/>
      </g>
     </g>
     <g id="text_40">
      <text style="font-size: 6.5px; font-family: 'DejaVu Sans', 'Arial', 'Liberation Sans', 'Bitstream Vera Sans', sans-serif; text-anchor: end; fill: #555555" x="202.72" y="294.250883" transform="rotate(-0 202.72 294.250883)">20</text>
     </g>
    </g>
    <g id="ytick_25">
     <g id="line2d_76">
      <path d="M 211.02 268.524327 
L 340.56 268.524327 
" clip-path="url(#p0d7d19d5e4)" style="fill: none; stroke: #e8e8e8; stroke-opacity: 0.55; stroke-width: 0.35; stroke-linecap: round"/>
     </g>
     <g id="line2d_77">
      <g>
       <use xlink:href="#m82c932025c" x="211.02" y="268.524327" style="fill: #555555; stroke: #555555"/>
      </g>
     </g>
     <g id="text_41">
      <text style="font-size: 6.5px; font-family: 'DejaVu Sans', 'Arial', 'Liberation Sans', 'Bitstream Vera Sans', sans-serif; text-anchor: end; fill: #555555" x="202.72" y="270.993819" transform="rotate(-0 202.72 270.993819)">40</text>
     </g>
    </g>
    <g id="ytick_26">
     <g id="line2d_78">
      <path d="M 211.02 245.267263 
L 340.56 245.267263 
" clip-path="url(#p0d7d19d5e4)" style="fill: none; stroke: #e8e8e8; stroke-opacity: 0.55; stroke-width: 0.35; stroke-linecap: round"/>
     </g>
     <g id="line2d_79">
      <g>
       <use xlink:href="#m82c932025c" x="211.02" y="245.267263" style="fill: #555555; stroke: #555555"/>
      </g>
     </g>
     <g id="text_42">
      <text style="font-size: 6.5px; font-family: 'DejaVu Sans', 'Arial', 'Liberation Sans', 'Bitstream Vera Sans', sans-serif; text-anchor: end; fill: #555555" x="202.72" y="247.736755" transform="rotate(-0 202.72 247.736755)">60</text>
     </g>
    </g>
    <g id="text_43">
     <text style="font-size: 7px; font-family: 'DejaVu Sans', 'Arial', 'Liberation Sans', 'Bitstream Vera Sans', sans-serif; text-anchor: middle; fill: #111111" x="188.992969" y="272.823" transform="rotate(-90 188.992969 272.823)">deg</text>
    </g>
   </g>
   <g id="line2d_80">
    <path d="M 216.908182 309.421527 
L 218.566825 308.60663 
L 220.225467 307.570503 
L 221.88411 306.047134 
L 222.713431 305.175478 
L 224.372074 302.803034 
L 225.201396 301.316566 
L 226.860038 297.73465 
L 228.518681 292.263895 
L 230.177324 285.833668 
L 231.006645 281.869599 
L 231.835967 276.949935 
L 232.665288 272.731813 
L 234.323931 262.367104 
L 236.811895 248.875284 
L 238.470538 241.876976 
L 239.299859 238.927029 
L 240.129181 236.498571 
L 240.958502 234.557314 
L 241.787823 233.04762 
L 242.617145 231.925535 
L 243.446466 231.162468 
L 244.275787 230.755148 
L 245.105109 230.607545 
L 245.93443 230.870061 
L 246.763752 231.562921 
L 247.593073 232.584265 
L 249.251716 235.34841 
L 251.73968 242.477216 
L 255.056965 255.72524 
L 257.54493 268.311719 
L 263.350179 300.281152 
L 265.008822 306.865595 
L 265.838143 309.164136 
L 266.667465 310.786138 
L 267.496786 311.142952 
L 268.326108 311.124254 
L 269.155429 310.62929 
L 269.98475 309.638987 
L 270.814072 308.85505 
L 272.472714 308.048599 
L 273.302036 308.093986 
L 274.131357 307.722214 
L 274.960679 307.753154 
L 276.619321 306.541129 
L 277.448643 305.455836 
L 279.107286 303.913663 
L 279.936607 302.783157 
L 281.59525 302.32322 
L 282.424571 302.674261 
L 283.253892 303.360825 
L 284.083214 304.513246 
L 287.400499 308.301072 
L 289.059142 309.742649 
L 289.888464 310.24013 
L 290.717785 310.357999 
L 291.547106 310.661822 
L 294.03507 310.528083 
L 296.523035 310.046991 
L 301.498963 309.913184 
L 302.328284 309.814141 
L 303.986927 309.828707 
L 304.816248 309.668314 
L 306.474891 309.553608 
L 308.133534 309.370109 
L 308.962855 309.26164 
L 311.450819 308.263286 
L 312.280141 307.72193 
L 314.768105 305.395923 
L 315.597426 304.244777 
L 318.085391 299.64653 
L 319.744033 295.535916 
L 321.402676 290.426838 
L 323.061319 283.094306 
L 325.549283 269.3617 
L 328.037247 254.469616 
L 329.69589 246.216334 
L 331.354533 239.671252 
L 332.183854 237.104946 
L 333.013175 235.065657 
L 333.842497 233.435106 
L 334.671818 232.327644 
L 334.671818 232.327644 
" clip-path="url(#p0d7d19d5e4)" style="fill: none; stroke: #111111; stroke-width: 0.9; stroke-linecap: round"/>
   </g>
   <g id="line2d_81">
    <path d="M 216.908182 305.930502 
L 218.566825 305.670122 
L 224.372074 301.636774 
L 225.201396 300.857514 
L 226.030717 299.574641 
L 227.68936 296.271619 
L 228.518681 294.205647 
L 229.348003 291.544413 
L 231.006645 284.884767 
L 233.494609 272.453661 
L 235.153252 265.535482 
L 238.470538 254.642186 
L 240.129181 248.230796 
L 241.787823 241.879046 
L 243.446466 236.902397 
L 244.275787 235.574581 
L 245.105109 234.625002 
L 245.93443 234.431912 
L 246.763752 234.825121 
L 247.593073 235.511477 
L 248.422394 236.949817 
L 249.251716 238.671039 
L 251.73968 245.604986 
L 255.056965 256.740461 
L 256.715608 263.281983 
L 259.203572 274.103222 
L 261.691536 285.802252 
L 263.350179 293.71427 
L 265.008822 300.458581 
L 265.838143 303.365065 
L 266.667465 305.835153 
L 267.496786 307.713551 
L 268.326108 309.296106 
L 269.155429 309.871799 
L 269.98475 310.164901 
L 270.814072 309.892812 
L 271.643393 309.337995 
L 276.619321 305.2807 
L 279.936607 302.863143 
L 280.765928 302.367711 
L 282.424571 301.791633 
L 283.253892 301.726289 
L 284.083214 301.964451 
L 284.912535 302.354363 
L 287.400499 304.292413 
L 289.059142 306.02481 
L 292.376428 309.646168 
L 295.693713 313.025585 
L 297.352356 314.301211 
L 298.181677 314.743556 
L 299.010999 315.038455 
L 310.621498 315.038455 
L 311.450819 314.882715 
L 313.109462 313.841255 
L 313.938784 313.213515 
L 315.597426 311.330367 
L 316.426748 310.155646 
L 318.085391 307.165763 
L 319.744033 303.27415 
L 320.573355 300.933666 
L 322.231997 294.877159 
L 323.89064 285.531613 
L 328.037247 258.387349 
L 329.69589 250.032541 
L 330.525211 246.356304 
L 332.183854 240.572603 
L 333.013175 238.224929 
L 334.671818 234.691088 
L 334.671818 234.691088 
" clip-path="url(#p0d7d19d5e4)" style="fill: none; stroke: #d55e00; stroke-width: 0.9; stroke-linecap: round"/>
   </g>
   <g id="line2d_82">
    <path d="M 216.908182 314.057649 
L 219.396146 314.117082 
L 222.713431 313.978679 
L 224.372074 313.453654 
L 225.201396 313.008961 
L 226.860038 311.410879 
L 227.68936 310.04276 
L 228.518681 308.436317 
L 230.177324 303.999145 
L 231.006645 301.526427 
L 232.665288 293.504121 
L 235.153252 279.043939 
L 240.129181 249.019732 
L 240.958502 244.922382 
L 241.787823 241.426535 
L 243.446466 235.827035 
L 245.105109 233.070092 
L 245.93443 232.253918 
L 246.763752 232.200041 
L 247.593073 232.558799 
L 248.422394 233.49282 
L 249.251716 234.909694 
L 250.910359 240.114156 
L 251.73968 243.039243 
L 253.398323 250.316936 
L 255.056965 258.520566 
L 260.032894 284.323953 
L 262.520858 295.846099 
L 264.179501 302.007097 
L 265.838143 306.342278 
L 266.667465 307.86974 
L 267.496786 308.682413 
L 268.326108 309.090043 
L 269.155429 309.204556 
L 269.98475 309.128952 
L 270.814072 308.637337 
L 271.643393 307.862502 
L 272.472714 306.925782 
L 276.619321 301.290619 
L 278.277964 299.610449 
L 279.107286 299.029631 
L 279.936607 298.673118 
L 280.765928 298.447157 
L 282.424571 298.412152 
L 284.083214 298.684608 
L 286.571178 299.3226 
L 289.059142 300.946899 
L 290.717785 302.647567 
L 292.376428 304.64909 
L 293.205749 305.561541 
L 294.864392 306.859013 
L 297.352356 309.117782 
L 299.84032 310.934015 
L 301.498963 311.840198 
L 303.157606 312.422369 
L 303.986927 312.986673 
L 305.64557 313.626259 
L 307.304213 313.729108 
L 308.133534 313.891328 
L 309.792177 313.863909 
L 313.938784 312.97076 
L 315.597426 312.375541 
L 316.426748 311.904673 
L 318.085391 310.488313 
L 318.914712 309.338454 
L 319.744033 307.91075 
L 320.573355 305.820476 
L 322.231997 300.371091 
L 323.89064 292.247469 
L 326.378604 277.226766 
L 328.037247 267.340072 
L 329.69589 258.331433 
L 330.525211 253.336169 
L 333.013175 243.023027 
L 334.671818 236.486174 
L 334.671818 236.486174 
" clip-path="url(#p0d7d19d5e4)" style="fill: none; stroke: #0072b2; stroke-width: 0.9; stroke-linecap: round"/>
   </g>
   <g id="patch_15">
    <path d="M 211.02 319.26 
L 211.02 226.386 
" style="fill: none; stroke: #111111; stroke-width: 0.75; stroke-linejoin: miter; stroke-linecap: square"/>
   </g>
   <g id="patch_16">
    <path d="M 211.02 319.26 
L 340.56 319.26 
" style="fill: none; stroke: #111111; stroke-width: 0.75; stroke-linejoin: miter; stroke-linecap: square"/>
   </g>
   <g id="text_44">
    <text style="font-size: 7.5px; font-family: 'DejaVu Sans', 'Arial', 'Liberation Sans', 'Bitstream Vera Sans', sans-serif; fill: #262626" transform="translate(249.330234 211.987641)">Knee flexion L</text>
    <text style="font-size: 7.5px; font-family: 'DejaVu Sans', 'Arial', 'Liberation Sans', 'Bitstream Vera Sans', sans-serif; fill: #262626" transform="translate(218.498203 220.386)">FM 7.7°/r 0.96 · OC 4.3°/r 0.99</text>
   </g>
  </g>
  <g id="axes_6">
   <g id="patch_17">
    <path d="M 381.3 319.26 
L 510.84 319.26 
L 510.84 226.386 
L 381.3 226.386 
z
" style="fill: #ffffff"/>
   </g>
   <g id="matplotlib.axis_11">
    <g id="xtick_16">
     <g id="line2d_83">
      <g>
       <use xlink:href="#mb07a136ee7" x="387.188182" y="319.26" style="fill: #555555; stroke: #555555"/>
      </g>
     </g>
     <g id="text_45">
      <text style="font-size: 6.5px; font-family: 'DejaVu Sans', 'Arial', 'Liberation Sans', 'Bitstream Vera Sans', sans-serif; text-anchor: middle; fill: #555555" x="387.188182" y="332.498984" transform="rotate(-0 387.188182 332.498984)">0.0</text>
     </g>
    </g>
    <g id="xtick_17">
     <g id="line2d_84">
      <g>
       <use xlink:href="#mb07a136ee7" x="428.654251" y="319.26" style="fill: #555555; stroke: #555555"/>
      </g>
     </g>
     <g id="text_46">
      <text style="font-size: 6.5px; font-family: 'DejaVu Sans', 'Arial', 'Liberation Sans', 'Bitstream Vera Sans', sans-serif; text-anchor: middle; fill: #555555" x="428.654251" y="332.498984" transform="rotate(-0 428.654251 332.498984)">0.5</text>
     </g>
    </g>
    <g id="xtick_18">
     <g id="line2d_85">
      <g>
       <use xlink:href="#mb07a136ee7" x="470.12032" y="319.26" style="fill: #555555; stroke: #555555"/>
      </g>
     </g>
     <g id="text_47">
      <text style="font-size: 6.5px; font-family: 'DejaVu Sans', 'Arial', 'Liberation Sans', 'Bitstream Vera Sans', sans-serif; text-anchor: middle; fill: #555555" x="470.12032" y="332.498984" transform="rotate(-0 470.12032 332.498984)">1.0</text>
     </g>
    </g>
    <g id="text_48">
     <text style="font-size: 7px; font-family: 'DejaVu Sans', 'Arial', 'Liberation Sans', 'Bitstream Vera Sans', sans-serif; text-anchor: middle; fill: #111111" x="446.07" y="343.169688" transform="rotate(-0 446.07 343.169688)">Comparison time (s)</text>
    </g>
   </g>
   <g id="matplotlib.axis_12">
    <g id="ytick_27">
     <g id="line2d_86">
      <path d="M 381.3 308.126079 
L 510.84 308.126079 
" clip-path="url(#p017cb9e027)" style="fill: none; stroke: #e8e8e8; stroke-opacity: 0.55; stroke-width: 0.35; stroke-linecap: round"/>
     </g>
     <g id="line2d_87">
      <g>
       <use xlink:href="#m82c932025c" x="381.3" y="308.126079" style="fill: #555555; stroke: #555555"/>
      </g>
     </g>
     <g id="text_49">
      <text style="font-size: 6.5px; font-family: 'DejaVu Sans', 'Arial', 'Liberation Sans', 'Bitstream Vera Sans', sans-serif; text-anchor: end; fill: #555555" x="373" y="310.595571" transform="rotate(-0 373 310.595571)">−10</text>
     </g>
    </g>
    <g id="ytick_28">
     <g id="line2d_88">
      <path d="M 381.3 288.278056 
L 510.84 288.278056 
" clip-path="url(#p017cb9e027)" style="fill: none; stroke: #e8e8e8; stroke-opacity: 0.55; stroke-width: 0.35; stroke-linecap: round"/>
     </g>
     <g id="line2d_89">
      <g>
       <use xlink:href="#m82c932025c" x="381.3" y="288.278056" style="fill: #555555; stroke: #555555"/>
      </g>
     </g>
     <g id="text_50">
      <text style="font-size: 6.5px; font-family: 'DejaVu Sans', 'Arial', 'Liberation Sans', 'Bitstream Vera Sans', sans-serif; text-anchor: end; fill: #555555" x="373" y="290.747548" transform="rotate(-0 373 290.747548)">0</text>
     </g>
    </g>
    <g id="ytick_29">
     <g id="line2d_90">
      <path d="M 381.3 268.430033 
L 510.84 268.430033 
" clip-path="url(#p017cb9e027)" style="fill: none; stroke: #e8e8e8; stroke-opacity: 0.55; stroke-width: 0.35; stroke-linecap: round"/>
     </g>
     <g id="line2d_91">
      <g>
       <use xlink:href="#m82c932025c" x="381.3" y="268.430033" style="fill: #555555; stroke: #555555"/>
      </g>
     </g>
     <g id="text_51">
      <text style="font-size: 6.5px; font-family: 'DejaVu Sans', 'Arial', 'Liberation Sans', 'Bitstream Vera Sans', sans-serif; text-anchor: end; fill: #555555" x="373" y="270.899525" transform="rotate(-0 373 270.899525)">10</text>
     </g>
    </g>
    <g id="ytick_30">
     <g id="line2d_92">
      <path d="M 381.3 248.582009 
L 510.84 248.582009 
" clip-path="url(#p017cb9e027)" style="fill: none; stroke: #e8e8e8; stroke-opacity: 0.55; stroke-width: 0.35; stroke-linecap: round"/>
     </g>
     <g id="line2d_93">
      <g>
       <use xlink:href="#m82c932025c" x="381.3" y="248.582009" style="fill: #555555; stroke: #555555"/>
      </g>
     </g>
     <g id="text_52">
      <text style="font-size: 6.5px; font-family: 'DejaVu Sans', 'Arial', 'Liberation Sans', 'Bitstream Vera Sans', sans-serif; text-anchor: end; fill: #555555" x="373" y="251.051501" transform="rotate(-0 373 251.051501)">20</text>
     </g>
    </g>
    <g id="ytick_31">
     <g id="line2d_94">
      <path d="M 381.3 228.733986 
L 510.84 228.733986 
" clip-path="url(#p017cb9e027)" style="fill: none; stroke: #e8e8e8; stroke-opacity: 0.55; stroke-width: 0.35; stroke-linecap: round"/>
     </g>
     <g id="line2d_95">
      <g>
       <use xlink:href="#m82c932025c" x="381.3" y="228.733986" style="fill: #555555; stroke: #555555"/>
      </g>
     </g>
     <g id="text_53">
      <text style="font-size: 6.5px; font-family: 'DejaVu Sans', 'Arial', 'Liberation Sans', 'Bitstream Vera Sans', sans-serif; text-anchor: end; fill: #555555" x="373" y="231.203478" transform="rotate(-0 373 231.203478)">30</text>
     </g>
    </g>
    <g id="text_54">
     <text style="font-size: 7px; font-family: 'DejaVu Sans', 'Arial', 'Liberation Sans', 'Bitstream Vera Sans', sans-serif; text-anchor: middle; fill: #111111" x="353.826172" y="272.823" transform="rotate(-90 353.826172 272.823)">deg</text>
    </g>
   </g>
   <g id="line2d_96">
    <path d="M 387.188182 243.20961 
L 388.846825 241.610517 
L 391.334789 239.636628 
L 392.16411 239.15131 
L 392.993431 238.949682 
L 393.822753 238.53314 
L 394.652074 238.311747 
L 395.481396 238.275893 
L 396.310717 237.762787 
L 397.140038 239.332607 
L 397.96936 239.549 
L 398.798681 241.230153 
L 399.628003 243.602358 
L 401.286645 251.20495 
L 402.115967 254.230788 
L 404.603931 270.688927 
L 406.262574 283.131588 
L 407.091895 288.770172 
L 407.921216 293.439709 
L 408.750538 296.398884 
L 409.579859 297.651388 
L 410.409181 297.09149 
L 411.238502 294.822036 
L 413.726466 285.153647 
L 414.555787 282.371671 
L 415.385109 280.036273 
L 418.702394 273.001922 
L 419.531716 272.391513 
L 420.361037 269.671094 
L 421.190359 268.137453 
L 422.01968 267.575777 
L 422.849001 266.496874 
L 423.678323 266.12174 
L 425.336965 266.182542 
L 426.166287 266.652837 
L 428.654251 267.365857 
L 430.312894 267.012667 
L 431.142215 266.866263 
L 431.971536 266.021002 
L 432.800858 265.600813 
L 433.630179 265.042165 
L 434.459501 263.824131 
L 435.288822 263.72311 
L 436.118143 262.991707 
L 436.947465 262.743775 
L 437.776786 261.939563 
L 438.606108 261.50159 
L 439.435429 261.472838 
L 440.26475 261.875481 
L 441.094072 263.023666 
L 441.923393 265.445325 
L 442.752714 267.447104 
L 443.582036 270.646799 
L 444.411357 271.644215 
L 445.240679 274.328504 
L 446.07 275.069054 
L 446.899321 274.214104 
L 447.728643 274.196433 
L 450.216607 269.488522 
L 451.045928 267.607581 
L 451.87525 266.237091 
L 452.704571 265.08592 
L 453.533892 264.423371 
L 455.192535 263.978615 
L 456.851178 263.203717 
L 458.509821 262.768088 
L 460.168464 261.901381 
L 460.997785 261.125526 
L 461.827106 260.620587 
L 463.485749 259.241272 
L 464.31507 259.09421 
L 465.144392 257.774471 
L 466.803035 256.367771 
L 467.632356 255.768852 
L 468.461677 255.396854 
L 469.290999 254.445308 
L 470.12032 253.988348 
L 470.949641 253.077324 
L 471.778963 252.66259 
L 472.608284 251.802395 
L 473.437606 251.370947 
L 474.266927 250.74601 
L 475.096248 249.907813 
L 480.072177 246.482154 
L 484.218784 243.927337 
L 485.048105 244.064385 
L 485.877426 244.030433 
L 486.706748 242.754898 
L 487.536069 243.086647 
L 489.194712 242.862353 
L 490.024033 243.894337 
L 490.853355 244.453244 
L 491.682676 247.033579 
L 492.511997 248.216166 
L 493.341319 251.750211 
L 494.17064 254.654649 
L 494.999962 259.333613 
L 497.487926 277.291325 
L 499.146569 289.704704 
L 499.97589 294.393702 
L 500.805211 297.490821 
L 501.634533 298.359299 
L 502.463854 297.401941 
L 503.293175 295.027358 
L 504.122497 291.776382 
L 504.951818 287.93368 
L 504.951818 287.93368 
" clip-path="url(#p017cb9e027)" style="fill: none; stroke: #111111; stroke-width: 0.9; stroke-linecap: round"/>
   </g>
   <g id="line2d_97">
    <path d="M 387.188182 249.495598 
L 388.846825 246.799892 
L 391.334789 242.262201 
L 392.16411 241.221858 
L 392.993431 240.399629 
L 393.822753 239.759499 
L 394.652074 239.261439 
L 395.481396 239.047523 
L 396.310717 239.172583 
L 399.628003 240.453466 
L 401.286645 241.731057 
L 402.115967 243.196433 
L 402.945288 245.32856 
L 403.774609 248.794211 
L 405.433252 258.339013 
L 408.750538 282.043379 
L 409.579859 287.599975 
L 411.238502 295.982341 
L 412.067823 299.057207 
L 412.897145 300.891342 
L 413.726466 302.10512 
L 414.555787 301.836311 
L 415.385109 301.203729 
L 417.873073 296.972317 
L 419.531716 292.377448 
L 420.361037 289.764386 
L 422.01968 283.287693 
L 423.678323 276.439958 
L 424.507644 273.851718 
L 425.336965 272.881873 
L 426.166287 272.721215 
L 426.995608 273.973198 
L 427.82493 275.696567 
L 430.312894 283.447312 
L 431.971536 288.146118 
L 432.800858 290.188481 
L 434.459501 293.507061 
L 436.118143 295.464312 
L 436.947465 296.072878 
L 437.776786 296.260175 
L 438.606108 296.23684 
L 440.26475 298.601758 
L 441.923393 301.606552 
L 444.411357 305.51747 
L 446.07 305.770762 
L 446.899321 305.836289 
L 448.557964 304.693059 
L 449.387286 303.908971 
L 450.216607 302.591554 
L 451.045928 301.007477 
L 452.704571 297.096897 
L 455.192535 290.805967 
L 456.851178 287.139704 
L 458.509821 283.267421 
L 460.168464 280.105588 
L 461.827106 277.04456 
L 462.656428 276.042193 
L 463.485749 275.310917 
L 464.31507 274.801441 
L 465.144392 274.463232 
L 467.632356 274.447809 
L 468.461677 274.049838 
L 469.290999 273.443082 
L 470.949641 271.293596 
L 471.778963 270.118035 
L 473.437606 266.959093 
L 475.096248 262.913631 
L 475.92557 260.739303 
L 477.584213 257.933836 
L 478.413534 256.778887 
L 480.072177 255.249672 
L 481.730819 254.006973 
L 483.389462 252.389014 
L 484.218784 251.726483 
L 485.048105 251.359962 
L 485.877426 251.16625 
L 488.365391 251.582712 
L 489.194712 252.052325 
L 490.024033 252.722298 
L 490.853355 253.792999 
L 491.682676 255.549057 
L 492.511997 257.647788 
L 494.17064 264.61127 
L 495.829283 273.733761 
L 498.317247 288.337201 
L 499.146569 292.293302 
L 499.97589 295.26406 
L 500.805211 297.742155 
L 501.634533 298.111086 
L 502.463854 297.645935 
L 503.293175 295.512597 
L 504.122497 292.186678 
L 504.951818 288.264476 
L 504.951818 288.264476 
" clip-path="url(#p017cb9e027)" style="fill: none; stroke: #d55e00; stroke-width: 0.9; stroke-linecap: round"/>
   </g>
   <g id="line2d_98">
    <path d="M 387.188182 245.048892 
L 388.017503 243.208346 
L 388.846825 241.088801 
L 390.505467 239.080022 
L 391.334789 238.357288 
L 392.993431 237.449405 
L 394.652074 237.494151 
L 395.481396 237.756495 
L 396.310717 238.493041 
L 397.140038 239.474745 
L 399.628003 246.255553 
L 401.286645 252.417443 
L 402.115967 254.362302 
L 402.945288 257.596062 
L 404.603931 269.007749 
L 408.750538 294.137167 
L 409.579859 298.191168 
L 410.409181 300.716818 
L 411.238502 302.636893 
L 412.067823 303.307262 
L 412.897145 303.121247 
L 413.726466 302.475723 
L 415.385109 299.136725 
L 420.361037 286.905516 
L 421.190359 285.775998 
L 422.01968 285.097786 
L 422.849001 285.408669 
L 423.678323 285.962026 
L 424.507644 287.004196 
L 425.336965 289.09328 
L 427.82493 296.919718 
L 429.483572 301.88717 
L 430.312894 304.559233 
L 432.800858 310.133347 
L 433.630179 311.278928 
L 434.459501 312.0508 
L 436.947465 312.807772 
L 438.606108 312.82191 
L 441.094072 313.939695 
L 442.752714 314.460024 
L 443.582036 314.918614 
L 444.411357 315.038455 
L 445.240679 314.357564 
L 446.07 312.878355 
L 446.899321 310.938686 
L 451.045928 294.527872 
L 453.533892 287.195977 
L 455.192535 283.24297 
L 456.851178 279.790902 
L 458.509821 276.914852 
L 459.339142 275.657891 
L 461.827106 272.528387 
L 463.485749 270.43558 
L 465.144392 268.572739 
L 466.803035 266.376878 
L 467.632356 265.365182 
L 470.949641 260.239911 
L 472.608284 257.08909 
L 473.437606 255.331418 
L 475.096248 251.351028 
L 478.413534 244.094586 
L 482.560141 234.797145 
L 483.389462 233.557158 
L 485.048105 231.918821 
L 485.877426 231.255075 
L 486.706748 230.866414 
L 487.536069 230.674844 
L 488.365391 230.607545 
L 490.024033 232.129925 
L 490.853355 232.344847 
L 491.682676 233.661764 
L 492.511997 235.679394 
L 493.341319 240.63555 
L 494.17064 246.699686 
L 494.999962 255.206009 
L 495.829283 261.510443 
L 499.146569 281.098563 
L 499.97589 284.897693 
L 500.805211 287.831023 
L 501.634533 290.039249 
L 502.463854 291.568559 
L 503.293175 291.408724 
L 504.122497 290.552153 
L 504.951818 289.240688 
L 504.951818 289.240688 
" clip-path="url(#p017cb9e027)" style="fill: none; stroke: #0072b2; stroke-width: 0.9; stroke-linecap: round"/>
   </g>
   <g id="patch_18">
    <path d="M 381.3 319.26 
L 381.3 226.386 
" style="fill: none; stroke: #111111; stroke-width: 0.75; stroke-linejoin: miter; stroke-linecap: square"/>
   </g>
   <g id="patch_19">
    <path d="M 381.3 319.26 
L 510.84 319.26 
" style="fill: none; stroke: #111111; stroke-width: 0.75; stroke-linejoin: miter; stroke-linecap: square"/>
   </g>
   <g id="text_55">
    <text style="font-size: 7.5px; font-family: 'DejaVu Sans', 'Arial', 'Liberation Sans', 'Bitstream Vera Sans', sans-serif; fill: #262626" transform="translate(418.59832 211.987641)">Ankle flexion L</text>
    <text style="font-size: 7.5px; font-family: 'DejaVu Sans', 'Arial', 'Liberation Sans', 'Bitstream Vera Sans', sans-serif; fill: #262626" transform="translate(386.392266 220.386)">FM 10.9°/r 0.75 · OC 9.3°/r 0.76</text>
   </g>
  </g>
  <g id="text_56">
   <text style="font-weight: 700; font-size: 9.5px; font-family: 'DejaVu Sans', 'Arial', 'Liberation Sans', 'Bitstream Vera Sans', sans-serif; text-anchor: middle; fill: #262626" x="259.2" y="19.566516" transform="rotate(-0 259.2 19.566516)">S18_CurvWalkCounter_1</text>
  </g>
  <g id="legend_1">
   <g id="line2d_99">
    <path d="M 162.946172 44.448906 
L 169.946172 44.448906 
L 176.946172 44.448906 
" style="fill: none; stroke: #111111; stroke-width: 0.9; stroke-linecap: round"/>
   </g>
   <g id="text_57">
    <text style="font-size: 7px; font-family: 'DejaVu Sans', 'Arial', 'Liberation Sans', 'Bitstream Vera Sans', sans-serif; text-anchor: start; fill: #262626" x="182.546172" y="46.898906" transform="rotate(-0 182.546172 46.898906)">Marker-based</text>
   </g>
   <g id="line2d_100">
    <path d="M 243.948203 44.448906 
L 250.948203 44.448906 
L 257.948203 44.448906 
" style="fill: none; stroke: #d55e00; stroke-width: 0.9; stroke-linecap: round"/>
   </g>
   <g id="text_58">
    <text style="font-size: 7px; font-family: 'DejaVu Sans', 'Arial', 'Liberation Sans', 'Bitstream Vera Sans', sans-serif; text-anchor: start; fill: #262626" x="263.548203" y="46.898906" transform="rotate(-0 263.548203 46.898906)">OpenCap</text>
   </g>
   <g id="line2d_101">
    <path d="M 309.867422 44.448906 
L 316.867422 44.448906 
L 323.867422 44.448906 
" style="fill: none; stroke: #0072b2; stroke-width: 0.9; stroke-linecap: round"/>
   </g>
   <g id="text_59">
    <text style="font-size: 7px; font-family: 'DejaVu Sans', 'Arial', 'Liberation Sans', 'Bitstream Vera Sans', sans-serif; text-anchor: start; fill: #262626" x="329.467422" y="46.898906" transform="rotate(-0 329.467422 46.898906)">FootMR</text>
   </g>
  </g>
 </g>
 <defs>
  <clipPath id="pd0a5392643">
   <rect x="40.74" y="101.04" width="129.54" height="92.874"/>
  </clipPath>
  <clipPath id="p5d6bc94d43">
   <rect x="211.02" y="101.04" width="129.54" height="92.874"/>
  </clipPath>
  <clipPath id="p4eb5dfc75a">
   <rect x="381.3" y="101.04" width="129.54" height="92.874"/>
  </clipPath>
  <clipPath id="p32592f0e8e">
   <rect x="40.74" y="226.386" width="129.54" height="92.874"/>
  </clipPath>
  <clipPath id="p0d7d19d5e4">
   <rect x="211.02" y="226.386" width="129.54" height="92.874"/>
  </clipPath>
  <clipPath id="p017cb9e027">
   <rect x="381.3" y="226.386" width="129.54" height="92.874"/>
  </clipPath>
 </defs>
</svg>
